<svg width="245" height="245" viewBox="0 0 245 245" fill="none" xmlns="http://www.w3.org/2000/svg">
<rect width="245" height="245" rx="14" fill="#FFBABE"/>
<path d="M61.3399 175V163.364H65.7036C66.5975 163.364 67.3475 163.53 67.9536 163.864C68.5634 164.197 69.0236 164.655 69.3342 165.239C69.6486 165.818 69.8058 166.477 69.8058 167.216C69.8058 167.962 69.6486 168.625 69.3342 169.205C69.0198 169.784 68.5558 170.241 67.9422 170.574C67.3286 170.903 66.5729 171.068 65.6751 171.068H62.7831V169.335H65.3911C65.9138 169.335 66.3418 169.244 66.6751 169.062C67.0085 168.881 67.2547 168.631 67.4138 168.312C67.5767 167.994 67.6581 167.629 67.6581 167.216C67.6581 166.803 67.5767 166.439 67.4138 166.125C67.2547 165.811 67.0066 165.566 66.6695 165.392C66.3361 165.214 65.9062 165.125 65.3797 165.125H63.4479V175H61.3399ZM70.7459 175V166.273H72.7402V167.727H72.8311C72.9902 167.223 73.2629 166.835 73.6493 166.562C74.0394 166.286 74.4845 166.148 74.9845 166.148C75.0982 166.148 75.225 166.153 75.3652 166.165C75.5091 166.172 75.6285 166.186 75.7232 166.205V168.097C75.636 168.066 75.4978 168.04 75.3084 168.017C75.1228 167.991 74.9429 167.977 74.7686 167.977C74.3936 167.977 74.0565 168.059 73.7572 168.222C73.4618 168.381 73.2288 168.602 73.0584 168.886C72.8879 169.17 72.8027 169.498 72.8027 169.869V175H70.7459ZM78.6447 175.176C78.0917 175.176 77.5936 175.078 77.1504 174.881C76.711 174.68 76.3625 174.384 76.105 173.994C75.8512 173.604 75.7243 173.123 75.7243 172.551C75.7243 172.059 75.8152 171.652 75.997 171.33C76.1788 171.008 76.4269 170.75 76.7413 170.557C77.0557 170.364 77.4099 170.218 77.8038 170.119C78.2016 170.017 78.6125 169.943 79.0368 169.898C79.5482 169.845 79.9629 169.797 80.2811 169.756C80.5993 169.71 80.8304 169.642 80.9743 169.551C81.122 169.456 81.1959 169.311 81.1959 169.114V169.08C81.1959 168.652 81.069 168.32 80.8152 168.085C80.5614 167.85 80.1959 167.733 79.7186 167.733C79.2148 167.733 78.8152 167.843 78.5197 168.062C78.2281 168.282 78.0311 168.542 77.9288 168.841L76.0084 168.568C76.1599 168.038 76.4099 167.595 76.7584 167.239C77.1069 166.879 77.533 166.61 78.0368 166.432C78.5406 166.25 79.0974 166.159 79.7072 166.159C80.1277 166.159 80.5463 166.208 80.9629 166.307C81.3796 166.405 81.7603 166.568 82.105 166.795C82.4497 167.019 82.7262 167.324 82.9345 167.71C83.1466 168.097 83.2527 168.58 83.2527 169.159V175H81.2754V173.801H81.2072C81.0822 174.044 80.9061 174.271 80.6788 174.483C80.4554 174.691 80.1732 174.86 79.8322 174.989C79.4951 175.114 79.0993 175.176 78.6447 175.176ZM79.1788 173.665C79.5917 173.665 79.9497 173.583 80.2527 173.42C80.5557 173.254 80.7887 173.034 80.9516 172.761C81.1182 172.489 81.2016 172.191 81.2016 171.869V170.841C81.1372 170.894 81.0273 170.943 80.872 170.989C80.7205 171.034 80.55 171.074 80.3607 171.108C80.1713 171.142 79.9838 171.172 79.7982 171.199C79.6125 171.225 79.4516 171.248 79.3152 171.267C79.0084 171.309 78.7338 171.377 78.4913 171.472C78.2489 171.566 78.0576 171.699 77.9175 171.869C77.7773 172.036 77.7072 172.252 77.7072 172.517C77.7072 172.896 77.8455 173.182 78.122 173.375C78.3985 173.568 78.7508 173.665 79.1788 173.665ZM88.3277 175.17C87.4565 175.17 86.7084 174.979 86.0834 174.597C85.4622 174.214 84.983 173.686 84.6459 173.011C84.3125 172.333 84.1459 171.553 84.1459 170.67C84.1459 169.784 84.3163 169.002 84.6572 168.324C84.9982 167.642 85.4792 167.112 86.1004 166.733C86.7254 166.35 87.4641 166.159 88.3163 166.159C89.0247 166.159 89.6516 166.29 90.197 166.551C90.7463 166.809 91.1838 167.174 91.5095 167.648C91.8353 168.117 92.0209 168.667 92.0663 169.295H90.1004C90.0209 168.875 89.8315 168.525 89.5322 168.244C89.2368 167.96 88.841 167.818 88.3447 167.818C87.9243 167.818 87.555 167.932 87.2368 168.159C86.9186 168.383 86.6705 168.705 86.4925 169.125C86.3182 169.545 86.2311 170.049 86.2311 170.636C86.2311 171.231 86.3182 171.742 86.4925 172.17C86.6667 172.595 86.911 172.922 87.2254 173.153C87.5436 173.381 87.9167 173.494 88.3447 173.494C88.6478 173.494 88.9186 173.437 89.1572 173.324C89.3997 173.206 89.6023 173.038 89.7652 172.818C89.9281 172.598 90.0398 172.331 90.1004 172.017H92.0663C92.0171 172.634 91.8353 173.182 91.5209 173.659C91.2065 174.133 90.7785 174.504 90.2368 174.773C89.6951 175.038 89.0588 175.17 88.3277 175.17ZM97.3132 166.273V167.864H92.2962V166.273H97.3132ZM93.5348 164.182H95.5916V172.375C95.5916 172.652 95.6333 172.864 95.7166 173.011C95.8037 173.155 95.9174 173.254 96.0575 173.307C96.1977 173.36 96.353 173.386 96.5234 173.386C96.6522 173.386 96.7696 173.377 96.8757 173.358C96.9856 173.339 97.0689 173.322 97.1257 173.307L97.4723 174.915C97.3625 174.953 97.2053 174.994 97.0007 175.04C96.8 175.085 96.5537 175.112 96.2621 175.119C95.7469 175.134 95.2829 175.057 94.87 174.886C94.4571 174.712 94.1295 174.443 93.8871 174.08C93.6484 173.716 93.531 173.261 93.5348 172.716V164.182ZM98.2334 175V166.273H100.29V175H98.2334ZM99.2675 165.034C98.9417 165.034 98.6614 164.926 98.4266 164.71C98.1917 164.491 98.0743 164.227 98.0743 163.92C98.0743 163.61 98.1917 163.347 98.4266 163.131C98.6614 162.911 98.9417 162.801 99.2675 162.801C99.597 162.801 99.8773 162.911 100.108 163.131C100.343 163.347 100.461 163.61 100.461 163.92C100.461 164.227 100.343 164.491 100.108 164.71C99.8773 164.926 99.597 165.034 99.2675 165.034ZM105.412 175.17C104.541 175.17 103.793 174.979 103.168 174.597C102.547 174.214 102.067 173.686 101.73 173.011C101.397 172.333 101.23 171.553 101.23 170.67C101.23 169.784 101.401 169.002 101.742 168.324C102.083 167.642 102.564 167.112 103.185 166.733C103.81 166.35 104.548 166.159 105.401 166.159C106.109 166.159 106.736 166.29 107.281 166.551C107.831 166.809 108.268 167.174 108.594 167.648C108.92 168.117 109.105 168.667 109.151 169.295H107.185C107.105 168.875 106.916 168.525 106.617 168.244C106.321 167.96 105.925 167.818 105.429 167.818C105.009 167.818 104.639 167.932 104.321 168.159C104.003 168.383 103.755 168.705 103.577 169.125C103.403 169.545 103.315 170.049 103.315 170.636C103.315 171.231 103.403 171.742 103.577 172.17C103.751 172.595 103.995 172.922 104.31 173.153C104.628 173.381 105.001 173.494 105.429 173.494C105.732 173.494 106.003 173.437 106.242 173.324C106.484 173.206 106.687 173.038 106.85 172.818C107.012 172.598 107.124 172.331 107.185 172.017H109.151C109.101 172.634 108.92 173.182 108.605 173.659C108.291 174.133 107.863 174.504 107.321 174.773C106.779 175.038 106.143 175.17 105.412 175.17ZM113.903 175.17C113.028 175.17 112.273 174.989 111.636 174.625C111.004 174.258 110.517 173.739 110.176 173.068C109.835 172.394 109.665 171.6 109.665 170.688C109.665 169.79 109.835 169.002 110.176 168.324C110.521 167.642 111.002 167.112 111.619 166.733C112.237 166.35 112.962 166.159 113.795 166.159C114.333 166.159 114.841 166.246 115.318 166.42C115.799 166.591 116.223 166.856 116.591 167.216C116.962 167.576 117.254 168.034 117.466 168.591C117.678 169.144 117.784 169.803 117.784 170.568V171.199H110.631V169.812H115.812C115.809 169.419 115.723 169.068 115.557 168.761C115.39 168.451 115.157 168.206 114.858 168.028C114.562 167.85 114.218 167.761 113.824 167.761C113.403 167.761 113.034 167.864 112.716 168.068C112.398 168.269 112.149 168.534 111.971 168.864C111.797 169.189 111.708 169.547 111.704 169.938V171.148C111.704 171.655 111.797 172.091 111.983 172.455C112.168 172.814 112.428 173.091 112.761 173.284C113.095 173.473 113.485 173.568 113.932 173.568C114.231 173.568 114.502 173.527 114.744 173.443C114.987 173.356 115.197 173.229 115.375 173.062C115.553 172.896 115.687 172.689 115.778 172.443L117.699 172.659C117.578 173.167 117.346 173.61 117.006 173.989C116.668 174.364 116.237 174.655 115.71 174.864C115.184 175.068 114.581 175.17 113.903 175.17ZM123.478 175H121.228L125.325 163.364H127.927L132.029 175H129.779L126.671 165.75H126.58L123.478 175ZM123.552 170.438H129.688V172.131H123.552V170.438ZM134.728 169.886V175H132.671V166.273H134.637V167.756H134.739C134.94 167.267 135.26 166.879 135.699 166.591C136.142 166.303 136.69 166.159 137.341 166.159C137.944 166.159 138.468 166.288 138.915 166.545C139.366 166.803 139.714 167.176 139.961 167.665C140.211 168.153 140.334 168.746 140.33 169.443V175H138.273V169.761C138.273 169.178 138.122 168.722 137.819 168.392C137.519 168.062 137.105 167.898 136.574 167.898C136.214 167.898 135.894 167.977 135.614 168.136C135.338 168.292 135.12 168.517 134.961 168.812C134.805 169.108 134.728 169.466 134.728 169.886ZM144.132 175.176C143.579 175.176 143.081 175.078 142.638 174.881C142.199 174.68 141.85 174.384 141.592 173.994C141.339 173.604 141.212 173.123 141.212 172.551C141.212 172.059 141.303 171.652 141.485 171.33C141.666 171.008 141.914 170.75 142.229 170.557C142.543 170.364 142.897 170.218 143.291 170.119C143.689 170.017 144.1 169.943 144.524 169.898C145.036 169.845 145.45 169.797 145.769 169.756C146.087 169.71 146.318 169.642 146.462 169.551C146.61 169.456 146.683 169.311 146.683 169.114V169.08C146.683 168.652 146.556 168.32 146.303 168.085C146.049 167.85 145.683 167.733 145.206 167.733C144.702 167.733 144.303 167.843 144.007 168.062C143.716 168.282 143.519 168.542 143.416 168.841L141.496 168.568C141.647 168.038 141.897 167.595 142.246 167.239C142.594 166.879 143.02 166.61 143.524 166.432C144.028 166.25 144.585 166.159 145.195 166.159C145.615 166.159 146.034 166.208 146.45 166.307C146.867 166.405 147.248 166.568 147.592 166.795C147.937 167.019 148.214 167.324 148.422 167.71C148.634 168.097 148.74 168.58 148.74 169.159V175H146.763V173.801H146.695C146.57 174.044 146.394 174.271 146.166 174.483C145.943 174.691 145.661 174.86 145.32 174.989C144.983 175.114 144.587 175.176 144.132 175.176ZM144.666 173.665C145.079 173.665 145.437 173.583 145.74 173.42C146.043 173.254 146.276 173.034 146.439 172.761C146.606 172.489 146.689 172.191 146.689 171.869V170.841C146.625 170.894 146.515 170.943 146.36 170.989C146.208 171.034 146.038 171.074 145.848 171.108C145.659 171.142 145.471 171.172 145.286 171.199C145.1 171.225 144.939 171.248 144.803 171.267C144.496 171.309 144.221 171.377 143.979 171.472C143.736 171.566 143.545 171.699 143.405 171.869C143.265 172.036 143.195 172.252 143.195 172.517C143.195 172.896 143.333 173.182 143.61 173.375C143.886 173.568 144.238 173.665 144.666 173.665ZM152.065 163.364V175H150.008V163.364H152.065ZM154.659 178.273C154.378 178.273 154.119 178.25 153.88 178.205C153.645 178.163 153.458 178.114 153.318 178.057L153.795 176.455C154.094 176.542 154.361 176.583 154.596 176.58C154.831 176.576 155.037 176.502 155.215 176.358C155.397 176.218 155.551 175.983 155.676 175.653L155.852 175.182L152.687 166.273H154.869L156.88 172.864H156.971L158.988 166.273H161.176L157.681 176.057C157.519 176.519 157.303 176.915 157.034 177.244C156.765 177.578 156.435 177.831 156.045 178.006C155.659 178.184 155.197 178.273 154.659 178.273ZM166.157 166.273V167.864H161.14V166.273H166.157ZM162.379 164.182H164.435V172.375C164.435 172.652 164.477 172.864 164.56 173.011C164.647 173.155 164.761 173.254 164.901 173.307C165.041 173.36 165.197 173.386 165.367 173.386C165.496 173.386 165.613 173.377 165.719 173.358C165.829 173.339 165.913 173.322 165.969 173.307L166.316 174.915C166.206 174.953 166.049 174.994 165.844 175.04C165.644 175.085 165.397 175.112 165.106 175.119C164.591 175.134 164.127 175.057 163.714 174.886C163.301 174.712 162.973 174.443 162.731 174.08C162.492 173.716 162.375 173.261 162.379 172.716V164.182ZM167.077 175V166.273H169.134V175H167.077ZM168.111 165.034C167.785 165.034 167.505 164.926 167.27 164.71C167.035 164.491 166.918 164.227 166.918 163.92C166.918 163.61 167.035 163.347 167.27 163.131C167.505 162.911 167.785 162.801 168.111 162.801C168.441 162.801 168.721 162.911 168.952 163.131C169.187 163.347 169.304 163.61 169.304 163.92C169.304 164.227 169.187 164.491 168.952 164.71C168.721 164.926 168.441 165.034 168.111 165.034ZM174.256 175.17C173.385 175.17 172.636 174.979 172.011 174.597C171.39 174.214 170.911 173.686 170.574 173.011C170.241 172.333 170.074 171.553 170.074 170.67C170.074 169.784 170.244 169.002 170.585 168.324C170.926 167.642 171.407 167.112 172.029 166.733C172.654 166.35 173.392 166.159 174.244 166.159C174.953 166.159 175.58 166.29 176.125 166.551C176.674 166.809 177.112 167.174 177.438 167.648C177.763 168.117 177.949 168.667 177.994 169.295H176.029C175.949 168.875 175.76 168.525 175.46 168.244C175.165 167.96 174.769 167.818 174.273 167.818C173.852 167.818 173.483 167.932 173.165 168.159C172.847 168.383 172.599 168.705 172.421 169.125C172.246 169.545 172.159 170.049 172.159 170.636C172.159 171.231 172.246 171.742 172.421 172.17C172.595 172.595 172.839 172.922 173.154 173.153C173.472 173.381 173.845 173.494 174.273 173.494C174.576 173.494 174.847 173.437 175.085 173.324C175.328 173.206 175.53 173.038 175.693 172.818C175.856 172.598 175.968 172.331 176.029 172.017H177.994C177.945 172.634 177.763 173.182 177.449 173.659C177.135 174.133 176.707 174.504 176.165 174.773C175.623 175.038 174.987 175.17 174.256 175.17ZM185.781 168.58L183.906 168.784C183.853 168.595 183.76 168.417 183.628 168.25C183.499 168.083 183.325 167.949 183.105 167.847C182.885 167.744 182.616 167.693 182.298 167.693C181.87 167.693 181.51 167.786 181.219 167.972C180.931 168.157 180.789 168.398 180.792 168.693C180.789 168.947 180.881 169.153 181.071 169.312C181.264 169.472 181.582 169.602 182.025 169.705L183.514 170.023C184.34 170.201 184.953 170.483 185.355 170.869C185.76 171.256 185.965 171.761 185.969 172.386C185.965 172.936 185.804 173.42 185.486 173.841C185.171 174.258 184.734 174.583 184.173 174.818C183.613 175.053 182.969 175.17 182.241 175.17C181.173 175.17 180.313 174.947 179.662 174.5C179.01 174.049 178.622 173.422 178.497 172.619L180.503 172.426C180.594 172.82 180.787 173.117 181.082 173.318C181.378 173.519 181.762 173.619 182.236 173.619C182.724 173.619 183.116 173.519 183.412 173.318C183.711 173.117 183.861 172.869 183.861 172.574C183.861 172.324 183.764 172.117 183.571 171.955C183.381 171.792 183.086 171.667 182.685 171.58L181.196 171.267C180.359 171.093 179.739 170.799 179.338 170.386C178.936 169.97 178.738 169.443 178.741 168.807C178.738 168.269 178.883 167.803 179.179 167.409C179.478 167.011 179.893 166.705 180.423 166.489C180.957 166.269 181.573 166.159 182.27 166.159C183.292 166.159 184.097 166.377 184.685 166.812C185.275 167.248 185.641 167.837 185.781 168.58ZM93.0247 194.17C92.2293 194.17 91.5455 194.027 90.9736 193.739C90.4016 193.451 89.9603 193.062 89.6497 192.574C89.3429 192.081 89.1895 191.527 89.1895 190.909C89.1895 190.443 89.2842 190.03 89.4736 189.67C89.6668 189.311 89.9319 188.977 90.269 188.67C90.6099 188.364 91.0039 188.059 91.4509 187.756L93.5134 186.352C93.8164 186.155 94.0455 185.947 94.2009 185.727C94.3599 185.508 94.4395 185.25 94.4395 184.955C94.4395 184.705 94.3334 184.468 94.1213 184.244C93.913 184.021 93.6251 183.909 93.2577 183.909C93.0115 183.909 92.7937 183.968 92.6043 184.085C92.4187 184.199 92.2728 184.348 92.1668 184.534C92.0645 184.72 92.0134 184.917 92.0134 185.125C92.0134 185.379 92.0834 185.636 92.2236 185.898C92.3675 186.159 92.5531 186.43 92.7804 186.71C93.0115 186.991 93.2577 187.288 93.519 187.602L98.9793 194H96.752L92.2179 188.807C91.8808 188.413 91.555 188.025 91.2406 187.642C90.93 187.259 90.6743 186.862 90.4736 186.449C90.2766 186.032 90.1781 185.581 90.1781 185.097C90.1781 184.547 90.305 184.057 90.5588 183.625C90.8126 183.189 91.1668 182.847 91.6213 182.597C92.0796 182.347 92.6156 182.222 93.2293 182.222C93.8429 182.222 94.3694 182.343 94.8088 182.585C95.2482 182.828 95.5872 183.15 95.8259 183.551C96.0645 183.953 96.1838 184.39 96.1838 184.864C96.1838 185.413 96.0474 185.905 95.7747 186.341C95.502 186.773 95.1232 187.165 94.6384 187.517L92.2861 189.239C91.8997 189.519 91.6232 189.803 91.4565 190.091C91.2899 190.375 91.2065 190.617 91.2065 190.818C91.2065 191.125 91.2842 191.403 91.4395 191.653C91.5948 191.903 91.8126 192.104 92.0929 192.256C92.377 192.403 92.7084 192.477 93.0872 192.477C93.5039 192.477 93.9149 192.384 94.3202 192.199C94.7255 192.009 95.0948 191.741 95.4281 191.392C95.7615 191.044 96.0266 190.627 96.2236 190.142C96.4205 189.653 96.519 189.112 96.519 188.517H98.2861C98.2861 189.252 98.2046 189.892 98.0418 190.438C97.8789 190.979 97.6687 191.438 97.4111 191.812C97.1535 192.184 96.8808 192.481 96.5929 192.705C96.502 192.769 96.4149 192.833 96.3315 192.898C96.2482 192.962 96.1611 193.027 96.0702 193.091C95.6611 193.462 95.1819 193.735 94.6327 193.909C94.0872 194.083 93.5512 194.17 93.0247 194.17ZM104.724 182.364V194H102.616V182.364H104.724ZM108.173 188.886V194H106.116V185.273H108.082V186.756H108.184C108.385 186.267 108.705 185.879 109.145 185.591C109.588 185.303 110.135 185.159 110.787 185.159C111.389 185.159 111.914 185.288 112.361 185.545C112.811 185.803 113.16 186.176 113.406 186.665C113.656 187.153 113.779 187.746 113.775 188.443V194H111.718V188.761C111.718 188.178 111.567 187.722 111.264 187.392C110.965 187.062 110.55 186.898 110.02 186.898C109.66 186.898 109.34 186.977 109.059 187.136C108.783 187.292 108.565 187.517 108.406 187.812C108.251 188.108 108.173 188.466 108.173 188.886ZM121.964 187.58L120.089 187.784C120.036 187.595 119.943 187.417 119.811 187.25C119.682 187.083 119.507 186.949 119.288 186.847C119.068 186.744 118.799 186.693 118.481 186.693C118.053 186.693 117.693 186.786 117.401 186.972C117.114 187.157 116.971 187.398 116.975 187.693C116.971 187.947 117.064 188.153 117.254 188.312C117.447 188.472 117.765 188.602 118.208 188.705L119.697 189.023C120.523 189.201 121.136 189.483 121.538 189.869C121.943 190.256 122.148 190.761 122.151 191.386C122.148 191.936 121.987 192.42 121.668 192.841C121.354 193.258 120.917 193.583 120.356 193.818C119.795 194.053 119.151 194.17 118.424 194.17C117.356 194.17 116.496 193.947 115.845 193.5C115.193 193.049 114.805 192.422 114.68 191.619L116.686 191.426C116.776 191.82 116.97 192.117 117.265 192.318C117.561 192.519 117.945 192.619 118.418 192.619C118.907 192.619 119.299 192.519 119.595 192.318C119.894 192.117 120.043 191.869 120.043 191.574C120.043 191.324 119.947 191.117 119.754 190.955C119.564 190.792 119.269 190.667 118.867 190.58L117.379 190.267C116.542 190.093 115.922 189.799 115.521 189.386C115.119 188.97 114.92 188.443 114.924 187.807C114.92 187.269 115.066 186.803 115.362 186.409C115.661 186.011 116.076 185.705 116.606 185.489C117.14 185.269 117.756 185.159 118.453 185.159C119.475 185.159 120.28 185.377 120.867 185.812C121.458 186.248 121.824 186.837 121.964 187.58ZM123.047 194V185.273H125.104V194H123.047ZM124.082 184.034C123.756 184.034 123.475 183.926 123.241 183.71C123.006 183.491 122.888 183.227 122.888 182.92C122.888 182.61 123.006 182.347 123.241 182.131C123.475 181.911 123.756 181.801 124.082 181.801C124.411 181.801 124.691 181.911 124.922 182.131C125.157 182.347 125.275 182.61 125.275 182.92C125.275 183.227 125.157 183.491 124.922 183.71C124.691 183.926 124.411 184.034 124.082 184.034ZM130.215 197.455C129.476 197.455 128.842 197.354 128.311 197.153C127.781 196.956 127.355 196.691 127.033 196.358C126.711 196.025 126.488 195.655 126.363 195.25L128.215 194.801C128.298 194.972 128.419 195.14 128.578 195.307C128.738 195.477 128.952 195.617 129.22 195.727C129.493 195.841 129.836 195.898 130.249 195.898C130.832 195.898 131.315 195.756 131.698 195.472C132.08 195.191 132.272 194.729 132.272 194.085V192.432H132.169C132.063 192.644 131.908 192.862 131.703 193.085C131.503 193.309 131.236 193.496 130.902 193.648C130.573 193.799 130.158 193.875 129.658 193.875C128.988 193.875 128.38 193.718 127.834 193.403C127.292 193.085 126.861 192.612 126.539 191.983C126.22 191.35 126.061 190.559 126.061 189.608C126.061 188.65 126.22 187.841 126.539 187.182C126.861 186.519 127.294 186.017 127.84 185.676C128.385 185.331 128.993 185.159 129.664 185.159C130.175 185.159 130.595 185.246 130.925 185.42C131.258 185.591 131.523 185.797 131.72 186.04C131.917 186.278 132.067 186.504 132.169 186.716H132.283V185.273H134.311V194.142C134.311 194.888 134.133 195.506 133.777 195.994C133.421 196.483 132.934 196.848 132.317 197.091C131.7 197.333 130.999 197.455 130.215 197.455ZM130.232 192.261C130.667 192.261 131.039 192.155 131.345 191.943C131.652 191.731 131.885 191.426 132.044 191.028C132.203 190.631 132.283 190.153 132.283 189.597C132.283 189.047 132.203 188.566 132.044 188.153C131.889 187.741 131.658 187.42 131.351 187.193C131.048 186.962 130.675 186.847 130.232 186.847C129.773 186.847 129.391 186.966 129.084 187.205C128.777 187.443 128.546 187.771 128.391 188.188C128.236 188.6 128.158 189.07 128.158 189.597C128.158 190.131 128.236 190.598 128.391 191C128.55 191.398 128.783 191.708 129.09 191.932C129.4 192.152 129.781 192.261 130.232 192.261ZM137.676 188.886V194H135.619V182.364H137.631V186.756H137.733C137.938 186.263 138.254 185.875 138.682 185.591C139.114 185.303 139.663 185.159 140.33 185.159C140.936 185.159 141.464 185.286 141.915 185.54C142.366 185.794 142.714 186.165 142.96 186.653C143.21 187.142 143.335 187.739 143.335 188.443V194H141.278V188.761C141.278 188.174 141.127 187.718 140.824 187.392C140.525 187.062 140.104 186.898 139.562 186.898C139.199 186.898 138.873 186.977 138.585 187.136C138.301 187.292 138.078 187.517 137.915 187.812C137.756 188.108 137.676 188.466 137.676 188.886ZM148.99 185.273V186.864H143.973V185.273H148.99ZM145.211 183.182H147.268V191.375C147.268 191.652 147.31 191.864 147.393 192.011C147.48 192.155 147.594 192.254 147.734 192.307C147.874 192.36 148.03 192.386 148.2 192.386C148.329 192.386 148.446 192.377 148.552 192.358C148.662 192.339 148.745 192.322 148.802 192.307L149.149 193.915C149.039 193.953 148.882 193.994 148.677 194.04C148.477 194.085 148.23 194.112 147.939 194.119C147.423 194.134 146.959 194.057 146.547 193.886C146.134 193.712 145.806 193.443 145.564 193.08C145.325 192.716 145.208 192.261 145.211 191.716V183.182ZM156.683 187.58L154.808 187.784C154.755 187.595 154.662 187.417 154.529 187.25C154.4 187.083 154.226 186.949 154.007 186.847C153.787 186.744 153.518 186.693 153.2 186.693C152.772 186.693 152.412 186.786 152.12 186.972C151.832 187.157 151.69 187.398 151.694 187.693C151.69 187.947 151.783 188.153 151.972 188.312C152.166 188.472 152.484 188.602 152.927 188.705L154.416 189.023C155.241 189.201 155.855 189.483 156.257 189.869C156.662 190.256 156.866 190.761 156.87 191.386C156.866 191.936 156.705 192.42 156.387 192.841C156.073 193.258 155.635 193.583 155.075 193.818C154.514 194.053 153.87 194.17 153.143 194.17C152.075 194.17 151.215 193.947 150.563 193.5C149.912 193.049 149.524 192.422 149.399 191.619L151.404 191.426C151.495 191.82 151.688 192.117 151.984 192.318C152.279 192.519 152.664 192.619 153.137 192.619C153.626 192.619 154.018 192.519 154.313 192.318C154.613 192.117 154.762 191.869 154.762 191.574C154.762 191.324 154.666 191.117 154.472 190.955C154.283 190.792 153.988 190.667 153.586 190.58L152.097 190.267C151.26 190.093 150.641 189.799 150.239 189.386C149.838 188.97 149.639 188.443 149.643 187.807C149.639 187.269 149.785 186.803 150.08 186.409C150.38 186.011 150.794 185.705 151.325 185.489C151.859 185.269 152.474 185.159 153.171 185.159C154.194 185.159 154.999 185.377 155.586 185.812C156.177 186.248 156.543 186.837 156.683 187.58Z" fill="#880049"/>
<path d="M98.75 94.875H94.875V145.25C94.875 146.278 95.2833 147.263 96.01 147.99C96.7367 148.717 97.7223 149.125 98.75 149.125H149.125V145.25H98.75V94.875Z" fill="#880049"/>
<path d="M149.125 108.438H135.562V112.312H142.518L127.812 127.018L119.501 118.687C119.321 118.505 119.106 118.361 118.87 118.263C118.634 118.164 118.381 118.114 118.125 118.114C117.869 118.114 117.616 118.164 117.38 118.263C117.144 118.361 116.929 118.505 116.749 118.687L102.625 132.831L105.357 135.562L118.125 122.794L126.437 131.126C126.617 131.307 126.831 131.451 127.067 131.55C127.303 131.648 127.557 131.699 127.812 131.699C128.068 131.699 128.322 131.648 128.558 131.55C128.794 131.451 129.008 131.307 129.188 131.126L145.25 115.044V122H149.125V108.438Z" fill="#880049"/>
</svg>
