<svg width="246" height="245" viewBox="0 0 246 245" fill="none" xmlns="http://www.w3.org/2000/svg">
<rect width="246" height="245" rx="14" fill="#CCD6DB"/>
<path d="M134.002 135.743C132.3 135.743 130.669 136.419 129.466 137.622C128.262 138.826 127.587 140.458 127.587 142.16C127.587 143.862 128.262 145.495 129.466 146.698C130.669 147.902 132.3 148.578 134.002 148.578C135.703 148.578 137.335 147.902 138.538 146.698C139.741 145.495 140.417 143.862 140.417 142.16C140.417 140.458 139.741 138.826 138.538 137.622C137.335 136.419 135.703 135.743 134.002 135.743ZM131.252 142.16C131.252 141.431 131.542 140.731 132.058 140.215C132.573 139.7 133.273 139.41 134.002 139.41C134.731 139.41 135.43 139.7 135.946 140.215C136.462 140.731 136.751 141.431 136.751 142.16C136.751 142.89 136.462 143.589 135.946 144.105C135.43 144.621 134.731 144.911 134.002 144.911C133.273 144.911 132.573 144.621 132.058 144.105C131.542 143.589 131.252 142.89 131.252 142.16Z" fill="#2E2433"/>
<path d="M144.125 122.198L138.298 114.025L116.873 131.147L115.685 131.135V131.153H114.75V153.156H153.242V131.153H151.479L147.971 120.887L144.125 122.198ZM147.606 131.153H129.225L142.915 126.485L145.705 125.592L147.606 131.153ZM140.503 123.434L126.371 128.252L137.563 119.308L140.503 123.434ZM118.416 146.132V138.174C119.19 137.901 119.893 137.458 120.473 136.877C121.054 136.297 121.497 135.594 121.77 134.82H146.222C146.495 135.594 146.938 136.298 147.519 136.878C148.099 137.459 148.802 137.902 149.576 138.176V146.133C148.802 146.407 148.099 146.85 147.519 147.431C146.938 148.011 146.495 148.715 146.222 149.489H121.774C121.499 148.715 121.055 148.011 120.474 147.43C119.894 146.85 119.19 146.406 118.416 146.132Z" fill="#2E2433"/>
<line x1="93.6665" y1="123.844" x2="93.6665" y2="153.181" stroke="#2E2433" stroke-width="7.33308"/>
<line x1="106.502" y1="114.672" x2="106.502" y2="153.177" stroke="#2E2433" stroke-width="7.33308"/>
<path d="M90 118.337L106.497 97.2511L118.411 115.587L141.323 89" stroke="#2E2433" stroke-width="3.66654"/>
<path d="M45.4327 175.159C44.6751 175.159 43.9971 175.017 43.3986 174.733C42.8001 174.445 42.3247 174.051 41.9724 173.551C41.624 173.051 41.4384 172.479 41.4156 171.835H43.4611C43.499 172.312 43.7054 172.703 44.0804 173.006C44.4554 173.305 44.9062 173.455 45.4327 173.455C45.8456 173.455 46.213 173.36 46.5349 173.17C46.8569 172.981 47.1107 172.718 47.2963 172.381C47.4819 172.044 47.5728 171.659 47.569 171.227C47.5728 170.788 47.48 170.398 47.2906 170.057C47.1012 169.716 46.8418 169.449 46.5122 169.256C46.1827 169.059 45.8039 168.96 45.3759 168.96C45.0274 168.956 44.6846 169.021 44.3474 169.153C44.0103 169.286 43.7433 169.46 43.5463 169.676L41.6429 169.364L42.2509 163.364H49.0009V165.125H43.9952L43.6599 168.21H43.7281C43.944 167.956 44.249 167.746 44.6429 167.58C45.0368 167.409 45.4687 167.324 45.9384 167.324C46.6429 167.324 47.2717 167.491 47.8247 167.824C48.3777 168.153 48.8134 168.608 49.1315 169.188C49.4497 169.767 49.6088 170.43 49.6088 171.176C49.6088 171.945 49.4308 172.631 49.0747 173.233C48.7224 173.831 48.2319 174.303 47.6031 174.648C46.9781 174.989 46.2546 175.159 45.4327 175.159ZM55.0134 175.222C54.0777 175.222 53.2747 174.985 52.6043 174.511C51.9376 174.034 51.4243 173.347 51.0645 172.449C50.7084 171.547 50.5304 170.462 50.5304 169.193C50.5342 167.924 50.7141 166.845 51.0702 165.955C51.43 165.061 51.9433 164.379 52.6099 163.909C53.2804 163.439 54.0815 163.205 55.0134 163.205C55.9452 163.205 56.7463 163.439 57.4168 163.909C58.0872 164.379 58.6005 165.061 58.9565 165.955C59.3164 166.848 59.4963 167.928 59.4963 169.193C59.4963 170.466 59.3164 171.553 58.9565 172.455C58.6005 173.352 58.0872 174.038 57.4168 174.511C56.7501 174.985 55.949 175.222 55.0134 175.222ZM55.0134 173.443C55.7406 173.443 56.3145 173.085 56.7349 172.369C57.1592 171.65 57.3713 170.591 57.3713 169.193C57.3713 168.269 57.2747 167.492 57.0815 166.864C56.8884 166.235 56.6156 165.761 56.2634 165.443C55.9111 165.121 55.4944 164.96 55.0134 164.96C54.2899 164.96 53.7179 165.32 53.2974 166.04C52.877 166.756 52.6649 167.807 52.6611 169.193C52.6573 170.121 52.7501 170.902 52.9395 171.534C53.1327 172.167 53.4054 172.644 53.7577 172.966C54.1099 173.284 54.5285 173.443 55.0134 173.443ZM66.8057 172.818V172.205C66.8057 171.754 66.9004 171.339 67.0898 170.96C67.283 170.581 67.5633 170.277 67.9307 170.045C68.2981 169.814 68.7432 169.699 69.2659 169.699C69.8038 169.699 70.2545 169.814 70.6182 170.045C70.9818 170.273 71.2564 170.576 71.442 170.955C71.6314 171.333 71.7261 171.75 71.7261 172.205V172.818C71.7261 173.269 71.6314 173.684 71.442 174.062C71.2527 174.441 70.9742 174.746 70.6068 174.977C70.2432 175.208 69.7962 175.324 69.2659 175.324C68.7356 175.324 68.2867 175.208 67.9193 174.977C67.5519 174.746 67.2735 174.441 67.0841 174.062C66.8985 173.684 66.8057 173.269 66.8057 172.818ZM68.2886 172.205V172.818C68.2886 173.117 68.3606 173.392 68.5045 173.642C68.6485 173.892 68.9023 174.017 69.2659 174.017C69.6333 174.017 69.8852 173.894 70.0216 173.648C70.1617 173.398 70.2318 173.121 70.2318 172.818V172.205C70.2318 171.902 70.1655 171.625 70.033 171.375C69.9004 171.121 69.6447 170.994 69.2659 170.994C68.9099 170.994 68.658 171.121 68.5102 171.375C68.3625 171.625 68.2886 171.902 68.2886 172.205ZM60.8909 166.159V165.545C60.8909 165.091 60.9875 164.674 61.1807 164.295C61.3739 163.917 61.6542 163.614 62.0216 163.386C62.389 163.155 62.8341 163.04 63.3568 163.04C63.8909 163.04 64.3398 163.155 64.7034 163.386C65.0708 163.614 65.3474 163.917 65.533 164.295C65.7186 164.674 65.8114 165.091 65.8114 165.545V166.159C65.8114 166.614 65.7167 167.03 65.5273 167.409C65.3417 167.784 65.0652 168.085 64.6977 168.312C64.3303 168.54 63.8833 168.653 63.3568 168.653C62.8227 168.653 62.372 168.54 62.0045 168.312C61.6409 168.085 61.3644 167.782 61.175 167.403C60.9856 167.025 60.8909 166.61 60.8909 166.159ZM62.3852 165.545V166.159C62.3852 166.462 62.4553 166.739 62.5955 166.989C62.7394 167.235 62.9932 167.358 63.3568 167.358C63.7205 167.358 63.9705 167.235 64.1068 166.989C64.247 166.739 64.317 166.462 64.317 166.159V165.545C64.317 165.242 64.2508 164.966 64.1182 164.716C63.9856 164.462 63.7318 164.335 63.3568 164.335C62.997 164.335 62.7451 164.462 62.6011 164.716C62.4572 164.97 62.3852 165.246 62.3852 165.545ZM61.5386 175L69.5386 163.364H70.9591L62.9591 175H61.5386ZM76.4756 175V166.273H78.4415V167.756H78.5438C78.7256 167.256 79.0267 166.866 79.4472 166.585C79.8676 166.301 80.3695 166.159 80.9528 166.159C81.5438 166.159 82.0419 166.303 82.4472 166.591C82.8563 166.875 83.1441 167.263 83.3108 167.756H83.4017C83.5949 167.271 83.9206 166.884 84.379 166.597C84.8411 166.305 85.3884 166.159 86.021 166.159C86.8241 166.159 87.4794 166.413 87.9869 166.92C88.4945 167.428 88.7483 168.169 88.7483 169.142V175H86.6858V169.46C86.6858 168.919 86.5419 168.523 86.254 168.273C85.9661 168.019 85.6138 167.892 85.1972 167.892C84.7009 167.892 84.3127 168.047 84.0324 168.358C83.7559 168.665 83.6176 169.064 83.6176 169.557V175H81.6006V169.375C81.6006 168.924 81.4642 168.564 81.1915 168.295C80.9225 168.027 80.5703 167.892 80.1347 167.892C79.8392 167.892 79.5703 167.968 79.3278 168.119C79.0854 168.267 78.8922 168.477 78.7483 168.75C78.6044 169.019 78.5324 169.333 78.5324 169.693V175H76.4756ZM93.8418 175.17C92.9895 175.17 92.2509 174.983 91.6259 174.608C91.0009 174.233 90.516 173.708 90.1713 173.034C89.8304 172.36 89.6599 171.572 89.6599 170.67C89.6599 169.769 89.8304 168.979 90.1713 168.301C90.516 167.623 91.0009 167.097 91.6259 166.722C92.2509 166.347 92.9895 166.159 93.8418 166.159C94.694 166.159 95.4327 166.347 96.0577 166.722C96.6827 167.097 97.1656 167.623 97.5065 168.301C97.8512 168.979 98.0236 169.769 98.0236 170.67C98.0236 171.572 97.8512 172.36 97.5065 173.034C97.1656 173.708 96.6827 174.233 96.0577 174.608C95.4327 174.983 94.694 175.17 93.8418 175.17ZM93.8531 173.523C94.3152 173.523 94.7016 173.396 95.0122 173.142C95.3228 172.884 95.5539 172.54 95.7054 172.108C95.8607 171.676 95.9384 171.195 95.9384 170.665C95.9384 170.131 95.8607 169.648 95.7054 169.216C95.5539 168.78 95.3228 168.434 95.0122 168.176C94.7016 167.919 94.3152 167.79 93.8531 167.79C93.3796 167.79 92.9857 167.919 92.6713 168.176C92.3607 168.434 92.1277 168.78 91.9724 169.216C91.8209 169.648 91.7452 170.131 91.7452 170.665C91.7452 171.195 91.8209 171.676 91.9724 172.108C92.1277 172.54 92.3607 172.884 92.6713 173.142C92.9857 173.396 93.3796 173.523 93.8531 173.523ZM98.9693 175V166.273H100.964V167.727H101.055C101.214 167.223 101.486 166.835 101.873 166.562C102.263 166.286 102.708 166.148 103.208 166.148C103.322 166.148 103.448 166.153 103.589 166.165C103.733 166.172 103.852 166.186 103.947 166.205V168.097C103.859 168.066 103.721 168.04 103.532 168.017C103.346 167.991 103.166 167.977 102.992 167.977C102.617 167.977 102.28 168.059 101.981 168.222C101.685 168.381 101.452 168.602 101.282 168.886C101.111 169.17 101.026 169.498 101.026 169.869V175H98.9693ZM108.017 175.17C107.142 175.17 106.387 174.989 105.75 174.625C105.118 174.258 104.631 173.739 104.29 173.068C103.949 172.394 103.779 171.6 103.779 170.688C103.779 169.79 103.949 169.002 104.29 168.324C104.635 167.642 105.116 167.112 105.733 166.733C106.351 166.35 107.076 166.159 107.909 166.159C108.447 166.159 108.955 166.246 109.432 166.42C109.913 166.591 110.337 166.856 110.705 167.216C111.076 167.576 111.368 168.034 111.58 168.591C111.792 169.144 111.898 169.803 111.898 170.568V171.199H104.745V169.812H109.926C109.923 169.419 109.837 169.068 109.671 168.761C109.504 168.451 109.271 168.206 108.972 168.028C108.676 167.85 108.332 167.761 107.938 167.761C107.517 167.761 107.148 167.864 106.83 168.068C106.512 168.269 106.264 168.534 106.086 168.864C105.911 169.189 105.822 169.547 105.818 169.938V171.148C105.818 171.655 105.911 172.091 106.097 172.455C106.282 172.814 106.542 173.091 106.875 173.284C107.209 173.473 107.599 173.568 108.046 173.568C108.345 173.568 108.616 173.527 108.858 173.443C109.101 173.356 109.311 173.229 109.489 173.062C109.667 172.896 109.801 172.689 109.892 172.443L111.813 172.659C111.692 173.167 111.461 173.61 111.12 173.989C110.782 174.364 110.351 174.655 109.824 174.864C109.298 175.068 108.695 175.17 108.017 175.17ZM123.802 166.273L120.694 175H118.422L115.314 166.273H117.507L119.513 172.756H119.603L121.615 166.273H123.802ZM126.687 175.176C126.134 175.176 125.636 175.078 125.193 174.881C124.753 174.68 124.405 174.384 124.147 173.994C123.893 173.604 123.766 173.123 123.766 172.551C123.766 172.059 123.857 171.652 124.039 171.33C124.221 171.008 124.469 170.75 124.784 170.557C125.098 170.364 125.452 170.218 125.846 170.119C126.244 170.017 126.655 169.943 127.079 169.898C127.59 169.845 128.005 169.797 128.323 169.756C128.641 169.71 128.873 169.642 129.016 169.551C129.164 169.456 129.238 169.311 129.238 169.114V169.08C129.238 168.652 129.111 168.32 128.857 168.085C128.604 167.85 128.238 167.733 127.761 167.733C127.257 167.733 126.857 167.843 126.562 168.062C126.27 168.282 126.073 168.542 125.971 168.841L124.051 168.568C124.202 168.038 124.452 167.595 124.801 167.239C125.149 166.879 125.575 166.61 126.079 166.432C126.583 166.25 127.14 166.159 127.749 166.159C128.17 166.159 128.588 166.208 129.005 166.307C129.422 166.405 129.802 166.568 130.147 166.795C130.492 167.019 130.768 167.324 130.977 167.71C131.189 168.097 131.295 168.58 131.295 169.159V175H129.318V173.801H129.249C129.124 174.044 128.948 174.271 128.721 174.483C128.498 174.691 128.215 174.86 127.874 174.989C127.537 175.114 127.141 175.176 126.687 175.176ZM127.221 173.665C127.634 173.665 127.992 173.583 128.295 173.42C128.598 173.254 128.831 173.034 128.994 172.761C129.16 172.489 129.244 172.191 129.244 171.869V170.841C129.179 170.894 129.07 170.943 128.914 170.989C128.763 171.034 128.592 171.074 128.403 171.108C128.213 171.142 128.026 171.172 127.84 171.199C127.655 171.225 127.494 171.248 127.357 171.267C127.051 171.309 126.776 171.377 126.534 171.472C126.291 171.566 126.1 171.699 125.96 171.869C125.82 172.036 125.749 172.252 125.749 172.517C125.749 172.896 125.888 173.182 126.164 173.375C126.441 173.568 126.793 173.665 127.221 173.665ZM134.62 163.364V175H132.563V163.364H134.62ZM141.497 171.33V166.273H143.554V175H141.56V173.449H141.469C141.272 173.937 140.948 174.337 140.497 174.648C140.05 174.958 139.499 175.114 138.844 175.114C138.272 175.114 137.766 174.987 137.327 174.733C136.891 174.475 136.55 174.102 136.304 173.614C136.058 173.121 135.935 172.527 135.935 171.83V166.273H137.992V171.511C137.992 172.064 138.143 172.504 138.446 172.83C138.749 173.155 139.147 173.318 139.639 173.318C139.943 173.318 140.236 173.244 140.52 173.097C140.804 172.949 141.037 172.729 141.219 172.438C141.405 172.142 141.497 171.773 141.497 171.33ZM148.733 175.17C147.858 175.17 147.102 174.989 146.466 174.625C145.833 174.258 145.347 173.739 145.006 173.068C144.665 172.394 144.494 171.6 144.494 170.688C144.494 169.79 144.665 169.002 145.006 168.324C145.35 167.642 145.831 167.112 146.449 166.733C147.066 166.35 147.792 166.159 148.625 166.159C149.163 166.159 149.67 166.246 150.148 166.42C150.629 166.591 151.053 166.856 151.42 167.216C151.792 167.576 152.083 168.034 152.295 168.591C152.508 169.144 152.614 169.803 152.614 170.568V171.199H145.46V169.812H150.642C150.638 169.419 150.553 169.068 150.386 168.761C150.22 168.451 149.987 168.206 149.688 168.028C149.392 167.85 149.047 167.761 148.653 167.761C148.233 167.761 147.864 167.864 147.545 168.068C147.227 168.269 146.979 168.534 146.801 168.864C146.627 169.189 146.538 169.547 146.534 169.938V171.148C146.534 171.655 146.627 172.091 146.812 172.455C146.998 172.814 147.258 173.091 147.591 173.284C147.924 173.473 148.314 173.568 148.761 173.568C149.061 173.568 149.331 173.527 149.574 173.443C149.816 173.356 150.027 173.229 150.205 173.062C150.383 172.896 150.517 172.689 150.608 172.443L152.528 172.659C152.407 173.167 152.176 173.61 151.835 173.989C151.498 174.364 151.066 174.655 150.54 174.864C150.013 175.068 149.411 175.17 148.733 175.17ZM159.234 175.176C158.681 175.176 158.183 175.078 157.739 174.881C157.3 174.68 156.952 174.384 156.694 173.994C156.44 173.604 156.313 173.123 156.313 172.551C156.313 172.059 156.404 171.652 156.586 171.33C156.768 171.008 157.016 170.75 157.33 170.557C157.645 170.364 157.999 170.218 158.393 170.119C158.791 170.017 159.202 169.943 159.626 169.898C160.137 169.845 160.552 169.797 160.87 169.756C161.188 169.71 161.419 169.642 161.563 169.551C161.711 169.456 161.785 169.311 161.785 169.114V169.08C161.785 168.652 161.658 168.32 161.404 168.085C161.15 167.85 160.785 167.733 160.308 167.733C159.804 167.733 159.404 167.843 159.109 168.062C158.817 168.282 158.62 168.542 158.518 168.841L156.597 168.568C156.749 168.038 156.999 167.595 157.347 167.239C157.696 166.879 158.122 166.61 158.626 166.432C159.13 166.25 159.686 166.159 160.296 166.159C160.717 166.159 161.135 166.208 161.552 166.307C161.969 166.405 162.349 166.568 162.694 166.795C163.039 167.019 163.315 167.324 163.524 167.71C163.736 168.097 163.842 168.58 163.842 169.159V175H161.864V173.801H161.796C161.671 174.044 161.495 174.271 161.268 174.483C161.044 174.691 160.762 174.86 160.421 174.989C160.084 175.114 159.688 175.176 159.234 175.176ZM159.768 173.665C160.181 173.665 160.539 173.583 160.842 173.42C161.145 173.254 161.378 173.034 161.541 172.761C161.707 172.489 161.791 172.191 161.791 171.869V170.841C161.726 170.894 161.616 170.943 161.461 170.989C161.31 171.034 161.139 171.074 160.95 171.108C160.76 171.142 160.573 171.172 160.387 171.199C160.202 171.225 160.041 171.248 159.904 171.267C159.597 171.309 159.323 171.377 159.08 171.472C158.838 171.566 158.647 171.699 158.507 171.869C158.366 172.036 158.296 172.252 158.296 172.517C158.296 172.896 158.435 173.182 158.711 173.375C158.988 173.568 159.34 173.665 159.768 173.665ZM169.468 166.273V167.864H164.451V166.273H169.468ZM165.689 164.182H167.746V172.375C167.746 172.652 167.788 172.864 167.871 173.011C167.958 173.155 168.072 173.254 168.212 173.307C168.352 173.36 168.508 173.386 168.678 173.386C168.807 173.386 168.924 173.377 169.03 173.358C169.14 173.339 169.224 173.322 169.28 173.307L169.627 174.915C169.517 174.953 169.36 174.994 169.155 175.04C168.955 175.085 168.708 175.112 168.417 175.119C167.902 175.134 167.438 175.057 167.025 174.886C166.612 174.712 166.284 174.443 166.042 174.08C165.803 173.716 165.686 173.261 165.689 172.716V164.182ZM177.795 175.159C177.239 175.155 176.695 175.059 176.165 174.869C175.634 174.676 175.157 174.364 174.733 173.932C174.309 173.496 173.972 172.919 173.722 172.199C173.472 171.475 173.348 170.58 173.352 169.511C173.352 168.515 173.458 167.627 173.67 166.847C173.883 166.066 174.188 165.407 174.585 164.869C174.983 164.328 175.462 163.915 176.023 163.631C176.587 163.347 177.218 163.205 177.915 163.205C178.646 163.205 179.294 163.348 179.858 163.636C180.426 163.924 180.884 164.318 181.233 164.818C181.581 165.314 181.797 165.875 181.881 166.5H179.807C179.701 166.053 179.483 165.697 179.153 165.432C178.828 165.163 178.415 165.028 177.915 165.028C177.108 165.028 176.487 165.379 176.051 166.08C175.619 166.78 175.402 167.742 175.398 168.966H175.477C175.663 168.633 175.903 168.347 176.199 168.108C176.494 167.869 176.828 167.686 177.199 167.557C177.574 167.424 177.97 167.358 178.386 167.358C179.068 167.358 179.68 167.521 180.222 167.847C180.767 168.172 181.199 168.621 181.517 169.193C181.835 169.761 181.992 170.413 181.989 171.148C181.992 171.913 181.818 172.6 181.466 173.21C181.114 173.816 180.623 174.294 179.994 174.642C179.366 174.991 178.633 175.163 177.795 175.159ZM177.784 173.455C178.197 173.455 178.566 173.354 178.892 173.153C179.218 172.953 179.475 172.682 179.665 172.341C179.854 172 179.947 171.617 179.943 171.193C179.947 170.777 179.856 170.4 179.67 170.062C179.489 169.725 179.237 169.458 178.915 169.261C178.593 169.064 178.225 168.966 177.812 168.966C177.506 168.966 177.22 169.025 176.955 169.142C176.689 169.259 176.458 169.422 176.261 169.631C176.064 169.835 175.909 170.074 175.795 170.347C175.686 170.616 175.629 170.903 175.625 171.21C175.629 171.616 175.723 171.989 175.909 172.33C176.095 172.67 176.35 172.943 176.676 173.148C177.002 173.352 177.371 173.455 177.784 173.455ZM187.41 175.222C186.475 175.222 185.672 174.985 185.001 174.511C184.334 174.034 183.821 173.347 183.461 172.449C183.105 171.547 182.927 170.462 182.927 169.193C182.931 167.924 183.111 166.845 183.467 165.955C183.827 165.061 184.34 164.379 185.007 163.909C185.677 163.439 186.478 163.205 187.41 163.205C188.342 163.205 189.143 163.439 189.814 163.909C190.484 164.379 190.997 165.061 191.353 165.955C191.713 166.848 191.893 167.928 191.893 169.193C191.893 170.466 191.713 171.553 191.353 172.455C190.997 173.352 190.484 174.038 189.814 174.511C189.147 174.985 188.346 175.222 187.41 175.222ZM187.41 173.443C188.138 173.443 188.711 173.085 189.132 172.369C189.556 171.65 189.768 170.591 189.768 169.193C189.768 168.269 189.672 167.492 189.478 166.864C189.285 166.235 189.013 165.761 188.66 165.443C188.308 165.121 187.891 164.96 187.41 164.96C186.687 164.96 186.115 165.32 185.694 166.04C185.274 166.756 185.062 167.807 185.058 169.193C185.054 170.121 185.147 170.902 185.336 171.534C185.53 172.167 185.802 172.644 186.155 172.966C186.507 173.284 186.925 173.443 187.41 173.443ZM199.203 172.818V172.205C199.203 171.754 199.297 171.339 199.487 170.96C199.68 170.581 199.96 170.277 200.328 170.045C200.695 169.814 201.14 169.699 201.663 169.699C202.201 169.699 202.651 169.814 203.015 170.045C203.379 170.273 203.653 170.576 203.839 170.955C204.028 171.333 204.123 171.75 204.123 172.205V172.818C204.123 173.269 204.028 173.684 203.839 174.062C203.65 174.441 203.371 174.746 203.004 174.977C202.64 175.208 202.193 175.324 201.663 175.324C201.132 175.324 200.684 175.208 200.316 174.977C199.949 174.746 199.67 174.441 199.481 174.062C199.295 173.684 199.203 173.269 199.203 172.818ZM200.686 172.205V172.818C200.686 173.117 200.757 173.392 200.901 173.642C201.045 173.892 201.299 174.017 201.663 174.017C202.03 174.017 202.282 173.894 202.418 173.648C202.559 173.398 202.629 173.121 202.629 172.818V172.205C202.629 171.902 202.562 171.625 202.43 171.375C202.297 171.121 202.042 170.994 201.663 170.994C201.307 170.994 201.055 171.121 200.907 171.375C200.759 171.625 200.686 171.902 200.686 172.205ZM193.288 166.159V165.545C193.288 165.091 193.384 164.674 193.578 164.295C193.771 163.917 194.051 163.614 194.418 163.386C194.786 163.155 195.231 163.04 195.754 163.04C196.288 163.04 196.737 163.155 197.1 163.386C197.468 163.614 197.744 163.917 197.93 164.295C198.115 164.674 198.208 165.091 198.208 165.545V166.159C198.208 166.614 198.114 167.03 197.924 167.409C197.739 167.784 197.462 168.085 197.095 168.312C196.727 168.54 196.28 168.653 195.754 168.653C195.22 168.653 194.769 168.54 194.401 168.312C194.038 168.085 193.761 167.782 193.572 167.403C193.382 167.025 193.288 166.61 193.288 166.159ZM194.782 165.545V166.159C194.782 166.462 194.852 166.739 194.992 166.989C195.136 167.235 195.39 167.358 195.754 167.358C196.117 167.358 196.367 167.235 196.504 166.989C196.644 166.739 196.714 166.462 196.714 166.159V165.545C196.714 165.242 196.648 164.966 196.515 164.716C196.382 164.462 196.129 164.335 195.754 164.335C195.394 164.335 195.142 164.462 194.998 164.716C194.854 164.97 194.782 165.246 194.782 165.545ZM193.936 175L201.936 163.364H203.356L195.356 175H193.936ZM28.9527 182.364V194H26.8959V182.364H28.9527ZM34.0746 194.17C33.2223 194.17 32.4837 193.983 31.8587 193.608C31.2337 193.233 30.7488 192.708 30.4041 192.034C30.0632 191.36 29.8928 190.572 29.8928 189.67C29.8928 188.769 30.0632 187.979 30.4041 187.301C30.7488 186.623 31.2337 186.097 31.8587 185.722C32.4837 185.347 33.2223 185.159 34.0746 185.159C34.9268 185.159 35.6655 185.347 36.2905 185.722C36.9155 186.097 37.3984 186.623 37.7393 187.301C38.084 187.979 38.2564 188.769 38.2564 189.67C38.2564 190.572 38.084 191.36 37.7393 192.034C37.3984 192.708 36.9155 193.233 36.2905 193.608C35.6655 193.983 34.9268 194.17 34.0746 194.17ZM34.0859 192.523C34.5481 192.523 34.9344 192.396 35.245 192.142C35.5556 191.884 35.7867 191.54 35.9382 191.108C36.0935 190.676 36.1712 190.195 36.1712 189.665C36.1712 189.131 36.0935 188.648 35.9382 188.216C35.7867 187.78 35.5556 187.434 35.245 187.176C34.9344 186.919 34.5481 186.79 34.0859 186.79C33.6125 186.79 33.2185 186.919 32.9041 187.176C32.5935 187.434 32.3606 187.78 32.2053 188.216C32.0537 188.648 31.978 189.131 31.978 189.665C31.978 190.195 32.0537 190.676 32.2053 191.108C32.3606 191.54 32.5935 191.884 32.9041 192.142C33.2185 192.396 33.6125 192.523 34.0859 192.523ZM40.7533 194L38.2874 185.273H40.384L41.918 191.409H41.9976L43.5658 185.273H45.6396L47.2078 191.375H47.293L48.8044 185.273H50.9067L48.4351 194H46.293L44.6567 188.102H44.5374L42.901 194H40.7533ZM55.1564 194.17C54.2814 194.17 53.5257 193.989 52.8894 193.625C52.2568 193.258 51.77 192.739 51.4291 192.068C51.0882 191.394 50.9178 190.6 50.9178 189.688C50.9178 188.79 51.0882 188.002 51.4291 187.324C51.7738 186.642 52.2549 186.112 52.8723 185.733C53.4897 185.35 54.2151 185.159 55.0484 185.159C55.5863 185.159 56.0939 185.246 56.5712 185.42C57.0522 185.591 57.4765 185.856 57.8439 186.216C58.2151 186.576 58.5068 187.034 58.7189 187.591C58.931 188.144 59.0371 188.803 59.0371 189.568V190.199H51.8837V188.812H57.0655C57.0617 188.419 56.9765 188.068 56.8098 187.761C56.6431 187.451 56.4102 187.206 56.1109 187.028C55.8155 186.85 55.4708 186.761 55.0768 186.761C54.6564 186.761 54.2871 186.864 53.9689 187.068C53.6507 187.269 53.4026 187.534 53.2246 187.864C53.0503 188.189 52.9613 188.547 52.9575 188.938V190.148C52.9575 190.655 53.0503 191.091 53.2359 191.455C53.4215 191.814 53.681 192.091 54.0144 192.284C54.3477 192.473 54.7378 192.568 55.1848 192.568C55.484 192.568 55.7549 192.527 55.9973 192.443C56.2397 192.356 56.45 192.229 56.628 192.062C56.806 191.896 56.9405 191.689 57.0314 191.443L58.9518 191.659C58.8306 192.167 58.5996 192.61 58.2587 192.989C57.9215 193.364 57.4897 193.655 56.9632 193.864C56.4367 194.068 55.8344 194.17 55.1564 194.17ZM59.9771 194V185.273H61.9715V186.727H62.0624C62.2215 186.223 62.4942 185.835 62.8805 185.562C63.2707 185.286 63.7158 185.148 64.2158 185.148C64.3294 185.148 64.4563 185.153 64.5965 185.165C64.7404 185.172 64.8597 185.186 64.9544 185.205V187.097C64.8673 187.066 64.729 187.04 64.5396 187.017C64.354 186.991 64.1741 186.977 63.9999 186.977C63.6249 186.977 63.2877 187.059 62.9885 187.222C62.693 187.381 62.4601 187.602 62.2896 187.886C62.1192 188.17 62.034 188.498 62.034 188.869V194H59.9771ZM72.4965 194.17C71.6252 194.17 70.8771 193.979 70.2521 193.597C69.6309 193.214 69.1518 192.686 68.8146 192.011C68.4813 191.333 68.3146 190.553 68.3146 189.67C68.3146 188.784 68.4851 188.002 68.826 187.324C69.1669 186.642 69.648 186.112 70.2692 185.733C70.8942 185.35 71.6328 185.159 72.4851 185.159C73.1934 185.159 73.8203 185.29 74.3658 185.551C74.915 185.809 75.3525 186.174 75.6783 186.648C76.004 187.117 76.1896 187.667 76.2351 188.295H74.2692C74.1896 187.875 74.0002 187.525 73.701 187.244C73.4055 186.96 73.0097 186.818 72.5135 186.818C72.093 186.818 71.7237 186.932 71.4055 187.159C71.0874 187.383 70.8393 187.705 70.6612 188.125C70.487 188.545 70.3999 189.049 70.3999 189.636C70.3999 190.231 70.487 190.742 70.6612 191.17C70.8355 191.595 71.0798 191.922 71.3942 192.153C71.7124 192.381 72.0855 192.494 72.5135 192.494C72.8165 192.494 73.0874 192.437 73.326 192.324C73.5684 192.206 73.7711 192.038 73.934 191.818C74.0968 191.598 74.2086 191.331 74.2692 191.017H76.2351C76.1858 191.634 76.004 192.182 75.6896 192.659C75.3752 193.133 74.9472 193.504 74.4055 193.773C73.8639 194.038 73.2275 194.17 72.4965 194.17ZM80.9308 194.17C80.0786 194.17 79.3399 193.983 78.7149 193.608C78.0899 193.233 77.6051 192.708 77.2604 192.034C76.9195 191.36 76.749 190.572 76.749 189.67C76.749 188.769 76.9195 187.979 77.2604 187.301C77.6051 186.623 78.0899 186.097 78.7149 185.722C79.3399 185.347 80.0786 185.159 80.9308 185.159C81.7831 185.159 82.5217 185.347 83.1467 185.722C83.7717 186.097 84.2547 186.623 84.5956 187.301C84.9403 187.979 85.1126 188.769 85.1126 189.67C85.1126 190.572 84.9403 191.36 84.5956 192.034C84.2547 192.708 83.7717 193.233 83.1467 193.608C82.5217 193.983 81.7831 194.17 80.9308 194.17ZM80.9422 192.523C81.4043 192.523 81.7907 192.396 82.1013 192.142C82.4119 191.884 82.6429 191.54 82.7945 191.108C82.9498 190.676 83.0274 190.195 83.0274 189.665C83.0274 189.131 82.9498 188.648 82.7945 188.216C82.6429 187.78 82.4119 187.434 82.1013 187.176C81.7907 186.919 81.4043 186.79 80.9422 186.79C80.4687 186.79 80.0748 186.919 79.7604 187.176C79.4498 187.434 79.2168 187.78 79.0615 188.216C78.91 188.648 78.8342 189.131 78.8342 189.665C78.8342 190.195 78.91 190.676 79.0615 191.108C79.2168 191.54 79.4498 191.884 79.7604 192.142C80.0748 192.396 80.4687 192.523 80.9422 192.523ZM92.9561 187.58L91.0811 187.784C91.0281 187.595 90.9353 187.417 90.8027 187.25C90.6739 187.083 90.4997 186.949 90.28 186.847C90.0603 186.744 89.7913 186.693 89.4732 186.693C89.0451 186.693 88.6853 186.786 88.3936 186.972C88.1057 187.157 87.9637 187.398 87.9675 187.693C87.9637 187.947 88.0565 188.153 88.2459 188.312C88.4391 188.472 88.7572 188.602 89.2004 188.705L90.6891 189.023C91.5148 189.201 92.1285 189.483 92.53 189.869C92.9353 190.256 93.1398 190.761 93.1436 191.386C93.1398 191.936 92.9788 192.42 92.6607 192.841C92.3463 193.258 91.9088 193.583 91.3482 193.818C90.7875 194.053 90.1436 194.17 89.4163 194.17C88.3482 194.17 87.4883 193.947 86.8368 193.5C86.1853 193.049 85.797 192.422 85.672 191.619L87.6777 191.426C87.7686 191.82 87.9618 192.117 88.2572 192.318C88.5527 192.519 88.9372 192.619 89.4107 192.619C89.8993 192.619 90.2913 192.519 90.5868 192.318C90.886 192.117 91.0357 191.869 91.0357 191.574C91.0357 191.324 90.9391 191.117 90.7459 190.955C90.5565 190.792 90.261 190.667 89.8595 190.58L88.3709 190.267C87.5338 190.093 86.9144 189.799 86.5129 189.386C86.1114 188.97 85.9125 188.443 85.9163 187.807C85.9125 187.269 86.0584 186.803 86.3538 186.409C86.6531 186.011 87.0679 185.705 87.5982 185.489C88.1322 185.269 88.7478 185.159 89.4447 185.159C90.4675 185.159 91.2724 185.377 91.8595 185.812C92.4504 186.248 92.816 186.837 92.9561 187.58ZM98.3976 185.273V186.864H93.3805V185.273H98.3976ZM94.6192 183.182H96.676V191.375C96.676 191.652 96.7177 191.864 96.801 192.011C96.8881 192.155 97.0018 192.254 97.1419 192.307C97.2821 192.36 97.4374 192.386 97.6078 192.386C97.7366 192.386 97.854 192.377 97.9601 192.358C98.0699 192.339 98.1533 192.322 98.2101 192.307L98.5567 193.915C98.4468 193.953 98.2896 193.994 98.0851 194.04C97.8843 194.085 97.6381 194.112 97.3465 194.119C96.8313 194.134 96.3673 194.057 95.9544 193.886C95.5415 193.712 95.2139 193.443 94.9715 193.08C94.7328 192.716 94.6154 192.261 94.6192 191.716V183.182ZM106.844 185.273V186.864H101.827V185.273H106.844ZM103.066 183.182H105.123V191.375C105.123 191.652 105.165 191.864 105.248 192.011C105.335 192.155 105.449 192.254 105.589 192.307C105.729 192.36 105.884 192.386 106.055 192.386C106.183 192.386 106.301 192.377 106.407 192.358C106.517 192.339 106.6 192.322 106.657 192.307L107.004 193.915C106.894 193.953 106.737 193.994 106.532 194.04C106.331 194.085 106.085 194.112 105.793 194.119C105.278 194.134 104.814 194.057 104.401 193.886C103.988 193.712 103.661 193.443 103.418 193.08C103.18 192.716 103.062 192.261 103.066 191.716V183.182ZM110.009 188.886V194H107.952V182.364H109.963V186.756H110.066C110.27 186.263 110.587 185.875 111.015 185.591C111.446 185.303 111.996 185.159 112.662 185.159C113.268 185.159 113.797 185.286 114.248 185.54C114.698 185.794 115.047 186.165 115.293 186.653C115.543 187.142 115.668 187.739 115.668 188.443V194H113.611V188.761C113.611 188.174 113.46 187.718 113.157 187.392C112.857 187.062 112.437 186.898 111.895 186.898C111.532 186.898 111.206 186.977 110.918 187.136C110.634 187.292 110.41 187.517 110.248 187.812C110.088 188.108 110.009 188.466 110.009 188.886ZM119.476 194.176C118.923 194.176 118.425 194.078 117.982 193.881C117.542 193.68 117.194 193.384 116.936 192.994C116.682 192.604 116.556 192.123 116.556 191.551C116.556 191.059 116.646 190.652 116.828 190.33C117.01 190.008 117.258 189.75 117.573 189.557C117.887 189.364 118.241 189.218 118.635 189.119C119.033 189.017 119.444 188.943 119.868 188.898C120.379 188.845 120.794 188.797 121.112 188.756C121.431 188.71 121.662 188.642 121.806 188.551C121.953 188.456 122.027 188.311 122.027 188.114V188.08C122.027 187.652 121.9 187.32 121.646 187.085C121.393 186.85 121.027 186.733 120.55 186.733C120.046 186.733 119.646 186.843 119.351 187.062C119.059 187.282 118.862 187.542 118.76 187.841L116.84 187.568C116.991 187.038 117.241 186.595 117.59 186.239C117.938 185.879 118.364 185.61 118.868 185.432C119.372 185.25 119.929 185.159 120.538 185.159C120.959 185.159 121.378 185.208 121.794 185.307C122.211 185.405 122.592 185.568 122.936 185.795C123.281 186.019 123.557 186.324 123.766 186.71C123.978 187.097 124.084 187.58 124.084 188.159V194H122.107V192.801H122.038C121.913 193.044 121.737 193.271 121.51 193.483C121.287 193.691 121.004 193.86 120.663 193.989C120.326 194.114 119.931 194.176 119.476 194.176ZM120.01 192.665C120.423 192.665 120.781 192.583 121.084 192.42C121.387 192.254 121.62 192.034 121.783 191.761C121.949 191.489 122.033 191.191 122.033 190.869V189.841C121.968 189.894 121.859 189.943 121.703 189.989C121.552 190.034 121.381 190.074 121.192 190.108C121.003 190.142 120.815 190.172 120.629 190.199C120.444 190.225 120.283 190.248 120.146 190.267C119.84 190.309 119.565 190.377 119.323 190.472C119.08 190.566 118.889 190.699 118.749 190.869C118.609 191.036 118.538 191.252 118.538 191.517C118.538 191.896 118.677 192.182 118.953 192.375C119.23 192.568 119.582 192.665 120.01 192.665ZM127.409 188.886V194H125.352V185.273H127.318V186.756H127.42C127.621 186.267 127.941 185.879 128.381 185.591C128.824 185.303 129.371 185.159 130.023 185.159C130.625 185.159 131.149 185.288 131.596 185.545C132.047 185.803 132.396 186.176 132.642 186.665C132.892 187.153 133.015 187.746 133.011 188.443V194H130.954V188.761C130.954 188.178 130.803 187.722 130.5 187.392C130.201 187.062 129.786 186.898 129.256 186.898C128.896 186.898 128.576 186.977 128.295 187.136C128.019 187.292 127.801 187.517 127.642 187.812C127.487 188.108 127.409 188.466 127.409 188.886ZM139.982 194.176C139.429 194.176 138.931 194.078 138.488 193.881C138.049 193.68 137.7 193.384 137.442 192.994C137.189 192.604 137.062 192.123 137.062 191.551C137.062 191.059 137.153 190.652 137.335 190.33C137.516 190.008 137.764 189.75 138.079 189.557C138.393 189.364 138.747 189.218 139.141 189.119C139.539 189.017 139.95 188.943 140.374 188.898C140.886 188.845 141.3 188.797 141.619 188.756C141.937 188.71 142.168 188.642 142.312 188.551C142.46 188.456 142.533 188.311 142.533 188.114V188.08C142.533 187.652 142.406 187.32 142.153 187.085C141.899 186.85 141.533 186.733 141.056 186.733C140.552 186.733 140.153 186.843 139.857 187.062C139.566 187.282 139.369 187.542 139.266 187.841L137.346 187.568C137.497 187.038 137.747 186.595 138.096 186.239C138.444 185.879 138.871 185.61 139.374 185.432C139.878 185.25 140.435 185.159 141.045 185.159C141.465 185.159 141.884 185.208 142.3 185.307C142.717 185.405 143.098 185.568 143.442 185.795C143.787 186.019 144.064 186.324 144.272 186.71C144.484 187.097 144.59 187.58 144.59 188.159V194H142.613V192.801H142.545C142.42 193.044 142.244 193.271 142.016 193.483C141.793 193.691 141.511 193.86 141.17 193.989C140.833 194.114 140.437 194.176 139.982 194.176ZM140.516 192.665C140.929 192.665 141.287 192.583 141.59 192.42C141.893 192.254 142.126 192.034 142.289 191.761C142.456 191.489 142.539 191.191 142.539 190.869V189.841C142.475 189.894 142.365 189.943 142.21 189.989C142.058 190.034 141.888 190.074 141.698 190.108C141.509 190.142 141.321 190.172 141.136 190.199C140.95 190.225 140.789 190.248 140.653 190.267C140.346 190.309 140.071 190.377 139.829 190.472C139.586 190.566 139.395 190.699 139.255 190.869C139.115 191.036 139.045 191.252 139.045 191.517C139.045 191.896 139.183 192.182 139.46 192.375C139.736 192.568 140.088 192.665 140.516 192.665ZM147.915 182.364V194H145.858V182.364H147.915ZM153.588 185.273V186.864H148.571V185.273H153.588ZM149.81 183.182H151.867V191.375C151.867 191.652 151.908 191.864 151.992 192.011C152.079 192.155 152.192 192.254 152.333 192.307C152.473 192.36 152.628 192.386 152.798 192.386C152.927 192.386 153.045 192.377 153.151 192.358C153.261 192.339 153.344 192.322 153.401 192.307L153.747 193.915C153.637 193.953 153.48 193.994 153.276 194.04C153.075 194.085 152.829 194.112 152.537 194.119C152.022 194.134 151.558 194.057 151.145 193.886C150.732 193.712 150.404 193.443 150.162 193.08C149.923 192.716 149.806 192.261 149.81 191.716V183.182ZM158.278 194.17C157.403 194.17 156.648 193.989 156.011 193.625C155.379 193.258 154.892 192.739 154.551 192.068C154.21 191.394 154.04 190.6 154.04 189.688C154.04 188.79 154.21 188.002 154.551 187.324C154.896 186.642 155.377 186.112 155.994 185.733C156.612 185.35 157.337 185.159 158.17 185.159C158.708 185.159 159.216 185.246 159.693 185.42C160.174 185.591 160.598 185.856 160.966 186.216C161.337 186.576 161.629 187.034 161.841 187.591C162.053 188.144 162.159 188.803 162.159 189.568V190.199H155.006V188.812H160.187C160.184 188.419 160.098 188.068 159.932 187.761C159.765 187.451 159.532 187.206 159.233 187.028C158.937 186.85 158.593 186.761 158.199 186.761C157.778 186.761 157.409 186.864 157.091 187.068C156.773 187.269 156.524 187.534 156.346 187.864C156.172 188.189 156.083 188.547 156.079 188.938V190.148C156.079 190.655 156.172 191.091 156.358 191.455C156.543 191.814 156.803 192.091 157.136 192.284C157.47 192.473 157.86 192.568 158.307 192.568C158.606 192.568 158.877 192.527 159.119 192.443C159.362 192.356 159.572 192.229 159.75 192.062C159.928 191.896 160.062 191.689 160.153 191.443L162.074 191.659C161.953 192.167 161.721 192.61 161.381 192.989C161.043 193.364 160.612 193.655 160.085 193.864C159.559 194.068 158.956 194.17 158.278 194.17ZM163.099 194V185.273H165.093V186.727H165.184C165.343 186.223 165.616 185.835 166.002 185.562C166.393 185.286 166.838 185.148 167.338 185.148C167.451 185.148 167.578 185.153 167.718 185.165C167.862 185.172 167.982 185.186 168.076 185.205V187.097C167.989 187.066 167.851 187.04 167.662 187.017C167.476 186.991 167.296 186.977 167.122 186.977C166.747 186.977 166.41 187.059 166.11 187.222C165.815 187.381 165.582 187.602 165.412 187.886C165.241 188.17 165.156 188.498 165.156 188.869V194H163.099ZM170.7 188.886V194H168.643V185.273H170.609V186.756H170.711C170.912 186.267 171.232 185.879 171.671 185.591C172.114 185.303 172.662 185.159 173.313 185.159C173.915 185.159 174.44 185.288 174.887 185.545C175.338 185.803 175.686 186.176 175.933 186.665C176.183 187.153 176.306 187.746 176.302 188.443V194H174.245V188.761C174.245 188.178 174.094 187.722 173.79 187.392C173.491 187.062 173.076 186.898 172.546 186.898C172.186 186.898 171.866 186.977 171.586 187.136C171.309 187.292 171.092 187.517 170.933 187.812C170.777 188.108 170.7 188.466 170.7 188.886ZM180.104 194.176C179.551 194.176 179.053 194.078 178.61 193.881C178.17 193.68 177.822 193.384 177.564 192.994C177.311 192.604 177.184 192.123 177.184 191.551C177.184 191.059 177.275 190.652 177.456 190.33C177.638 190.008 177.886 189.75 178.201 189.557C178.515 189.364 178.869 189.218 179.263 189.119C179.661 189.017 180.072 188.943 180.496 188.898C181.008 188.845 181.422 188.797 181.74 188.756C182.059 188.71 182.29 188.642 182.434 188.551C182.581 188.456 182.655 188.311 182.655 188.114V188.08C182.655 187.652 182.528 187.32 182.275 187.085C182.021 186.85 181.655 186.733 181.178 186.733C180.674 186.733 180.275 186.843 179.979 187.062C179.687 187.282 179.49 187.542 179.388 187.841L177.468 187.568C177.619 187.038 177.869 186.595 178.218 186.239C178.566 185.879 178.992 185.61 179.496 185.432C180 185.25 180.557 185.159 181.167 185.159C181.587 185.159 182.006 185.208 182.422 185.307C182.839 185.405 183.22 185.568 183.564 185.795C183.909 186.019 184.186 186.324 184.394 186.71C184.606 187.097 184.712 187.58 184.712 188.159V194H182.735V192.801H182.667C182.542 193.044 182.365 193.271 182.138 193.483C181.915 193.691 181.633 193.86 181.292 193.989C180.954 194.114 180.559 194.176 180.104 194.176ZM180.638 192.665C181.051 192.665 181.409 192.583 181.712 192.42C182.015 192.254 182.248 192.034 182.411 191.761C182.578 191.489 182.661 191.191 182.661 190.869V189.841C182.597 189.894 182.487 189.943 182.331 189.989C182.18 190.034 182.009 190.074 181.82 190.108C181.631 190.142 181.443 190.172 181.258 190.199C181.072 190.225 180.911 190.248 180.775 190.267C180.468 190.309 180.193 190.377 179.951 190.472C179.708 190.566 179.517 190.699 179.377 190.869C179.237 191.036 179.167 191.252 179.167 191.517C179.167 191.896 179.305 192.182 179.581 192.375C179.858 192.568 180.21 192.665 180.638 192.665ZM190.338 185.273V186.864H185.321V185.273H190.338ZM186.56 183.182H188.617V191.375C188.617 191.652 188.658 191.864 188.742 192.011C188.829 192.155 188.942 192.254 189.083 192.307C189.223 192.36 189.378 192.386 189.548 192.386C189.677 192.386 189.795 192.377 189.901 192.358C190.011 192.339 190.094 192.322 190.151 192.307L190.497 193.915C190.387 193.953 190.23 193.994 190.026 194.04C189.825 194.085 189.579 194.112 189.287 194.119C188.772 194.134 188.308 194.057 187.895 193.886C187.482 193.712 187.155 193.443 186.912 193.08C186.673 192.716 186.556 192.261 186.56 191.716V183.182ZM191.258 194V185.273H193.315V194H191.258ZM192.292 184.034C191.967 184.034 191.686 183.926 191.452 183.71C191.217 183.491 191.099 183.227 191.099 182.92C191.099 182.61 191.217 182.347 191.452 182.131C191.686 181.911 191.967 181.801 192.292 181.801C192.622 181.801 192.902 181.911 193.133 182.131C193.368 182.347 193.486 182.61 193.486 182.92C193.486 183.227 193.368 183.491 193.133 183.71C192.902 183.926 192.622 184.034 192.292 184.034ZM202.426 185.273L199.318 194H197.045L193.937 185.273H196.13L198.136 191.756H198.227L200.238 185.273H202.426ZM206.616 194.17C205.741 194.17 204.985 193.989 204.349 193.625C203.716 193.258 203.229 192.739 202.888 192.068C202.548 191.394 202.377 190.6 202.377 189.688C202.377 188.79 202.548 188.002 202.888 187.324C203.233 186.642 203.714 186.112 204.332 185.733C204.949 185.35 205.674 185.159 206.508 185.159C207.046 185.159 207.553 185.246 208.031 185.42C208.512 185.591 208.936 185.856 209.303 186.216C209.674 186.576 209.966 187.034 210.178 187.591C210.39 188.144 210.496 188.803 210.496 189.568V190.199H203.343V188.812H208.525C208.521 188.419 208.436 188.068 208.269 187.761C208.103 187.451 207.87 187.206 207.57 187.028C207.275 186.85 206.93 186.761 206.536 186.761C206.116 186.761 205.746 186.864 205.428 187.068C205.11 187.269 204.862 187.534 204.684 187.864C204.51 188.189 204.421 188.547 204.417 188.938V190.148C204.417 190.655 204.51 191.091 204.695 191.455C204.881 191.814 205.14 192.091 205.474 192.284C205.807 192.473 206.197 192.568 206.644 192.568C206.943 192.568 207.214 192.527 207.457 192.443C207.699 192.356 207.909 192.229 208.087 192.062C208.265 191.896 208.4 191.689 208.491 191.443L210.411 191.659C210.29 192.167 210.059 192.61 209.718 192.989C209.381 193.364 208.949 193.655 208.423 193.864C207.896 194.068 207.294 194.17 206.616 194.17ZM218.334 187.58L216.459 187.784C216.406 187.595 216.313 187.417 216.181 187.25C216.052 187.083 215.878 186.949 215.658 186.847C215.438 186.744 215.169 186.693 214.851 186.693C214.423 186.693 214.063 186.786 213.772 186.972C213.484 187.157 213.342 187.398 213.346 187.693C213.342 187.947 213.435 188.153 213.624 188.312C213.817 188.472 214.135 188.602 214.579 188.705L216.067 189.023C216.893 189.201 217.507 189.483 217.908 189.869C218.313 190.256 218.518 190.761 218.522 191.386C218.518 191.936 218.357 192.42 218.039 192.841C217.724 193.258 217.287 193.583 216.726 193.818C216.166 194.053 215.522 194.17 214.794 194.17C213.726 194.17 212.866 193.947 212.215 193.5C211.563 193.049 211.175 192.422 211.05 191.619L213.056 191.426C213.147 191.82 213.34 192.117 213.635 192.318C213.931 192.519 214.315 192.619 214.789 192.619C215.277 192.619 215.669 192.519 215.965 192.318C216.264 192.117 216.414 191.869 216.414 191.574C216.414 191.324 216.317 191.117 216.124 190.955C215.935 190.792 215.639 190.667 215.238 190.58L213.749 190.267C212.912 190.093 212.293 189.799 211.891 189.386C211.49 188.97 211.291 188.443 211.294 187.807C211.291 187.269 211.437 186.803 211.732 186.409C212.031 186.011 212.446 185.705 212.976 185.489C213.51 185.269 214.126 185.159 214.823 185.159C215.846 185.159 216.651 185.377 217.238 185.812C217.829 186.248 218.194 186.837 218.334 187.58Z" fill="#2E2433"/>
</svg>
