<svg width="246" height="245" viewBox="0 0 246 245" fill="none" xmlns="http://www.w3.org/2000/svg">
<rect width="246" height="245" rx="14" fill="#BAFFBB"/>
<path d="M57.992 175H55.742L59.8386 163.364H62.4409L66.5432 175H64.2932L61.1852 165.75H61.0943L57.992 175ZM58.0659 170.438H64.2023V172.131H58.0659V170.438ZM69.3838 163.364V175H67.2759V163.364H69.3838ZM76.0653 168.335V170.028H70.8267V168.335H76.0653ZM77.5196 175V163.364H85.0878V165.131H79.6276V168.29H84.6957V170.057H79.6276V173.233H85.1332V175H77.5196ZM88.4043 169.886V175H86.3474V166.273H88.3133V167.756H88.4156C88.6164 167.267 88.9365 166.879 89.3759 166.591C89.819 166.303 90.3664 166.159 91.0179 166.159C91.6202 166.159 92.1448 166.288 92.5918 166.545C93.0425 166.803 93.391 167.176 93.6372 167.665C93.8872 168.153 94.0103 168.746 94.0065 169.443V175H91.9497V169.761C91.9497 169.178 91.7982 168.722 91.4952 168.392C91.1959 168.062 90.7812 167.898 90.2509 167.898C89.891 167.898 89.5709 167.977 89.2906 168.136C89.0141 168.292 88.7963 168.517 88.6372 168.812C88.4819 169.108 88.4043 169.466 88.4043 169.886ZM97.8088 175.176C97.2558 175.176 96.7577 175.078 96.3145 174.881C95.8751 174.68 95.5266 174.384 95.269 173.994C95.0152 173.604 94.8884 173.123 94.8884 172.551C94.8884 172.059 94.9793 171.652 95.1611 171.33C95.3429 171.008 95.591 170.75 95.9054 170.557C96.2198 170.364 96.574 170.218 96.9679 170.119C97.3656 170.017 97.7766 169.943 98.2009 169.898C98.7122 169.845 99.127 169.797 99.4452 169.756C99.7634 169.71 99.9944 169.642 100.138 169.551C100.286 169.456 100.36 169.311 100.36 169.114V169.08C100.36 168.652 100.233 168.32 99.9793 168.085C99.7255 167.85 99.3599 167.733 98.8827 167.733C98.3789 167.733 97.9793 167.843 97.6838 168.062C97.3921 168.282 97.1952 168.542 97.0929 168.841L95.1724 168.568C95.324 168.038 95.574 167.595 95.9224 167.239C96.2709 166.879 96.6971 166.61 97.2009 166.432C97.7046 166.25 98.2615 166.159 98.8713 166.159C99.2918 166.159 99.7103 166.208 100.127 166.307C100.544 166.405 100.924 166.568 101.269 166.795C101.614 167.019 101.89 167.324 102.099 167.71C102.311 168.097 102.417 168.58 102.417 169.159V175H100.439V173.801H100.371C100.246 174.044 100.07 174.271 99.8429 174.483C99.6194 174.691 99.3372 174.86 98.9963 174.989C98.6592 175.114 98.2634 175.176 97.8088 175.176ZM98.3429 173.665C98.7558 173.665 99.1137 173.583 99.4168 173.42C99.7198 173.254 99.9527 173.034 100.116 172.761C100.282 172.489 100.366 172.191 100.366 171.869V170.841C100.301 170.894 100.191 170.943 100.036 170.989C99.8846 171.034 99.7141 171.074 99.5247 171.108C99.3353 171.142 99.1478 171.172 98.9622 171.199C98.7766 171.225 98.6156 171.248 98.4793 171.267C98.1724 171.309 97.8978 171.377 97.6554 171.472C97.413 171.566 97.2217 171.699 97.0815 171.869C96.9414 172.036 96.8713 172.252 96.8713 172.517C96.8713 172.896 97.0096 173.182 97.2861 173.375C97.5626 173.568 97.9149 173.665 98.3429 173.665ZM103.776 175V163.364H105.833V167.716H105.918C106.024 167.504 106.174 167.278 106.367 167.04C106.56 166.797 106.821 166.591 107.151 166.42C107.48 166.246 107.901 166.159 108.412 166.159C109.086 166.159 109.694 166.331 110.236 166.676C110.782 167.017 111.213 167.523 111.532 168.193C111.854 168.86 112.014 169.678 112.014 170.648C112.014 171.606 111.857 172.42 111.543 173.091C111.229 173.761 110.8 174.273 110.259 174.625C109.717 174.977 109.104 175.153 108.418 175.153C107.918 175.153 107.503 175.07 107.174 174.903C106.844 174.737 106.579 174.536 106.378 174.301C106.181 174.062 106.028 173.837 105.918 173.625H105.799V175H103.776ZM105.793 170.636C105.793 171.201 105.872 171.695 106.032 172.119C106.194 172.544 106.427 172.875 106.73 173.114C107.037 173.348 107.408 173.466 107.844 173.466C108.299 173.466 108.679 173.345 108.986 173.102C109.293 172.856 109.524 172.521 109.679 172.097C109.838 171.669 109.918 171.182 109.918 170.636C109.918 170.095 109.84 169.614 109.685 169.193C109.53 168.773 109.299 168.443 108.992 168.205C108.685 167.966 108.302 167.847 107.844 167.847C107.405 167.847 107.032 167.962 106.725 168.193C106.418 168.424 106.185 168.748 106.026 169.165C105.871 169.581 105.793 170.072 105.793 170.636ZM115.02 163.364V175H112.963V163.364H115.02ZM120.199 175.17C119.324 175.17 118.568 174.989 117.932 174.625C117.299 174.258 116.812 173.739 116.471 173.068C116.13 172.394 115.96 171.6 115.96 170.688C115.96 169.79 116.13 169.002 116.471 168.324C116.816 167.642 117.297 167.112 117.914 166.733C118.532 166.35 119.257 166.159 120.091 166.159C120.629 166.159 121.136 166.246 121.613 166.42C122.094 166.591 122.519 166.856 122.886 167.216C123.257 167.576 123.549 168.034 123.761 168.591C123.973 169.144 124.079 169.803 124.079 170.568V171.199H116.926V169.812H122.108C122.104 169.419 122.019 169.068 121.852 168.761C121.685 168.451 121.452 168.206 121.153 168.028C120.858 167.85 120.513 167.761 120.119 167.761C119.699 167.761 119.329 167.864 119.011 168.068C118.693 168.269 118.445 168.534 118.267 168.864C118.093 169.189 118.004 169.547 118 169.938V171.148C118 171.655 118.093 172.091 118.278 172.455C118.464 172.814 118.723 173.091 119.057 173.284C119.39 173.473 119.78 173.568 120.227 173.568C120.526 173.568 120.797 173.527 121.039 173.443C121.282 173.356 121.492 173.229 121.67 173.062C121.848 172.896 121.983 172.689 122.074 172.443L123.994 172.659C123.873 173.167 123.642 173.61 123.301 173.989C122.964 174.364 122.532 174.655 122.005 174.864C121.479 175.068 120.877 175.17 120.199 175.17ZM128.258 175.153C127.572 175.153 126.959 174.977 126.417 174.625C125.875 174.273 125.447 173.761 125.133 173.091C124.819 172.42 124.661 171.606 124.661 170.648C124.661 169.678 124.82 168.86 125.139 168.193C125.461 167.523 125.894 167.017 126.44 166.676C126.985 166.331 127.593 166.159 128.264 166.159C128.775 166.159 129.195 166.246 129.525 166.42C129.855 166.591 130.116 166.797 130.309 167.04C130.502 167.278 130.652 167.504 130.758 167.716H130.843V163.364H132.906V175H130.883V173.625H130.758C130.652 173.837 130.498 174.062 130.298 174.301C130.097 174.536 129.832 174.737 129.502 174.903C129.173 175.07 128.758 175.153 128.258 175.153ZM128.832 173.466C129.267 173.466 129.639 173.348 129.945 173.114C130.252 172.875 130.485 172.544 130.644 172.119C130.803 171.695 130.883 171.201 130.883 170.636C130.883 170.072 130.803 169.581 130.644 169.165C130.489 168.748 130.258 168.424 129.951 168.193C129.648 167.962 129.275 167.847 128.832 167.847C128.373 167.847 127.991 167.966 127.684 168.205C127.377 168.443 127.146 168.773 126.991 169.193C126.836 169.614 126.758 170.095 126.758 170.636C126.758 171.182 126.836 171.669 126.991 172.097C127.15 172.521 127.383 172.856 127.69 173.102C128 173.345 128.381 173.466 128.832 173.466ZM139.665 163.364V175H137.557V163.364H139.665ZM143.114 169.886V175H141.057V166.273H143.023V167.756H143.125C143.326 167.267 143.646 166.879 144.085 166.591C144.528 166.303 145.076 166.159 145.727 166.159C146.33 166.159 146.854 166.288 147.301 166.545C147.752 166.803 148.1 167.176 148.347 167.665C148.597 168.153 148.72 168.746 148.716 169.443V175H146.659V169.761C146.659 169.178 146.508 168.722 146.205 168.392C145.905 168.062 145.491 167.898 144.96 167.898C144.6 167.898 144.28 167.977 144 168.136C143.723 168.292 143.506 168.517 143.347 168.812C143.191 169.108 143.114 169.466 143.114 169.886ZM156.905 168.58L155.03 168.784C154.977 168.595 154.884 168.417 154.751 168.25C154.622 168.083 154.448 167.949 154.228 167.847C154.009 167.744 153.74 167.693 153.422 167.693C152.994 167.693 152.634 167.786 152.342 167.972C152.054 168.157 151.912 168.398 151.916 168.693C151.912 168.947 152.005 169.153 152.194 169.312C152.387 169.472 152.706 169.602 153.149 169.705L154.637 170.023C155.463 170.201 156.077 170.483 156.478 170.869C156.884 171.256 157.088 171.761 157.092 172.386C157.088 172.936 156.927 173.42 156.609 173.841C156.295 174.258 155.857 174.583 155.297 174.818C154.736 175.053 154.092 175.17 153.365 175.17C152.297 175.17 151.437 174.947 150.785 174.5C150.134 174.049 149.745 173.422 149.62 172.619L151.626 172.426C151.717 172.82 151.91 173.117 152.206 173.318C152.501 173.519 152.886 173.619 153.359 173.619C153.848 173.619 154.24 173.519 154.535 173.318C154.834 173.117 154.984 172.869 154.984 172.574C154.984 172.324 154.887 172.117 154.694 171.955C154.505 171.792 154.209 171.667 153.808 171.58L152.319 171.267C151.482 171.093 150.863 170.799 150.461 170.386C150.06 169.97 149.861 169.443 149.865 168.807C149.861 168.269 150.007 167.803 150.302 167.409C150.602 167.011 151.016 166.705 151.547 166.489C152.081 166.269 152.696 166.159 153.393 166.159C154.416 166.159 155.221 166.377 155.808 166.812C156.399 167.248 156.764 167.837 156.905 168.58ZM157.988 175V166.273H160.045V175H157.988ZM159.022 165.034C158.696 165.034 158.416 164.926 158.181 164.71C157.946 164.491 157.829 164.227 157.829 163.92C157.829 163.61 157.946 163.347 158.181 163.131C158.416 162.911 158.696 162.801 159.022 162.801C159.352 162.801 159.632 162.911 159.863 163.131C160.098 163.347 160.215 163.61 160.215 163.92C160.215 164.227 160.098 164.491 159.863 164.71C159.632 164.926 159.352 165.034 159.022 165.034ZM165.155 178.455C164.417 178.455 163.782 178.354 163.252 178.153C162.722 177.956 162.296 177.691 161.974 177.358C161.652 177.025 161.428 176.655 161.303 176.25L163.155 175.801C163.239 175.972 163.36 176.14 163.519 176.307C163.678 176.477 163.892 176.617 164.161 176.727C164.434 176.841 164.777 176.898 165.189 176.898C165.773 176.898 166.256 176.756 166.638 176.472C167.021 176.191 167.212 175.729 167.212 175.085V173.432H167.11C167.004 173.644 166.849 173.862 166.644 174.085C166.443 174.309 166.176 174.496 165.843 174.648C165.513 174.799 165.099 174.875 164.599 174.875C163.928 174.875 163.32 174.718 162.775 174.403C162.233 174.085 161.801 173.612 161.479 172.983C161.161 172.35 161.002 171.559 161.002 170.608C161.002 169.65 161.161 168.841 161.479 168.182C161.801 167.519 162.235 167.017 162.78 166.676C163.326 166.331 163.934 166.159 164.604 166.159C165.116 166.159 165.536 166.246 165.866 166.42C166.199 166.591 166.464 166.797 166.661 167.04C166.858 167.278 167.008 167.504 167.11 167.716H167.224V166.273H169.252V175.142C169.252 175.888 169.074 176.506 168.718 176.994C168.362 177.483 167.875 177.848 167.258 178.091C166.64 178.333 165.939 178.455 165.155 178.455ZM165.172 173.261C165.608 173.261 165.979 173.155 166.286 172.943C166.593 172.731 166.826 172.426 166.985 172.028C167.144 171.631 167.224 171.153 167.224 170.597C167.224 170.047 167.144 169.566 166.985 169.153C166.83 168.741 166.599 168.42 166.292 168.193C165.989 167.962 165.616 167.847 165.172 167.847C164.714 167.847 164.332 167.966 164.025 168.205C163.718 168.443 163.487 168.771 163.332 169.188C163.176 169.6 163.099 170.07 163.099 170.597C163.099 171.131 163.176 171.598 163.332 172C163.491 172.398 163.724 172.708 164.03 172.932C164.341 173.152 164.722 173.261 165.172 173.261ZM172.617 169.886V175H170.56V163.364H172.571V167.756H172.674C172.878 167.263 173.194 166.875 173.622 166.591C174.054 166.303 174.603 166.159 175.27 166.159C175.876 166.159 176.405 166.286 176.855 166.54C177.306 166.794 177.655 167.165 177.901 167.653C178.151 168.142 178.276 168.739 178.276 169.443V175H176.219V169.761C176.219 169.174 176.068 168.718 175.764 168.392C175.465 168.062 175.045 167.898 174.503 167.898C174.139 167.898 173.814 167.977 173.526 168.136C173.242 168.292 173.018 168.517 172.855 168.812C172.696 169.108 172.617 169.466 172.617 169.886ZM183.93 166.273V167.864H178.913V166.273H183.93ZM180.152 164.182H182.209V172.375C182.209 172.652 182.25 172.864 182.334 173.011C182.421 173.155 182.535 173.254 182.675 173.307C182.815 173.36 182.97 173.386 183.141 173.386C183.269 173.386 183.387 173.377 183.493 173.358C183.603 173.339 183.686 173.322 183.743 173.307L184.089 174.915C183.98 174.953 183.822 174.994 183.618 175.04C183.417 175.085 183.171 175.112 182.879 175.119C182.364 175.134 181.9 175.057 181.487 174.886C181.074 174.712 180.747 174.443 180.504 174.08C180.266 173.716 180.148 173.261 180.152 172.716V164.182ZM191.623 168.58L189.748 168.784C189.695 168.595 189.602 168.417 189.47 168.25C189.341 168.083 189.167 167.949 188.947 167.847C188.727 167.744 188.459 167.693 188.14 167.693C187.712 167.693 187.352 167.786 187.061 167.972C186.773 168.157 186.631 168.398 186.635 168.693C186.631 168.947 186.724 169.153 186.913 169.312C187.106 169.472 187.424 169.602 187.868 169.705L189.356 170.023C190.182 170.201 190.796 170.483 191.197 170.869C191.602 171.256 191.807 171.761 191.811 172.386C191.807 172.936 191.646 173.42 191.328 173.841C191.013 174.258 190.576 174.583 190.015 174.818C189.455 175.053 188.811 175.17 188.084 175.17C187.015 175.17 186.156 174.947 185.504 174.5C184.852 174.049 184.464 173.422 184.339 172.619L186.345 172.426C186.436 172.82 186.629 173.117 186.924 173.318C187.22 173.519 187.604 173.619 188.078 173.619C188.566 173.619 188.959 173.519 189.254 173.318C189.553 173.117 189.703 172.869 189.703 172.574C189.703 172.324 189.606 172.117 189.413 171.955C189.224 171.792 188.928 171.667 188.527 171.58L187.038 171.267C186.201 171.093 185.582 170.799 185.18 170.386C184.779 169.97 184.58 169.443 184.584 168.807C184.58 168.269 184.726 167.803 185.021 167.409C185.32 167.011 185.735 166.705 186.265 166.489C186.799 166.269 187.415 166.159 188.112 166.159C189.135 166.159 189.94 166.377 190.527 166.812C191.118 167.248 191.483 167.837 191.623 168.58ZM53.7976 185.273V186.864H48.6385V185.273H53.7976ZM49.9283 194V184.449C49.9283 183.862 50.0495 183.373 50.2919 182.983C50.5381 182.593 50.8677 182.301 51.2805 182.108C51.6934 181.915 52.1518 181.818 52.6555 181.818C53.0116 181.818 53.3279 181.847 53.6044 181.903C53.8809 181.96 54.0855 182.011 54.218 182.057L53.8089 183.648C53.7218 183.621 53.612 183.595 53.4794 183.568C53.3468 183.538 53.1991 183.523 53.0362 183.523C52.6536 183.523 52.3828 183.616 52.2237 183.801C52.0684 183.983 51.9908 184.244 51.9908 184.585V194H49.9283ZM58.0871 194.17C57.2348 194.17 56.4962 193.983 55.8712 193.608C55.2462 193.233 54.7613 192.708 54.4166 192.034C54.0757 191.36 53.9053 190.572 53.9053 189.67C53.9053 188.769 54.0757 187.979 54.4166 187.301C54.7613 186.623 55.2462 186.097 55.8712 185.722C56.4962 185.347 57.2348 185.159 58.0871 185.159C58.9393 185.159 59.678 185.347 60.303 185.722C60.928 186.097 61.4109 186.623 61.7518 187.301C62.0965 187.979 62.2689 188.769 62.2689 189.67C62.2689 190.572 62.0965 191.36 61.7518 192.034C61.4109 192.708 60.928 193.233 60.303 193.608C59.678 193.983 58.9393 194.17 58.0871 194.17ZM58.0984 192.523C58.5606 192.523 58.9469 192.396 59.2575 192.142C59.5681 191.884 59.7992 191.54 59.9507 191.108C60.106 190.676 60.1837 190.195 60.1837 189.665C60.1837 189.131 60.106 188.648 59.9507 188.216C59.7992 187.78 59.5681 187.434 59.2575 187.176C58.9469 186.919 58.5606 186.79 58.0984 186.79C57.625 186.79 57.231 186.919 56.9166 187.176C56.606 187.434 56.3731 187.78 56.2178 188.216C56.0662 188.648 55.9905 189.131 55.9905 189.665C55.9905 190.195 56.0662 190.676 56.2178 191.108C56.3731 191.54 56.606 191.884 56.9166 192.142C57.231 192.396 57.625 192.523 58.0984 192.523ZM63.2146 194V185.273H65.2089V186.727H65.2999C65.4589 186.223 65.7317 185.835 66.118 185.562C66.5082 185.286 66.9533 185.148 67.4533 185.148C67.5669 185.148 67.6938 185.153 67.8339 185.165C67.9779 185.172 68.0972 185.186 68.1919 185.205V187.097C68.1048 187.066 67.9665 187.04 67.7771 187.017C67.5915 186.991 67.4116 186.977 67.2374 186.977C66.8624 186.977 66.5252 187.059 66.226 187.222C65.9305 187.381 65.6976 187.602 65.5271 187.886C65.3567 188.17 65.2714 188.498 65.2714 188.869V194H63.2146ZM72.018 194V182.364H76.3817C77.2756 182.364 78.0256 182.53 78.6317 182.864C79.2415 183.197 79.7018 183.655 80.0124 184.239C80.3268 184.818 80.4839 185.477 80.4839 186.216C80.4839 186.962 80.3268 187.625 80.0124 188.205C79.698 188.784 79.2339 189.241 78.6203 189.574C78.0067 189.903 77.251 190.068 76.3533 190.068H73.4612V188.335H76.0692C76.5919 188.335 77.0199 188.244 77.3533 188.062C77.6866 187.881 77.9328 187.631 78.0919 187.312C78.2548 186.994 78.3362 186.629 78.3362 186.216C78.3362 185.803 78.2548 185.439 78.0919 185.125C77.9328 184.811 77.6847 184.566 77.3476 184.392C77.0143 184.214 76.5843 184.125 76.0578 184.125H74.126V194H72.018ZM85.1626 194.17C84.2876 194.17 83.532 193.989 82.8956 193.625C82.263 193.258 81.7763 192.739 81.4354 192.068C81.0945 191.394 80.924 190.6 80.924 189.688C80.924 188.79 81.0945 188.002 81.4354 187.324C81.7801 186.642 82.2611 186.112 82.8786 185.733C83.496 185.35 84.2214 185.159 85.0547 185.159C85.5926 185.159 86.1001 185.246 86.5774 185.42C87.0585 185.591 87.4827 185.856 87.8501 186.216C88.2214 186.576 88.513 187.034 88.7251 187.591C88.9373 188.144 89.0433 188.803 89.0433 189.568V190.199H81.8899V188.812H87.0717C87.0679 188.419 86.9827 188.068 86.8161 187.761C86.6494 187.451 86.4164 187.206 86.1172 187.028C85.8217 186.85 85.477 186.761 85.0831 186.761C84.6626 186.761 84.2933 186.864 83.9751 187.068C83.657 187.269 83.4089 187.534 83.2308 187.864C83.0566 188.189 82.9676 188.547 82.9638 188.938V190.148C82.9638 190.655 83.0566 191.091 83.2422 191.455C83.4278 191.814 83.6873 192.091 84.0206 192.284C84.3539 192.473 84.7441 192.568 85.1911 192.568C85.4903 192.568 85.7611 192.527 86.0036 192.443C86.246 192.356 86.4562 192.229 86.6342 192.062C86.8123 191.896 86.9467 191.689 87.0376 191.443L88.9581 191.659C88.8369 192.167 88.6058 192.61 88.2649 192.989C87.9278 193.364 87.496 193.655 86.9695 193.864C86.4429 194.068 85.8407 194.17 85.1626 194.17ZM89.9834 194V185.273H91.9777V186.727H92.0686C92.2277 186.223 92.5004 185.835 92.8868 185.562C93.2769 185.286 93.722 185.148 94.222 185.148C94.3357 185.148 94.4625 185.153 94.6027 185.165C94.7466 185.172 94.866 185.186 94.9607 185.205V187.097C94.8735 187.066 94.7353 187.04 94.5459 187.017C94.3603 186.991 94.1804 186.977 94.0061 186.977C93.6311 186.977 93.294 187.059 92.9947 187.222C92.6993 187.381 92.4663 187.602 92.2959 187.886C92.1254 188.17 92.0402 188.498 92.0402 188.869V194H89.9834ZM102.425 187.58L100.55 187.784C100.497 187.595 100.404 187.417 100.271 187.25C100.143 187.083 99.9684 186.949 99.7487 186.847C99.529 186.744 99.2601 186.693 98.9419 186.693C98.5139 186.693 98.154 186.786 97.8624 186.972C97.5745 187.157 97.4324 187.398 97.4362 187.693C97.4324 187.947 97.5252 188.153 97.7146 188.312C97.9078 188.472 98.226 188.602 98.6692 188.705L100.158 189.023C100.984 189.201 101.597 189.483 101.999 189.869C102.404 190.256 102.609 190.761 102.612 191.386C102.609 191.936 102.448 192.42 102.129 192.841C101.815 193.258 101.378 193.583 100.817 193.818C100.256 194.053 99.6124 194.17 98.8851 194.17C97.8169 194.17 96.9571 193.947 96.3055 193.5C95.654 193.049 95.2658 192.422 95.1408 191.619L97.1465 191.426C97.2374 191.82 97.4305 192.117 97.726 192.318C98.0215 192.519 98.4059 192.619 98.8794 192.619C99.368 192.619 99.7601 192.519 100.056 192.318C100.355 192.117 100.504 191.869 100.504 191.574C100.504 191.324 100.408 191.117 100.215 190.955C100.025 190.792 99.7298 190.667 99.3283 190.58L97.8396 190.267C97.0025 190.093 96.3832 189.799 95.9817 189.386C95.5802 188.97 95.3813 188.443 95.3851 187.807C95.3813 187.269 95.5271 186.803 95.8226 186.409C96.1218 186.011 96.5366 185.705 97.0669 185.489C97.601 185.269 98.2165 185.159 98.9135 185.159C99.9362 185.159 100.741 185.377 101.328 185.812C101.919 186.248 102.285 186.837 102.425 187.58ZM107.315 194.17C106.463 194.17 105.724 193.983 105.099 193.608C104.474 193.233 103.989 192.708 103.645 192.034C103.304 191.36 103.133 190.572 103.133 189.67C103.133 188.769 103.304 187.979 103.645 187.301C103.989 186.623 104.474 186.097 105.099 185.722C105.724 185.347 106.463 185.159 107.315 185.159C108.167 185.159 108.906 185.347 109.531 185.722C110.156 186.097 110.639 186.623 110.98 187.301C111.325 187.979 111.497 188.769 111.497 189.67C111.497 190.572 111.325 191.36 110.98 192.034C110.639 192.708 110.156 193.233 109.531 193.608C108.906 193.983 108.167 194.17 107.315 194.17ZM107.327 192.523C107.789 192.523 108.175 192.396 108.486 192.142C108.796 191.884 109.027 191.54 109.179 191.108C109.334 190.676 109.412 190.195 109.412 189.665C109.412 189.131 109.334 188.648 109.179 188.216C109.027 187.78 108.796 187.434 108.486 187.176C108.175 186.919 107.789 186.79 107.327 186.79C106.853 186.79 106.459 186.919 106.145 187.176C105.834 187.434 105.601 187.78 105.446 188.216C105.294 188.648 105.219 189.131 105.219 189.665C105.219 190.195 105.294 190.676 105.446 191.108C105.601 191.54 105.834 191.884 106.145 192.142C106.459 192.396 106.853 192.523 107.327 192.523ZM114.5 188.886V194H112.443V185.273H114.409V186.756H114.511C114.712 186.267 115.032 185.879 115.471 185.591C115.914 185.303 116.462 185.159 117.113 185.159C117.715 185.159 118.24 185.288 118.687 185.545C119.138 185.803 119.486 186.176 119.733 186.665C119.983 187.153 120.106 187.746 120.102 188.443V194H118.045V188.761C118.045 188.178 117.894 187.722 117.59 187.392C117.291 187.062 116.876 186.898 116.346 186.898C115.986 186.898 115.666 186.977 115.386 187.136C115.109 187.292 114.892 187.517 114.733 187.812C114.577 188.108 114.5 188.466 114.5 188.886ZM123.904 194.176C123.351 194.176 122.853 194.078 122.41 193.881C121.97 193.68 121.622 193.384 121.364 192.994C121.111 192.604 120.984 192.123 120.984 191.551C120.984 191.059 121.075 190.652 121.256 190.33C121.438 190.008 121.686 189.75 122.001 189.557C122.315 189.364 122.669 189.218 123.063 189.119C123.461 189.017 123.872 188.943 124.296 188.898C124.808 188.845 125.222 188.797 125.54 188.756C125.859 188.71 126.09 188.642 126.234 188.551C126.381 188.456 126.455 188.311 126.455 188.114V188.08C126.455 187.652 126.328 187.32 126.075 187.085C125.821 186.85 125.455 186.733 124.978 186.733C124.474 186.733 124.075 186.843 123.779 187.062C123.487 187.282 123.29 187.542 123.188 187.841L121.268 187.568C121.419 187.038 121.669 186.595 122.018 186.239C122.366 185.879 122.792 185.61 123.296 185.432C123.8 185.25 124.357 185.159 124.967 185.159C125.387 185.159 125.806 185.208 126.222 185.307C126.639 185.405 127.02 185.568 127.364 185.795C127.709 186.019 127.986 186.324 128.194 186.71C128.406 187.097 128.512 187.58 128.512 188.159V194H126.535V192.801H126.467C126.342 193.044 126.165 193.271 125.938 193.483C125.715 193.691 125.433 193.86 125.092 193.989C124.754 194.114 124.359 194.176 123.904 194.176ZM124.438 192.665C124.851 192.665 125.209 192.583 125.512 192.42C125.815 192.254 126.048 192.034 126.211 191.761C126.378 191.489 126.461 191.191 126.461 190.869V189.841C126.397 189.894 126.287 189.943 126.131 189.989C125.98 190.034 125.809 190.074 125.62 190.108C125.431 190.142 125.243 190.172 125.058 190.199C124.872 190.225 124.711 190.248 124.575 190.267C124.268 190.309 123.993 190.377 123.751 190.472C123.508 190.566 123.317 190.699 123.177 190.869C123.037 191.036 122.967 191.252 122.967 191.517C122.967 191.896 123.105 192.182 123.381 192.375C123.658 192.568 124.01 192.665 124.438 192.665ZM131.837 182.364V194H129.78V182.364H131.837ZM133.152 194V185.273H135.209V194H133.152ZM134.186 184.034C133.86 184.034 133.58 183.926 133.345 183.71C133.11 183.491 132.993 183.227 132.993 182.92C132.993 182.61 133.11 182.347 133.345 182.131C133.58 181.911 133.86 181.801 134.186 181.801C134.516 181.801 134.796 181.911 135.027 182.131C135.262 182.347 135.379 182.61 135.379 182.92C135.379 183.227 135.262 183.491 135.027 183.71C134.796 183.926 134.516 184.034 134.186 184.034ZM136.41 194V192.693L140.91 187.051V186.977H136.558V185.273H143.427V186.676L139.143 192.222V192.295H143.575V194H136.41ZM148.322 194.17C147.447 194.17 146.691 193.989 146.055 193.625C145.422 193.258 144.936 192.739 144.595 192.068C144.254 191.394 144.083 190.6 144.083 189.688C144.083 188.79 144.254 188.002 144.595 187.324C144.939 186.642 145.421 186.112 146.038 185.733C146.655 185.35 147.381 185.159 148.214 185.159C148.752 185.159 149.26 185.246 149.737 185.42C150.218 185.591 150.642 185.856 151.01 186.216C151.381 186.576 151.672 187.034 151.885 187.591C152.097 188.144 152.203 188.803 152.203 189.568V190.199H145.049V188.812H150.231C150.227 188.419 150.142 188.068 149.975 187.761C149.809 187.451 149.576 187.206 149.277 187.028C148.981 186.85 148.636 186.761 148.242 186.761C147.822 186.761 147.453 186.864 147.135 187.068C146.816 187.269 146.568 187.534 146.39 187.864C146.216 188.189 146.127 188.547 146.123 188.938V190.148C146.123 190.655 146.216 191.091 146.402 191.455C146.587 191.814 146.847 192.091 147.18 192.284C147.513 192.473 147.903 192.568 148.35 192.568C148.65 192.568 148.921 192.527 149.163 192.443C149.405 192.356 149.616 192.229 149.794 192.062C149.972 191.896 150.106 191.689 150.197 191.443L152.117 191.659C151.996 192.167 151.765 192.61 151.424 192.989C151.087 193.364 150.655 193.655 150.129 193.864C149.602 194.068 149 194.17 148.322 194.17ZM156.381 194.153C155.696 194.153 155.082 193.977 154.54 193.625C153.999 193.273 153.571 192.761 153.256 192.091C152.942 191.42 152.785 190.606 152.785 189.648C152.785 188.678 152.944 187.86 153.262 187.193C153.584 186.523 154.018 186.017 154.563 185.676C155.109 185.331 155.717 185.159 156.387 185.159C156.898 185.159 157.319 185.246 157.648 185.42C157.978 185.591 158.239 185.797 158.433 186.04C158.626 186.278 158.775 186.504 158.881 186.716H158.967V182.364H161.029V194H159.006V192.625H158.881C158.775 192.837 158.622 193.062 158.421 193.301C158.22 193.536 157.955 193.737 157.626 193.903C157.296 194.07 156.881 194.153 156.381 194.153ZM156.955 192.466C157.391 192.466 157.762 192.348 158.069 192.114C158.376 191.875 158.609 191.544 158.768 191.119C158.927 190.695 159.006 190.201 159.006 189.636C159.006 189.072 158.927 188.581 158.768 188.165C158.612 187.748 158.381 187.424 158.075 187.193C157.772 186.962 157.398 186.847 156.955 186.847C156.497 186.847 156.114 186.966 155.808 187.205C155.501 187.443 155.27 187.773 155.114 188.193C154.959 188.614 154.881 189.095 154.881 189.636C154.881 190.182 154.959 190.669 155.114 191.097C155.273 191.521 155.506 191.856 155.813 192.102C156.124 192.345 156.504 192.466 156.955 192.466ZM175.641 186.29H173.516C173.455 185.941 173.343 185.633 173.181 185.364C173.018 185.091 172.815 184.86 172.573 184.67C172.33 184.481 172.054 184.339 171.743 184.244C171.436 184.146 171.105 184.097 170.749 184.097C170.116 184.097 169.556 184.256 169.067 184.574C168.578 184.888 168.196 185.35 167.919 185.96C167.643 186.566 167.504 187.307 167.504 188.182C167.504 189.072 167.643 189.822 167.919 190.432C168.199 191.038 168.582 191.496 169.067 191.807C169.556 192.114 170.114 192.267 170.743 192.267C171.092 192.267 171.417 192.222 171.72 192.131C172.027 192.036 172.302 191.898 172.544 191.716C172.79 191.534 172.997 191.311 173.163 191.045C173.334 190.78 173.451 190.477 173.516 190.136L175.641 190.148C175.561 190.701 175.389 191.22 175.124 191.705C174.862 192.189 174.52 192.617 174.095 192.989C173.671 193.356 173.175 193.644 172.607 193.852C172.038 194.057 171.408 194.159 170.715 194.159C169.692 194.159 168.779 193.922 167.976 193.449C167.173 192.975 166.54 192.292 166.078 191.398C165.616 190.504 165.385 189.432 165.385 188.182C165.385 186.928 165.618 185.856 166.084 184.966C166.55 184.072 167.184 183.388 167.987 182.915C168.79 182.441 169.699 182.205 170.715 182.205C171.362 182.205 171.965 182.295 172.521 182.477C173.078 182.659 173.574 182.926 174.01 183.278C174.446 183.627 174.804 184.055 175.084 184.562C175.368 185.066 175.554 185.642 175.641 186.29ZM179.192 194.176C178.639 194.176 178.14 194.078 177.697 193.881C177.258 193.68 176.909 193.384 176.652 192.994C176.398 192.604 176.271 192.123 176.271 191.551C176.271 191.059 176.362 190.652 176.544 190.33C176.726 190.008 176.974 189.75 177.288 189.557C177.603 189.364 177.957 189.218 178.351 189.119C178.748 189.017 179.159 188.943 179.584 188.898C180.095 188.845 180.51 188.797 180.828 188.756C181.146 188.71 181.377 188.642 181.521 188.551C181.669 188.456 181.743 188.311 181.743 188.114V188.08C181.743 187.652 181.616 187.32 181.362 187.085C181.108 186.85 180.743 186.733 180.265 186.733C179.762 186.733 179.362 186.843 179.067 187.062C178.775 187.282 178.578 187.542 178.476 187.841L176.555 187.568C176.707 187.038 176.957 186.595 177.305 186.239C177.654 185.879 178.08 185.61 178.584 185.432C179.087 185.25 179.644 185.159 180.254 185.159C180.675 185.159 181.093 185.208 181.51 185.307C181.926 185.405 182.307 185.568 182.652 185.795C182.997 186.019 183.273 186.324 183.481 186.71C183.694 187.097 183.8 187.58 183.8 188.159V194H181.822V192.801H181.754C181.629 193.044 181.453 193.271 181.226 193.483C181.002 193.691 180.72 193.86 180.379 193.989C180.042 194.114 179.646 194.176 179.192 194.176ZM179.726 192.665C180.139 192.665 180.497 192.583 180.8 192.42C181.103 192.254 181.336 192.034 181.498 191.761C181.665 191.489 181.748 191.191 181.748 190.869V189.841C181.684 189.894 181.574 189.943 181.419 189.989C181.267 190.034 181.097 190.074 180.908 190.108C180.718 190.142 180.531 190.172 180.345 190.199C180.159 190.225 179.998 190.248 179.862 190.267C179.555 190.309 179.281 190.377 179.038 190.472C178.796 190.566 178.605 190.699 178.464 190.869C178.324 191.036 178.254 191.252 178.254 191.517C178.254 191.896 178.392 192.182 178.669 192.375C178.945 192.568 179.298 192.665 179.726 192.665ZM185.068 194V185.273H187.062V186.727H187.153C187.312 186.223 187.585 185.835 187.971 185.562C188.361 185.286 188.806 185.148 189.306 185.148C189.42 185.148 189.547 185.153 189.687 185.165C189.831 185.172 189.95 185.186 190.045 185.205V187.097C189.958 187.066 189.82 187.04 189.63 187.017C189.445 186.991 189.265 186.977 189.09 186.977C188.715 186.977 188.378 187.059 188.079 187.222C187.784 187.381 187.551 187.602 187.38 187.886C187.21 188.17 187.125 188.498 187.125 188.869V194H185.068ZM194.116 194.17C193.241 194.17 192.485 193.989 191.849 193.625C191.216 193.258 190.729 192.739 190.388 192.068C190.048 191.394 189.877 190.6 189.877 189.688C189.877 188.79 190.048 188.002 190.388 187.324C190.733 186.642 191.214 186.112 191.832 185.733C192.449 185.35 193.174 185.159 194.008 185.159C194.546 185.159 195.053 185.246 195.531 185.42C196.012 185.591 196.436 185.856 196.803 186.216C197.174 186.576 197.466 187.034 197.678 187.591C197.89 188.144 197.996 188.803 197.996 189.568V190.199H190.843V188.812H196.025C196.021 188.419 195.936 188.068 195.769 187.761C195.603 187.451 195.37 187.206 195.07 187.028C194.775 186.85 194.43 186.761 194.036 186.761C193.616 186.761 193.246 186.864 192.928 187.068C192.61 187.269 192.362 187.534 192.184 187.864C192.01 188.189 191.921 188.547 191.917 188.938V190.148C191.917 190.655 192.01 191.091 192.195 191.455C192.381 191.814 192.64 192.091 192.974 192.284C193.307 192.473 193.697 192.568 194.144 192.568C194.443 192.568 194.714 192.527 194.957 192.443C195.199 192.356 195.409 192.229 195.587 192.062C195.765 191.896 195.9 191.689 195.991 191.443L197.911 191.659C197.79 192.167 197.559 192.61 197.218 192.989C196.881 193.364 196.449 193.655 195.923 193.864C195.396 194.068 194.794 194.17 194.116 194.17Z" fill="#008880"/>
<path d="M99.6667 127.833H106.652C107.51 127.833 108.355 128.026 109.122 128.399L115.078 131.281C115.845 131.651 116.691 131.844 117.552 131.844H120.591C123.531 131.844 125.917 134.151 125.917 136.998C125.917 137.114 125.838 137.213 125.724 137.245L118.313 139.296C116.983 139.663 115.565 139.535 114.323 138.934L107.956 135.854M112.488 94.4433C116.787 91.7775 120.544 92.8508 122.799 94.5629C123.723 95.2629 124.187 95.6129 124.458 95.6129C124.73 95.6129 125.193 95.2629 126.118 94.5629C128.372 92.8508 132.126 91.7775 136.428 94.4433C142.075 97.9433 143.352 109.482 130.332 119.218C127.85 121.073 126.611 122 124.458 122C122.306 122 121.066 121.073 118.587 119.218C105.564 109.482 106.842 97.9404 112.488 94.4433Z" stroke="#008880" stroke-width="4" stroke-linecap="round" stroke-linejoin="round"/>
<path d="M125.917 135.125L139.313 131.01C140.479 130.652 141.729 130.671 142.883 131.066C144.037 131.46 145.038 132.209 145.741 133.206C146.818 134.693 146.38 136.828 144.811 137.732L122.892 150.382C122.207 150.779 121.448 151.031 120.662 151.125C119.875 151.219 119.078 151.152 118.319 150.928L99.6667 145.392" stroke="#008880" stroke-width="4" stroke-linecap="round" stroke-linejoin="round"/>
</svg>
