<svg
          width="246"
          height="245"
          viewBox="0 0 246 245"
          fill="none"
          xmlns="http://www.w3.org/2000/svg"
        >
          <rect width="246" height="245" rx="14" fill="#FFE3AA" />
          <path
            d="M84.017 175H81.767L85.8636 163.364H88.4659L92.5682 175H90.3182L87.2102 165.75H87.1193L84.017 175ZM84.0909 170.438H90.2273V172.131H84.0909V170.438ZM95.4088 163.364V175H93.3009V163.364H95.4088ZM102.09 168.335V170.028H96.8517V168.335H102.09ZM103.545 175V163.364H107.908C108.802 163.364 109.552 163.53 110.158 163.864C110.768 164.197 111.228 164.655 111.539 165.239C111.853 165.818 112.011 166.477 112.011 167.216C112.011 167.962 111.853 168.625 111.539 169.205C111.225 169.784 110.761 170.241 110.147 170.574C109.533 170.903 108.778 171.068 107.88 171.068H104.988V169.335H107.596C108.118 169.335 108.546 169.244 108.88 169.062C109.213 168.881 109.459 168.631 109.618 168.312C109.781 167.994 109.863 167.629 109.863 167.216C109.863 166.803 109.781 166.439 109.618 166.125C109.459 165.811 109.211 165.566 108.874 165.392C108.541 165.214 108.111 165.125 107.584 165.125H105.653V175H103.545ZM116.632 175.17C115.78 175.17 115.041 174.983 114.416 174.608C113.791 174.233 113.307 173.708 112.962 173.034C112.621 172.36 112.451 171.572 112.451 170.67C112.451 169.769 112.621 168.979 112.962 168.301C113.307 167.623 113.791 167.097 114.416 166.722C115.041 166.347 115.78 166.159 116.632 166.159C117.485 166.159 118.223 166.347 118.848 166.722C119.473 167.097 119.956 167.623 120.297 168.301C120.642 168.979 120.814 169.769 120.814 170.67C120.814 171.572 120.642 172.36 120.297 173.034C119.956 173.708 119.473 174.233 118.848 174.608C118.223 174.983 117.485 175.17 116.632 175.17ZM116.644 173.523C117.106 173.523 117.492 173.396 117.803 173.142C118.113 172.884 118.345 172.54 118.496 172.108C118.651 171.676 118.729 171.195 118.729 170.665C118.729 170.131 118.651 169.648 118.496 169.216C118.345 168.78 118.113 168.434 117.803 168.176C117.492 167.919 117.106 167.79 116.644 167.79C116.17 167.79 115.776 167.919 115.462 168.176C115.151 168.434 114.918 168.78 114.763 169.216C114.612 169.648 114.536 170.131 114.536 170.665C114.536 171.195 114.612 171.676 114.763 172.108C114.918 172.54 115.151 172.884 115.462 173.142C115.776 173.396 116.17 173.523 116.644 173.523ZM123.311 175L120.845 166.273H122.942L124.476 172.409H124.555L126.124 166.273H128.197L129.766 172.375H129.851L131.362 166.273H133.464L130.993 175H128.851L127.214 169.102H127.095L125.459 175H123.311ZM137.714 175.17C136.839 175.17 136.084 174.989 135.447 174.625C134.815 174.258 134.328 173.739 133.987 173.068C133.646 172.394 133.476 171.6 133.476 170.688C133.476 169.79 133.646 169.002 133.987 168.324C134.332 167.642 134.813 167.112 135.43 166.733C136.048 166.35 136.773 166.159 137.606 166.159C138.144 166.159 138.652 166.246 139.129 166.42C139.61 166.591 140.034 166.856 140.402 167.216C140.773 167.576 141.065 168.034 141.277 168.591C141.489 169.144 141.595 169.803 141.595 170.568V171.199H134.441V169.812H139.623C139.62 169.419 139.534 169.068 139.368 168.761C139.201 168.451 138.968 168.206 138.669 168.028C138.373 167.85 138.029 167.761 137.635 167.761C137.214 167.761 136.845 167.864 136.527 168.068C136.209 168.269 135.96 168.534 135.782 168.864C135.608 169.189 135.519 169.547 135.515 169.938V171.148C135.515 171.655 135.608 172.091 135.794 172.455C135.979 172.814 136.239 173.091 136.572 173.284C136.905 173.473 137.296 173.568 137.743 173.568C138.042 173.568 138.313 173.527 138.555 173.443C138.798 173.356 139.008 173.229 139.186 173.062C139.364 172.896 139.498 172.689 139.589 172.443L141.51 172.659C141.388 173.167 141.157 173.61 140.816 173.989C140.479 174.364 140.048 174.655 139.521 174.864C138.995 175.068 138.392 175.17 137.714 175.17ZM142.535 175V166.273H144.529V167.727H144.62C144.779 167.223 145.052 166.835 145.438 166.562C145.829 166.286 146.274 166.148 146.774 166.148C146.887 166.148 147.014 166.153 147.154 166.165C147.298 166.172 147.418 166.186 147.512 166.205V168.097C147.425 168.066 147.287 168.04 147.097 168.017C146.912 167.991 146.732 167.977 146.558 167.977C146.183 167.977 145.846 168.059 145.546 168.222C145.251 168.381 145.018 168.602 144.847 168.886C144.677 169.17 144.592 169.498 144.592 169.869V175H142.535ZM151.583 175.17C150.708 175.17 149.952 174.989 149.316 174.625C148.683 174.258 148.197 173.739 147.856 173.068C147.515 172.394 147.344 171.6 147.344 170.688C147.344 169.79 147.515 169.002 147.856 168.324C148.2 167.642 148.681 167.112 149.299 166.733C149.916 166.35 150.642 166.159 151.475 166.159C152.013 166.159 152.52 166.246 152.998 166.42C153.479 166.591 153.903 166.856 154.27 167.216C154.642 167.576 154.933 168.034 155.145 168.591C155.358 169.144 155.464 169.803 155.464 170.568V171.199H148.31V169.812H153.492C153.488 169.419 153.403 169.068 153.236 168.761C153.07 168.451 152.837 168.206 152.537 168.028C152.242 167.85 151.897 167.761 151.503 167.761C151.083 167.761 150.714 167.864 150.395 168.068C150.077 168.269 149.829 168.534 149.651 168.864C149.477 169.189 149.388 169.547 149.384 169.938V171.148C149.384 171.655 149.477 172.091 149.662 172.455C149.848 172.814 150.108 173.091 150.441 173.284C150.774 173.473 151.164 173.568 151.611 173.568C151.911 173.568 152.181 173.527 152.424 173.443C152.666 173.356 152.877 173.229 153.055 173.062C153.233 172.896 153.367 172.689 153.458 172.443L155.378 172.659C155.257 173.167 155.026 173.61 154.685 173.989C154.348 174.364 153.916 174.655 153.39 174.864C152.863 175.068 152.261 175.17 151.583 175.17ZM159.642 175.153C158.957 175.153 158.343 174.977 157.801 174.625C157.26 174.273 156.832 173.761 156.517 173.091C156.203 172.42 156.046 171.606 156.046 170.648C156.046 169.678 156.205 168.86 156.523 168.193C156.845 167.523 157.279 167.017 157.824 166.676C158.37 166.331 158.978 166.159 159.648 166.159C160.159 166.159 160.58 166.246 160.909 166.42C161.239 166.591 161.5 166.797 161.693 167.04C161.887 167.278 162.036 167.504 162.142 167.716H162.228V163.364H164.29V175H162.267V173.625H162.142C162.036 173.837 161.883 174.062 161.682 174.301C161.481 174.536 161.216 174.737 160.887 174.903C160.557 175.07 160.142 175.153 159.642 175.153ZM160.216 173.466C160.652 173.466 161.023 173.348 161.33 173.114C161.637 172.875 161.87 172.544 162.029 172.119C162.188 171.695 162.267 171.201 162.267 170.636C162.267 170.072 162.188 169.581 162.029 169.165C161.873 168.748 161.642 168.424 161.336 168.193C161.032 167.962 160.659 167.847 160.216 167.847C159.758 167.847 159.375 167.966 159.068 168.205C158.762 168.443 158.531 168.773 158.375 169.193C158.22 169.614 158.142 170.095 158.142 170.636C158.142 171.182 158.22 171.669 158.375 172.097C158.534 172.521 158.767 172.856 159.074 173.102C159.385 173.345 159.765 173.466 160.216 173.466ZM87.4071 182.364V194H85.5321L80.0491 186.074H79.9526V194H77.8446V182.364H79.731L85.2082 190.295H85.3105V182.364H87.4071ZM92.6199 194.17C91.7676 194.17 91.029 193.983 90.404 193.608C89.779 193.233 89.2941 192.708 88.9494 192.034C88.6085 191.36 88.4381 190.572 88.4381 189.67C88.4381 188.769 88.6085 187.979 88.9494 187.301C89.2941 186.623 89.779 186.097 90.404 185.722C91.029 185.347 91.7676 185.159 92.6199 185.159C93.4722 185.159 94.2108 185.347 94.8358 185.722C95.4608 186.097 95.9438 186.623 96.2847 187.301C96.6294 187.979 96.8017 188.769 96.8017 189.67C96.8017 190.572 96.6294 191.36 96.2847 192.034C95.9438 192.708 95.4608 193.233 94.8358 193.608C94.2108 193.983 93.4722 194.17 92.6199 194.17ZM92.6313 192.523C93.0934 192.523 93.4797 192.396 93.7903 192.142C94.1009 191.884 94.332 191.54 94.4835 191.108C94.6388 190.676 94.7165 190.195 94.7165 189.665C94.7165 189.131 94.6388 188.648 94.4835 188.216C94.332 187.78 94.1009 187.434 93.7903 187.176C93.4797 186.919 93.0934 186.79 92.6313 186.79C92.1578 186.79 91.7638 186.919 91.4494 187.176C91.1388 187.434 90.9059 187.78 90.7506 188.216C90.5991 188.648 90.5233 189.131 90.5233 189.665C90.5233 190.195 90.5991 190.676 90.7506 191.108C90.9059 191.54 91.1388 191.884 91.4494 192.142C91.7638 192.396 92.1578 192.523 92.6313 192.523ZM102.105 185.273V186.864H97.0884V185.273H102.105ZM98.327 183.182H100.384V191.375C100.384 191.652 100.425 191.864 100.509 192.011C100.596 192.155 100.71 192.254 100.85 192.307C100.99 192.36 101.145 192.386 101.316 192.386C101.444 192.386 101.562 192.377 101.668 192.358C101.778 192.339 101.861 192.322 101.918 192.307L102.264 193.915C102.155 193.953 101.997 193.994 101.793 194.04C101.592 194.085 101.346 194.112 101.054 194.119C100.539 194.134 100.075 194.057 99.6622 193.886C99.2493 193.712 98.9217 193.443 98.6793 193.08C98.4406 192.716 98.3232 192.261 98.327 191.716V183.182ZM106.795 194.17C105.92 194.17 105.165 193.989 104.528 193.625C103.896 193.258 103.409 192.739 103.068 192.068C102.727 191.394 102.557 190.6 102.557 189.688C102.557 188.79 102.727 188.002 103.068 187.324C103.413 186.642 103.894 186.112 104.511 185.733C105.129 185.35 105.854 185.159 106.688 185.159C107.225 185.159 107.733 185.246 108.21 185.42C108.691 185.591 109.116 185.856 109.483 186.216C109.854 186.576 110.146 187.034 110.358 187.591C110.57 188.144 110.676 188.803 110.676 189.568V190.199H103.523V188.812H108.705C108.701 188.419 108.616 188.068 108.449 187.761C108.282 187.451 108.049 187.206 107.75 187.028C107.455 186.85 107.11 186.761 106.716 186.761C106.295 186.761 105.926 186.864 105.608 187.068C105.29 187.269 105.042 187.534 104.864 187.864C104.689 188.189 104.6 188.547 104.597 188.938V190.148C104.597 190.655 104.689 191.091 104.875 191.455C105.061 191.814 105.32 192.091 105.653 192.284C105.987 192.473 106.377 192.568 106.824 192.568C107.123 192.568 107.394 192.527 107.636 192.443C107.879 192.356 108.089 192.229 108.267 192.062C108.445 191.896 108.58 191.689 108.67 191.443L110.591 191.659C110.47 192.167 110.239 192.61 109.898 192.989C109.561 193.364 109.129 193.655 108.602 193.864C108.076 194.068 107.473 194.17 106.795 194.17ZM118.514 187.58L116.639 187.784C116.586 187.595 116.493 187.417 116.361 187.25C116.232 187.083 116.057 186.949 115.838 186.847C115.618 186.744 115.349 186.693 115.031 186.693C114.603 186.693 114.243 186.786 113.951 186.972C113.664 187.157 113.521 187.398 113.525 187.693C113.521 187.947 113.614 188.153 113.804 188.312C113.997 188.472 114.315 188.602 114.758 188.705L116.247 189.023C117.073 189.201 117.686 189.483 118.088 189.869C118.493 190.256 118.698 190.761 118.701 191.386C118.698 191.936 118.537 192.42 118.218 192.841C117.904 193.258 117.467 193.583 116.906 193.818C116.345 194.053 115.701 194.17 114.974 194.17C113.906 194.17 113.046 193.947 112.395 193.5C111.743 193.049 111.355 192.422 111.23 191.619L113.236 191.426C113.326 191.82 113.52 192.117 113.815 192.318C114.111 192.519 114.495 192.619 114.968 192.619C115.457 192.619 115.849 192.519 116.145 192.318C116.444 192.117 116.593 191.869 116.593 191.574C116.593 191.324 116.497 191.117 116.304 190.955C116.114 190.792 115.819 190.667 115.417 190.58L113.929 190.267C113.092 190.093 112.472 189.799 112.071 189.386C111.669 188.97 111.47 188.443 111.474 187.807C111.47 187.269 111.616 186.803 111.912 186.409C112.211 186.011 112.626 185.705 113.156 185.489C113.69 185.269 114.306 185.159 115.003 185.159C116.025 185.159 116.83 185.377 117.417 185.812C118.008 186.248 118.374 186.837 118.514 187.58ZM122.346 184.131V182.364H131.63V184.131H128.033V194H125.942V184.131H122.346ZM133.853 194.176C133.3 194.176 132.801 194.078 132.358 193.881C131.919 193.68 131.57 193.384 131.313 192.994C131.059 192.604 130.932 192.123 130.932 191.551C130.932 191.059 131.023 190.652 131.205 190.33C131.387 190.008 131.635 189.75 131.949 189.557C132.264 189.364 132.618 189.218 133.012 189.119C133.409 189.017 133.82 188.943 134.245 188.898C134.756 188.845 135.171 188.797 135.489 188.756C135.807 188.71 136.038 188.642 136.182 188.551C136.33 188.456 136.404 188.311 136.404 188.114V188.08C136.404 187.652 136.277 187.32 136.023 187.085C135.769 186.85 135.404 186.733 134.926 186.733C134.423 186.733 134.023 186.843 133.728 187.062C133.436 187.282 133.239 187.542 133.137 187.841L131.216 187.568C131.368 187.038 131.618 186.595 131.966 186.239C132.315 185.879 132.741 185.61 133.245 185.432C133.748 185.25 134.305 185.159 134.915 185.159C135.336 185.159 135.754 185.208 136.171 185.307C136.587 185.405 136.968 185.568 137.313 185.795C137.657 186.019 137.934 186.324 138.142 186.71C138.354 187.097 138.461 187.58 138.461 188.159V194H136.483V192.801H136.415C136.29 193.044 136.114 193.271 135.887 193.483C135.663 193.691 135.381 193.86 135.04 193.989C134.703 194.114 134.307 194.176 133.853 194.176ZM134.387 192.665C134.8 192.665 135.157 192.583 135.461 192.42C135.764 192.254 135.996 192.034 136.159 191.761C136.326 191.489 136.409 191.191 136.409 190.869V189.841C136.345 189.894 136.235 189.943 136.08 189.989C135.928 190.034 135.758 190.074 135.568 190.108C135.379 190.142 135.192 190.172 135.006 190.199C134.82 190.225 134.659 190.248 134.523 190.267C134.216 190.309 133.942 190.377 133.699 190.472C133.457 190.566 133.265 190.699 133.125 190.869C132.985 191.036 132.915 191.252 132.915 191.517C132.915 191.896 133.053 192.182 133.33 192.375C133.606 192.568 133.959 192.665 134.387 192.665ZM141.604 191.261L141.598 188.778H141.928L145.064 185.273H147.467L143.609 189.568H143.183L141.604 191.261ZM139.729 194V182.364H141.786V194H139.729ZM145.206 194L142.365 190.028L143.751 188.58L147.666 194H145.206ZM148.038 194V185.273H150.095V194H148.038ZM149.072 184.034C148.746 184.034 148.466 183.926 148.231 183.71C147.996 183.491 147.879 183.227 147.879 182.92C147.879 182.61 147.996 182.347 148.231 182.131C148.466 181.911 148.746 181.801 149.072 181.801C149.402 181.801 149.682 181.911 149.913 182.131C150.148 182.347 150.265 182.61 150.265 182.92C150.265 183.227 150.148 183.491 149.913 183.71C149.682 183.926 149.402 184.034 149.072 184.034ZM153.467 188.886V194H151.41V185.273H153.376V186.756H153.478C153.679 186.267 153.999 185.879 154.438 185.591C154.882 185.303 155.429 185.159 156.08 185.159C156.683 185.159 157.207 185.288 157.654 185.545C158.105 185.803 158.454 186.176 158.7 186.665C158.95 187.153 159.073 187.746 159.069 188.443V194H157.012V188.761C157.012 188.178 156.861 187.722 156.558 187.392C156.258 187.062 155.844 186.898 155.313 186.898C154.954 186.898 154.633 186.977 154.353 187.136C154.077 187.292 153.859 187.517 153.7 187.812C153.544 188.108 153.467 188.466 153.467 188.886ZM164.155 197.455C163.417 197.455 162.782 197.354 162.252 197.153C161.722 196.956 161.296 196.691 160.974 196.358C160.652 196.025 160.428 195.655 160.303 195.25L162.155 194.801C162.239 194.972 162.36 195.14 162.519 195.307C162.678 195.477 162.892 195.617 163.161 195.727C163.434 195.841 163.777 195.898 164.189 195.898C164.773 195.898 165.256 195.756 165.638 195.472C166.021 195.191 166.212 194.729 166.212 194.085V192.432H166.11C166.004 192.644 165.849 192.862 165.644 193.085C165.443 193.309 165.176 193.496 164.843 193.648C164.513 193.799 164.099 193.875 163.599 193.875C162.928 193.875 162.32 193.718 161.775 193.403C161.233 193.085 160.801 192.612 160.479 191.983C160.161 191.35 160.002 190.559 160.002 189.608C160.002 188.65 160.161 187.841 160.479 187.182C160.801 186.519 161.235 186.017 161.78 185.676C162.326 185.331 162.934 185.159 163.604 185.159C164.116 185.159 164.536 185.246 164.866 185.42C165.199 185.591 165.464 185.797 165.661 186.04C165.858 186.278 166.008 186.504 166.11 186.716H166.224V185.273H168.252V194.142C168.252 194.888 168.074 195.506 167.718 195.994C167.362 196.483 166.875 196.848 166.258 197.091C165.64 197.333 164.939 197.455 164.155 197.455ZM164.172 192.261C164.608 192.261 164.979 192.155 165.286 191.943C165.593 191.731 165.826 191.426 165.985 191.028C166.144 190.631 166.224 190.153 166.224 189.597C166.224 189.047 166.144 188.566 165.985 188.153C165.83 187.741 165.599 187.42 165.292 187.193C164.989 186.962 164.616 186.847 164.172 186.847C163.714 186.847 163.332 186.966 163.025 187.205C162.718 187.443 162.487 187.771 162.332 188.188C162.176 188.6 162.099 189.07 162.099 189.597C162.099 190.131 162.176 190.598 162.332 191C162.491 191.398 162.724 191.708 163.03 191.932C163.341 192.152 163.722 192.261 164.172 192.261Z"
            fill="#CE7C00"
          />
          <path
            d="M99.625 107.25V147.917H145.375V153H99.625C98.2768 153 96.9839 152.464 96.0306 151.511C95.0773 150.558 94.5417 149.265 94.5417 147.917V107.25H99.625ZM132.667 114.875H146.646L132.667 100.896V114.875ZM109.792 97.0833H135.208L150.458 112.333V137.75C150.458 139.098 149.923 140.391 148.969 141.344C148.016 142.298 146.723 142.833 145.375 142.833H109.792C108.444 142.833 107.151 142.298 106.197 141.344C105.244 140.391 104.708 139.098 104.708 137.75V102.167C104.708 100.818 105.244 99.5255 106.197 98.5722C107.151 97.6189 108.444 97.0833 109.792 97.0833ZM109.792 102.167V137.75H145.375V119.958H127.583V102.167H109.792Z"
            fill="#CE7C00"
          />
        </svg>