<svg width="246" height="245" viewBox="0 0 246 245" fill="none" xmlns="http://www.w3.org/2000/svg">
<rect width="246" height="245" rx="14" fill="#E3BAFF"/>
<path d="M38.2501 167.29H36.1251C36.0645 166.941 35.9528 166.633 35.7899 166.364C35.627 166.091 35.4244 165.86 35.182 165.67C34.9395 165.481 34.663 165.339 34.3524 165.244C34.0456 165.146 33.7142 165.097 33.3581 165.097C32.7255 165.097 32.1649 165.256 31.6763 165.574C31.1876 165.888 30.8051 166.35 30.5286 166.96C30.252 167.566 30.1138 168.307 30.1138 169.182C30.1138 170.072 30.252 170.822 30.5286 171.432C30.8089 172.038 31.1914 172.496 31.6763 172.807C32.1649 173.114 32.7236 173.267 33.3524 173.267C33.7009 173.267 34.0267 173.222 34.3297 173.131C34.6365 173.036 34.9111 172.898 35.1536 172.716C35.3998 172.534 35.6062 172.311 35.7729 172.045C35.9433 171.78 36.0608 171.477 36.1251 171.136L38.2501 171.148C38.1706 171.701 37.9983 172.22 37.7331 172.705C37.4717 173.189 37.1289 173.617 36.7047 173.989C36.2804 174.356 35.7842 174.644 35.2161 174.852C34.6479 175.057 34.0172 175.159 33.324 175.159C32.3013 175.159 31.3884 174.922 30.5854 174.449C29.7823 173.975 29.1498 173.292 28.6876 172.398C28.2255 171.504 27.9945 170.432 27.9945 169.182C27.9945 167.928 28.2274 166.856 28.6933 165.966C29.1592 165.072 29.7937 164.388 30.5967 163.915C31.3998 163.441 32.3089 163.205 33.324 163.205C33.9717 163.205 34.574 163.295 35.1308 163.477C35.6876 163.659 36.1839 163.926 36.6195 164.278C37.0551 164.627 37.413 165.055 37.6933 165.562C37.9774 166.066 38.163 166.642 38.2501 167.29ZM44.8521 171.33V166.273H46.909V175H44.9146V173.449H44.8237C44.6268 173.937 44.3029 174.337 43.8521 174.648C43.4052 174.958 42.854 175.114 42.1987 175.114C41.6268 175.114 41.1211 174.987 40.6817 174.733C40.2461 174.475 39.9052 174.102 39.659 173.614C39.4127 173.121 39.2896 172.527 39.2896 171.83V166.273H41.3465V171.511C41.3465 172.064 41.498 172.504 41.801 172.83C42.104 173.155 42.5018 173.318 42.9942 173.318C43.2972 173.318 43.5908 173.244 43.8749 173.097C44.159 172.949 44.3919 172.729 44.5737 172.438C44.7593 172.142 44.8521 171.773 44.8521 171.33ZM55.1217 168.58L53.2467 168.784C53.1937 168.595 53.1009 168.417 52.9683 168.25C52.8395 168.083 52.6653 167.949 52.4456 167.847C52.2259 167.744 51.957 167.693 51.6388 167.693C51.2107 167.693 50.8509 167.786 50.5592 167.972C50.2714 168.157 50.1293 168.398 50.1331 168.693C50.1293 168.947 50.2221 169.153 50.4115 169.312C50.6047 169.472 50.9229 169.602 51.3661 169.705L52.8547 170.023C53.6804 170.201 54.2941 170.483 54.6956 170.869C55.1009 171.256 55.3054 171.761 55.3092 172.386C55.3054 172.936 55.1445 173.42 54.8263 173.841C54.5119 174.258 54.0744 174.583 53.5138 174.818C52.9532 175.053 52.3092 175.17 51.582 175.17C50.5138 175.17 49.6539 174.947 49.0024 174.5C48.3509 174.049 47.9626 173.422 47.8376 172.619L49.8433 172.426C49.9342 172.82 50.1274 173.117 50.4229 173.318C50.7183 173.519 51.1028 173.619 51.5763 173.619C52.0649 173.619 52.457 173.519 52.7524 173.318C53.0517 173.117 53.2013 172.869 53.2013 172.574C53.2013 172.324 53.1047 172.117 52.9115 171.955C52.7221 171.792 52.4267 171.667 52.0251 171.58L50.5365 171.267C49.6994 171.093 49.0801 170.799 48.6786 170.386C48.277 169.97 48.0782 169.443 48.082 168.807C48.0782 168.269 48.224 167.803 48.5195 167.409C48.8187 167.011 49.2335 166.705 49.7638 166.489C50.2979 166.269 50.9134 166.159 51.6104 166.159C52.6331 166.159 53.438 166.377 54.0251 166.812C54.6161 167.248 54.9816 167.837 55.1217 168.58ZM60.5632 166.273V167.864H55.5462V166.273H60.5632ZM56.7848 164.182H58.8416V172.375C58.8416 172.652 58.8833 172.864 58.9666 173.011C59.0537 173.155 59.1674 173.254 59.3075 173.307C59.4477 173.36 59.603 173.386 59.7734 173.386C59.9022 173.386 60.0196 173.377 60.1257 173.358C60.2356 173.339 60.3189 173.322 60.3757 173.307L60.7223 174.915C60.6125 174.953 60.4553 174.994 60.2507 175.04C60.05 175.085 59.8037 175.112 59.5121 175.119C58.9969 175.134 58.5329 175.057 58.12 174.886C57.7071 174.712 57.3795 174.443 57.1371 174.08C56.8984 173.716 56.781 173.261 56.7848 172.716V164.182ZM65.1964 175.17C64.3442 175.17 63.6055 174.983 62.9805 174.608C62.3555 174.233 61.8707 173.708 61.526 173.034C61.1851 172.36 61.0146 171.572 61.0146 170.67C61.0146 169.769 61.1851 168.979 61.526 168.301C61.8707 167.623 62.3555 167.097 62.9805 166.722C63.6055 166.347 64.3442 166.159 65.1964 166.159C66.0487 166.159 66.7874 166.347 67.4124 166.722C68.0374 167.097 68.5203 167.623 68.8612 168.301C69.2059 168.979 69.3783 169.769 69.3783 170.67C69.3783 171.572 69.2059 172.36 68.8612 173.034C68.5203 173.708 68.0374 174.233 67.4124 174.608C66.7874 174.983 66.0487 175.17 65.1964 175.17ZM65.2078 173.523C65.6699 173.523 66.0563 173.396 66.3669 173.142C66.6775 172.884 66.9086 172.54 67.0601 172.108C67.2154 171.676 67.293 171.195 67.293 170.665C67.293 170.131 67.2154 169.648 67.0601 169.216C66.9086 168.78 66.6775 168.434 66.3669 168.176C66.0563 167.919 65.6699 167.79 65.2078 167.79C64.7343 167.79 64.3404 167.919 64.026 168.176C63.7154 168.434 63.4824 168.78 63.3271 169.216C63.1756 169.648 63.0999 170.131 63.0999 170.665C63.0999 171.195 63.1756 171.676 63.3271 172.108C63.4824 172.54 63.7154 172.884 64.026 173.142C64.3404 173.396 64.7343 173.523 65.2078 173.523ZM70.324 175V166.273H72.2899V167.756H72.3922C72.574 167.256 72.8751 166.866 73.2956 166.585C73.7161 166.301 74.2179 166.159 74.8013 166.159C75.3922 166.159 75.8903 166.303 76.2956 166.591C76.7047 166.875 76.9926 167.263 77.1592 167.756H77.2501C77.4433 167.271 77.7691 166.884 78.2274 166.597C78.6895 166.305 79.2369 166.159 79.8695 166.159C80.6725 166.159 81.3278 166.413 81.8354 166.92C82.3429 167.428 82.5967 168.169 82.5967 169.142V175H80.5342V169.46C80.5342 168.919 80.3903 168.523 80.1024 168.273C79.8145 168.019 79.4623 167.892 79.0456 167.892C78.5494 167.892 78.1611 168.047 77.8808 168.358C77.6043 168.665 77.4661 169.064 77.4661 169.557V175H75.449V169.375C75.449 168.924 75.3126 168.564 75.0399 168.295C74.771 168.027 74.4187 167.892 73.9831 167.892C73.6876 167.892 73.4187 167.968 73.1763 168.119C72.9339 168.267 72.7407 168.477 72.5967 168.75C72.4528 169.019 72.3808 169.333 72.3808 169.693V175H70.324ZM87.143 175V163.364H91.5067C92.4006 163.364 93.1506 163.53 93.7567 163.864C94.3665 164.197 94.8268 164.655 95.1374 165.239C95.4518 165.818 95.609 166.477 95.609 167.216C95.609 167.962 95.4518 168.625 95.1374 169.205C94.823 169.784 94.359 170.241 93.7453 170.574C93.1317 170.903 92.376 171.068 91.4783 171.068H88.5862V169.335H91.1942C91.7169 169.335 92.1449 169.244 92.4783 169.062C92.8116 168.881 93.0578 168.631 93.2169 168.312C93.3798 167.994 93.4612 167.629 93.4612 167.216C93.4612 166.803 93.3798 166.439 93.2169 166.125C93.0578 165.811 92.8097 165.566 92.4726 165.392C92.1393 165.214 91.7093 165.125 91.1828 165.125H89.251V175H87.143ZM100.231 175.17C99.3786 175.17 98.6399 174.983 98.0149 174.608C97.3899 174.233 96.9051 173.708 96.5604 173.034C96.2195 172.36 96.049 171.572 96.049 170.67C96.049 169.769 96.2195 168.979 96.5604 168.301C96.9051 167.623 97.3899 167.097 98.0149 166.722C98.6399 166.347 99.3786 166.159 100.231 166.159C101.083 166.159 101.822 166.347 102.447 166.722C103.072 167.097 103.555 167.623 103.896 168.301C104.24 168.979 104.413 169.769 104.413 170.67C104.413 171.572 104.24 172.36 103.896 173.034C103.555 173.708 103.072 174.233 102.447 174.608C101.822 174.983 101.083 175.17 100.231 175.17ZM100.242 173.523C100.704 173.523 101.091 173.396 101.401 173.142C101.712 172.884 101.943 172.54 102.094 172.108C102.25 171.676 102.327 171.195 102.327 170.665C102.327 170.131 102.25 169.648 102.094 169.216C101.943 168.78 101.712 168.434 101.401 168.176C101.091 167.919 100.704 167.79 100.242 167.79C99.7687 167.79 99.3748 167.919 99.0604 168.176C98.7498 168.434 98.5168 168.78 98.3615 169.216C98.21 169.648 98.1342 170.131 98.1342 170.665C98.1342 171.195 98.21 171.676 98.3615 172.108C98.5168 172.54 98.7498 172.884 99.0604 173.142C99.3748 173.396 99.7687 173.523 100.242 173.523ZM105.358 175V166.273H107.353V167.727H107.444C107.603 167.223 107.875 166.835 108.262 166.562C108.652 166.286 109.097 166.148 109.597 166.148C109.711 166.148 109.838 166.153 109.978 166.165C110.122 166.172 110.241 166.186 110.336 166.205V168.097C110.249 168.066 110.11 168.04 109.921 168.017C109.735 167.991 109.555 167.977 109.381 167.977C109.006 167.977 108.669 168.059 108.37 168.222C108.074 168.381 107.841 168.602 107.671 168.886C107.5 169.17 107.415 169.498 107.415 169.869V175H105.358ZM115.729 166.273V167.864H110.712V166.273H115.729ZM111.95 164.182H114.007V172.375C114.007 172.652 114.049 172.864 114.132 173.011C114.219 173.155 114.333 173.254 114.473 173.307C114.613 173.36 114.769 173.386 114.939 173.386C115.068 173.386 115.185 173.377 115.291 173.358C115.401 173.339 115.485 173.322 115.541 173.307L115.888 174.915C115.778 174.953 115.621 174.994 115.416 175.04C115.216 175.085 114.969 175.112 114.678 175.119C114.163 175.134 113.699 175.057 113.286 174.886C112.873 174.712 112.545 174.443 112.303 174.08C112.064 173.716 111.947 173.261 111.95 172.716V164.182ZM121.069 166.273V167.864H115.91V166.273H121.069ZM117.2 175V165.449C117.2 164.862 117.321 164.373 117.564 163.983C117.81 163.593 118.14 163.301 118.552 163.108C118.965 162.915 119.424 162.818 119.927 162.818C120.283 162.818 120.6 162.847 120.876 162.903C121.153 162.96 121.357 163.011 121.49 163.057L121.081 164.648C120.994 164.621 120.884 164.595 120.751 164.568C120.619 164.538 120.471 164.523 120.308 164.523C119.926 164.523 119.655 164.616 119.496 164.801C119.34 164.983 119.263 165.244 119.263 165.585V175H117.2ZM125.359 175.17C124.507 175.17 123.768 174.983 123.143 174.608C122.518 174.233 122.033 173.708 121.688 173.034C121.348 172.36 121.177 171.572 121.177 170.67C121.177 169.769 121.348 168.979 121.688 168.301C122.033 167.623 122.518 167.097 123.143 166.722C123.768 166.347 124.507 166.159 125.359 166.159C126.211 166.159 126.95 166.347 127.575 166.722C128.2 167.097 128.683 167.623 129.024 168.301C129.368 168.979 129.541 169.769 129.541 170.67C129.541 171.572 129.368 172.36 129.024 173.034C128.683 173.708 128.2 174.233 127.575 174.608C126.95 174.983 126.211 175.17 125.359 175.17ZM125.37 173.523C125.832 173.523 126.219 173.396 126.529 173.142C126.84 172.884 127.071 172.54 127.223 172.108C127.378 171.676 127.456 171.195 127.456 170.665C127.456 170.131 127.378 169.648 127.223 169.216C127.071 168.78 126.84 168.434 126.529 168.176C126.219 167.919 125.832 167.79 125.37 167.79C124.897 167.79 124.503 167.919 124.188 168.176C123.878 168.434 123.645 168.78 123.49 169.216C123.338 169.648 123.262 170.131 123.262 170.665C123.262 171.195 123.338 171.676 123.49 172.108C123.645 172.54 123.878 172.884 124.188 173.142C124.503 173.396 124.897 173.523 125.37 173.523ZM132.543 163.364V175H130.487V163.364H132.543ZM133.858 175V166.273H135.915V175H133.858ZM134.892 165.034C134.567 165.034 134.286 164.926 134.052 164.71C133.817 164.491 133.699 164.227 133.699 163.92C133.699 163.61 133.817 163.347 134.052 163.131C134.286 162.911 134.567 162.801 134.892 162.801C135.222 162.801 135.502 162.911 135.733 163.131C135.968 163.347 136.086 163.61 136.086 163.92C136.086 164.227 135.968 164.491 135.733 164.71C135.502 164.926 135.222 165.034 134.892 165.034ZM141.037 175.17C140.185 175.17 139.446 174.983 138.821 174.608C138.196 174.233 137.711 173.708 137.367 173.034C137.026 172.36 136.855 171.572 136.855 170.67C136.855 169.769 137.026 168.979 137.367 168.301C137.711 167.623 138.196 167.097 138.821 166.722C139.446 166.347 140.185 166.159 141.037 166.159C141.889 166.159 142.628 166.347 143.253 166.722C143.878 167.097 144.361 167.623 144.702 168.301C145.047 168.979 145.219 169.769 145.219 170.67C145.219 171.572 145.047 172.36 144.702 173.034C144.361 173.708 143.878 174.233 143.253 174.608C142.628 174.983 141.889 175.17 141.037 175.17ZM141.048 173.523C141.511 173.523 141.897 173.396 142.208 173.142C142.518 172.884 142.749 172.54 142.901 172.108C143.056 171.676 143.134 171.195 143.134 170.665C143.134 170.131 143.056 169.648 142.901 169.216C142.749 168.78 142.518 168.434 142.208 168.176C141.897 167.919 141.511 167.79 141.048 167.79C140.575 167.79 140.181 167.919 139.867 168.176C139.556 168.434 139.323 168.78 139.168 169.216C139.016 169.648 138.94 170.131 138.94 170.665C138.94 171.195 139.016 171.676 139.168 172.108C139.323 172.54 139.556 172.884 139.867 173.142C140.181 173.396 140.575 173.523 141.048 173.523ZM151.873 175L148.589 163.364H150.856L152.953 171.915H153.061L155.299 163.364H157.362L159.606 171.92H159.708L161.805 163.364H164.072L160.788 175H158.708L156.379 166.835H156.288L153.953 175H151.873ZM167.616 175.17C166.741 175.17 165.985 174.989 165.349 174.625C164.716 174.258 164.229 173.739 163.888 173.068C163.548 172.394 163.377 171.6 163.377 170.688C163.377 169.79 163.548 169.002 163.888 168.324C164.233 167.642 164.714 167.112 165.332 166.733C165.949 166.35 166.674 166.159 167.508 166.159C168.046 166.159 168.553 166.246 169.031 166.42C169.512 166.591 169.936 166.856 170.303 167.216C170.674 167.576 170.966 168.034 171.178 168.591C171.39 169.144 171.496 169.803 171.496 170.568V171.199H164.343V169.812H169.525C169.521 169.419 169.436 169.068 169.269 168.761C169.103 168.451 168.87 168.206 168.57 168.028C168.275 167.85 167.93 167.761 167.536 167.761C167.116 167.761 166.746 167.864 166.428 168.068C166.11 168.269 165.862 168.534 165.684 168.864C165.51 169.189 165.421 169.547 165.417 169.938V171.148C165.417 171.655 165.51 172.091 165.695 172.455C165.881 172.814 166.14 173.091 166.474 173.284C166.807 173.473 167.197 173.568 167.644 173.568C167.943 173.568 168.214 173.527 168.457 173.443C168.699 173.356 168.909 173.229 169.087 173.062C169.265 172.896 169.4 172.689 169.491 172.443L171.411 172.659C171.29 173.167 171.059 173.61 170.718 173.989C170.381 174.364 169.949 174.655 169.423 174.864C168.896 175.068 168.294 175.17 167.616 175.17ZM172.527 175V163.364H174.584V167.716H174.669C174.776 167.504 174.925 167.278 175.118 167.04C175.312 166.797 175.573 166.591 175.902 166.42C176.232 166.246 176.652 166.159 177.164 166.159C177.838 166.159 178.446 166.331 178.988 166.676C179.533 167.017 179.965 167.523 180.283 168.193C180.605 168.86 180.766 169.678 180.766 170.648C180.766 171.606 180.609 172.42 180.294 173.091C179.98 173.761 179.552 174.273 179.01 174.625C178.469 174.977 177.855 175.153 177.169 175.153C176.669 175.153 176.255 175.07 175.925 174.903C175.596 174.737 175.33 174.536 175.13 174.301C174.933 174.062 174.779 173.837 174.669 173.625H174.55V175H172.527ZM174.544 170.636C174.544 171.201 174.624 171.695 174.783 172.119C174.946 172.544 175.179 172.875 175.482 173.114C175.789 173.348 176.16 173.466 176.596 173.466C177.05 173.466 177.431 173.345 177.738 173.102C178.044 172.856 178.276 172.521 178.431 172.097C178.59 171.669 178.669 171.182 178.669 170.636C178.669 170.095 178.592 169.614 178.437 169.193C178.281 168.773 178.05 168.443 177.743 168.205C177.437 167.966 177.054 167.847 176.596 167.847C176.156 167.847 175.783 167.962 175.476 168.193C175.169 168.424 174.937 168.748 174.777 169.165C174.622 169.581 174.544 170.072 174.544 170.636ZM188.612 168.58L186.737 168.784C186.684 168.595 186.592 168.417 186.459 168.25C186.33 168.083 186.156 167.949 185.936 167.847C185.717 167.744 185.448 167.693 185.129 167.693C184.701 167.693 184.342 167.786 184.05 167.972C183.762 168.157 183.62 168.398 183.624 168.693C183.62 168.947 183.713 169.153 183.902 169.312C184.095 169.472 184.413 169.602 184.857 169.705L186.345 170.023C187.171 170.201 187.785 170.483 188.186 170.869C188.592 171.256 188.796 171.761 188.8 172.386C188.796 172.936 188.635 173.42 188.317 173.841C188.003 174.258 187.565 174.583 187.004 174.818C186.444 175.053 185.8 175.17 185.073 175.17C184.004 175.17 183.145 174.947 182.493 174.5C181.842 174.049 181.453 173.422 181.328 172.619L183.334 172.426C183.425 172.82 183.618 173.117 183.913 173.318C184.209 173.519 184.593 173.619 185.067 173.619C185.556 173.619 185.948 173.519 186.243 173.318C186.542 173.117 186.692 172.869 186.692 172.574C186.692 172.324 186.595 172.117 186.402 171.955C186.213 171.792 185.917 171.667 185.516 171.58L184.027 171.267C183.19 171.093 182.571 170.799 182.169 170.386C181.768 169.97 181.569 169.443 181.573 168.807C181.569 168.269 181.715 167.803 182.01 167.409C182.309 167.011 182.724 166.705 183.254 166.489C183.788 166.269 184.404 166.159 185.101 166.159C186.124 166.159 186.929 166.377 187.516 166.812C188.107 167.248 188.472 167.837 188.612 168.58ZM189.696 175V166.273H191.753V175H189.696ZM190.73 165.034C190.404 165.034 190.124 164.926 189.889 164.71C189.654 164.491 189.537 164.227 189.537 163.92C189.537 163.61 189.654 163.347 189.889 163.131C190.124 162.911 190.404 162.801 190.73 162.801C191.06 162.801 191.34 162.911 191.571 163.131C191.806 163.347 191.923 163.61 191.923 163.92C191.923 164.227 191.806 164.491 191.571 164.71C191.34 164.926 191.06 165.034 190.73 165.034ZM197.426 166.273V167.864H192.409V166.273H197.426ZM193.647 164.182H195.704V172.375C195.704 172.652 195.746 172.864 195.829 173.011C195.916 173.155 196.03 173.254 196.17 173.307C196.31 173.36 196.465 173.386 196.636 173.386C196.765 173.386 196.882 173.377 196.988 173.358C197.098 173.339 197.181 173.322 197.238 173.307L197.585 174.915C197.475 174.953 197.318 174.994 197.113 175.04C196.912 175.085 196.666 175.112 196.375 175.119C195.859 175.134 195.395 175.057 194.983 174.886C194.57 174.712 194.242 174.443 194 174.08C193.761 173.716 193.644 173.261 193.647 172.716V164.182ZM202.116 175.17C201.241 175.17 200.485 174.989 199.849 174.625C199.216 174.258 198.729 173.739 198.388 173.068C198.048 172.394 197.877 171.6 197.877 170.688C197.877 169.79 198.048 169.002 198.388 168.324C198.733 167.642 199.214 167.112 199.832 166.733C200.449 166.35 201.174 166.159 202.008 166.159C202.546 166.159 203.053 166.246 203.531 166.42C204.012 166.591 204.436 166.856 204.803 167.216C205.174 167.576 205.466 168.034 205.678 168.591C205.89 169.144 205.996 169.803 205.996 170.568V171.199H198.843V169.812H204.025C204.021 169.419 203.936 169.068 203.769 168.761C203.603 168.451 203.37 168.206 203.07 168.028C202.775 167.85 202.43 167.761 202.036 167.761C201.616 167.761 201.246 167.864 200.928 168.068C200.61 168.269 200.362 168.534 200.184 168.864C200.01 169.189 199.921 169.547 199.917 169.938V171.148C199.917 171.655 200.01 172.091 200.195 172.455C200.381 172.814 200.64 173.091 200.974 173.284C201.307 173.473 201.697 173.568 202.144 173.568C202.443 173.568 202.714 173.527 202.957 173.443C203.199 173.356 203.409 173.229 203.587 173.062C203.765 172.896 203.9 172.689 203.991 172.443L205.911 172.659C205.79 173.167 205.559 173.61 205.218 173.989C204.881 174.364 204.449 174.655 203.923 174.864C203.396 175.068 202.794 175.17 202.116 175.17ZM213.583 175.17C212.787 175.17 212.103 175.027 211.531 174.739C210.959 174.451 210.518 174.062 210.208 173.574C209.901 173.081 209.747 172.527 209.747 171.909C209.747 171.443 209.842 171.03 210.031 170.67C210.225 170.311 210.49 169.977 210.827 169.67C211.168 169.364 211.562 169.059 212.009 168.756L214.071 167.352C214.374 167.155 214.603 166.947 214.759 166.727C214.918 166.508 214.997 166.25 214.997 165.955C214.997 165.705 214.891 165.468 214.679 165.244C214.471 165.021 214.183 164.909 213.815 164.909C213.569 164.909 213.351 164.968 213.162 165.085C212.976 165.199 212.831 165.348 212.725 165.534C212.622 165.72 212.571 165.917 212.571 166.125C212.571 166.379 212.641 166.636 212.781 166.898C212.925 167.159 213.111 167.43 213.338 167.71C213.569 167.991 213.815 168.288 214.077 168.602L219.537 175H217.31L212.776 169.807C212.439 169.413 212.113 169.025 211.798 168.642C211.488 168.259 211.232 167.862 211.031 167.449C210.834 167.032 210.736 166.581 210.736 166.097C210.736 165.547 210.863 165.057 211.117 164.625C211.37 164.189 211.725 163.847 212.179 163.597C212.637 163.347 213.173 163.222 213.787 163.222C214.401 163.222 214.927 163.343 215.367 163.585C215.806 163.828 216.145 164.15 216.384 164.551C216.622 164.953 216.742 165.39 216.742 165.864C216.742 166.413 216.605 166.905 216.333 167.341C216.06 167.773 215.681 168.165 215.196 168.517L212.844 170.239C212.458 170.519 212.181 170.803 212.014 171.091C211.848 171.375 211.764 171.617 211.764 171.818C211.764 172.125 211.842 172.403 211.997 172.653C212.153 172.903 212.37 173.104 212.651 173.256C212.935 173.403 213.266 173.477 213.645 173.477C214.062 173.477 214.473 173.384 214.878 173.199C215.283 173.009 215.653 172.741 215.986 172.392C216.319 172.044 216.584 171.627 216.781 171.142C216.978 170.653 217.077 170.112 217.077 169.517H218.844C218.844 170.252 218.762 170.892 218.6 171.438C218.437 171.979 218.226 172.438 217.969 172.812C217.711 173.184 217.439 173.481 217.151 173.705C217.06 173.769 216.973 173.833 216.889 173.898C216.806 173.962 216.719 174.027 216.628 174.091C216.219 174.462 215.74 174.735 215.19 174.909C214.645 175.083 214.109 175.17 213.583 175.17ZM29.1892 186.29H27.0642C27.0036 185.941 26.8919 185.633 26.729 185.364C26.5661 185.091 26.3635 184.86 26.121 184.67C25.8786 184.481 25.6021 184.339 25.2915 184.244C24.9847 184.146 24.6532 184.097 24.2972 184.097C23.6646 184.097 23.104 184.256 22.6153 184.574C22.1267 184.888 21.7441 185.35 21.4676 185.96C21.1911 186.566 21.0528 187.307 21.0528 188.182C21.0528 189.072 21.1911 189.822 21.4676 190.432C21.7479 191.038 22.1305 191.496 22.6153 191.807C23.104 192.114 23.6627 192.267 24.2915 192.267C24.64 192.267 24.9657 192.222 25.2688 192.131C25.5756 192.036 25.8502 191.898 26.0926 191.716C26.3388 191.534 26.5453 191.311 26.7119 191.045C26.8824 190.78 26.9998 190.477 27.0642 190.136L29.1892 190.148C29.1097 190.701 28.9373 191.22 28.6722 191.705C28.4108 192.189 28.068 192.617 27.6438 192.989C27.2195 193.356 26.7233 193.644 26.1551 193.852C25.5869 194.057 24.9563 194.159 24.2631 194.159C23.2403 194.159 22.3275 193.922 21.5244 193.449C20.7214 192.975 20.0888 192.292 19.6267 191.398C19.1646 190.504 18.9335 189.432 18.9335 188.182C18.9335 186.928 19.1665 185.856 19.6324 184.966C20.0983 184.072 20.7328 183.388 21.5358 182.915C22.3388 182.441 23.2479 182.205 24.2631 182.205C24.9108 182.205 25.5131 182.295 26.0699 182.477C26.6267 182.659 27.1229 182.926 27.5585 183.278C27.9941 183.627 28.3521 184.055 28.6324 184.562C28.9165 185.066 29.1021 185.642 29.1892 186.29ZM35.7912 190.33V185.273H37.848V194H35.8537V192.449H35.7628C35.5658 192.937 35.242 193.337 34.7912 193.648C34.3442 193.958 33.7931 194.114 33.1378 194.114C32.5658 194.114 32.0601 193.987 31.6207 193.733C31.1851 193.475 30.8442 193.102 30.598 192.614C30.3518 192.121 30.2287 191.527 30.2287 190.83V185.273H32.2855V190.511C32.2855 191.064 32.437 191.504 32.7401 191.83C33.0431 192.155 33.4408 192.318 33.9332 192.318C34.2363 192.318 34.5298 192.244 34.8139 192.097C35.098 191.949 35.331 191.729 35.5128 191.438C35.6984 191.142 35.7912 190.773 35.7912 190.33ZM39.1631 194V185.273H41.1574V186.727H41.2483C41.4074 186.223 41.6801 185.835 42.0665 185.562C42.4566 185.286 42.9017 185.148 43.4017 185.148C43.5153 185.148 43.6422 185.153 43.7824 185.165C43.9263 185.172 44.0456 185.186 44.1403 185.205V187.097C44.0532 187.066 43.915 187.04 43.7256 187.017C43.54 186.991 43.36 186.977 43.1858 186.977C42.8108 186.977 42.4737 187.059 42.1744 187.222C41.879 187.381 41.646 187.602 41.4756 187.886C41.3051 188.17 41.2199 188.498 41.2199 188.869V194H39.1631ZM47.0619 194.176C46.5089 194.176 46.0108 194.078 45.5676 193.881C45.1282 193.68 44.7797 193.384 44.5222 192.994C44.2684 192.604 44.1415 192.123 44.1415 191.551C44.1415 191.059 44.2324 190.652 44.4142 190.33C44.596 190.008 44.8441 189.75 45.1585 189.557C45.4729 189.364 45.8271 189.218 46.221 189.119C46.6188 189.017 47.0297 188.943 47.454 188.898C47.9653 188.845 48.3801 188.797 48.6983 188.756C49.0165 188.71 49.2475 188.642 49.3915 188.551C49.5392 188.456 49.6131 188.311 49.6131 188.114V188.08C49.6131 187.652 49.4862 187.32 49.2324 187.085C48.9786 186.85 48.6131 186.733 48.1358 186.733C47.632 186.733 47.2324 186.843 46.9369 187.062C46.6453 187.282 46.4483 187.542 46.346 187.841L44.4256 187.568C44.5771 187.038 44.8271 186.595 45.1756 186.239C45.5241 185.879 45.9502 185.61 46.454 185.432C46.9578 185.25 47.5146 185.159 48.1244 185.159C48.5449 185.159 48.9635 185.208 49.3801 185.307C49.7968 185.405 50.1775 185.568 50.5222 185.795C50.8669 186.019 51.1434 186.324 51.3517 186.71C51.5638 187.097 51.6699 187.58 51.6699 188.159V194H49.6926V192.801H49.6244C49.4994 193.044 49.3233 193.271 49.096 193.483C48.8725 193.691 48.5903 193.86 48.2494 193.989C47.9123 194.114 47.5165 194.176 47.0619 194.176ZM47.596 192.665C48.0089 192.665 48.3669 192.583 48.6699 192.42C48.9729 192.254 49.2059 192.034 49.3688 191.761C49.5354 191.489 49.6188 191.191 49.6188 190.869V189.841C49.5544 189.894 49.4445 189.943 49.2892 189.989C49.1377 190.034 48.9672 190.074 48.7778 190.108C48.5885 190.142 48.401 190.172 48.2153 190.199C48.0297 190.225 47.8688 190.248 47.7324 190.267C47.4256 190.309 47.151 190.377 46.9085 190.472C46.6661 190.566 46.4748 190.699 46.3347 190.869C46.1945 191.036 46.1244 191.252 46.1244 191.517C46.1244 191.896 46.2627 192.182 46.5392 192.375C46.8157 192.568 47.168 192.665 47.596 192.665ZM57.296 185.273V186.864H52.279V185.273H57.296ZM53.5176 183.182H55.5744V191.375C55.5744 191.652 55.6161 191.864 55.6994 192.011C55.7866 192.155 55.9002 192.254 56.0403 192.307C56.1805 192.36 56.3358 192.386 56.5063 192.386C56.635 192.386 56.7525 192.377 56.8585 192.358C56.9684 192.339 57.0517 192.322 57.1085 192.307L57.4551 193.915C57.3453 193.953 57.1881 193.994 56.9835 194.04C56.7828 194.085 56.5366 194.112 56.2449 194.119C55.7297 194.134 55.2657 194.057 54.8528 193.886C54.44 193.712 54.1123 193.443 53.8699 193.08C53.6313 192.716 53.5138 192.261 53.5176 191.716V183.182ZM61.9861 194.17C61.1111 194.17 60.3554 193.989 59.719 193.625C59.0865 193.258 58.5997 192.739 58.2588 192.068C57.9179 191.394 57.7474 190.6 57.7474 189.688C57.7474 188.79 57.9179 188.002 58.2588 187.324C58.6035 186.642 59.0846 186.112 59.702 185.733C60.3194 185.35 61.0448 185.159 61.8781 185.159C62.416 185.159 62.9236 185.246 63.4009 185.42C63.8819 185.591 64.3062 185.856 64.6736 186.216C65.0448 186.576 65.3365 187.034 65.5486 187.591C65.7607 188.144 65.8668 188.803 65.8668 189.568V190.199H58.7134V188.812H63.8952C63.8914 188.419 63.8062 188.068 63.6395 187.761C63.4728 187.451 63.2399 187.206 62.9406 187.028C62.6452 186.85 62.3005 186.761 61.9065 186.761C61.4861 186.761 61.1168 186.864 60.7986 187.068C60.4804 187.269 60.2323 187.534 60.0543 187.864C59.88 188.189 59.791 188.547 59.7872 188.938V190.148C59.7872 190.655 59.88 191.091 60.0656 191.455C60.2512 191.814 60.5107 192.091 60.844 192.284C61.1774 192.473 61.5675 192.568 62.0145 192.568C62.3137 192.568 62.5846 192.527 62.827 192.443C63.0694 192.356 63.2796 192.229 63.4577 192.062C63.6357 191.896 63.7702 191.689 63.8611 191.443L65.7815 191.659C65.6603 192.167 65.4293 192.61 65.0884 192.989C64.7512 193.364 64.3194 193.655 63.7929 193.864C63.2664 194.068 62.6641 194.17 61.9861 194.17ZM70.0455 194.153C69.3599 194.153 68.7462 193.977 68.2045 193.625C67.6629 193.273 67.2349 192.761 66.9205 192.091C66.6061 191.42 66.4489 190.606 66.4489 189.648C66.4489 188.678 66.608 187.86 66.9261 187.193C67.2481 186.523 67.6818 186.017 68.2273 185.676C68.7727 185.331 69.3807 185.159 70.0511 185.159C70.5625 185.159 70.983 185.246 71.3125 185.42C71.642 185.591 71.9034 185.797 72.0966 186.04C72.2898 186.278 72.4394 186.504 72.5455 186.716H72.6307V182.364H74.6932V194H72.6705V192.625H72.5455C72.4394 192.837 72.286 193.062 72.0852 193.301C71.8845 193.536 71.6193 193.737 71.2898 193.903C70.9602 194.07 70.5455 194.153 70.0455 194.153ZM70.6193 192.466C71.0549 192.466 71.4261 192.348 71.733 192.114C72.0398 191.875 72.2727 191.544 72.4318 191.119C72.5909 190.695 72.6705 190.201 72.6705 189.636C72.6705 189.072 72.5909 188.581 72.4318 188.165C72.2765 187.748 72.0455 187.424 71.7386 187.193C71.4356 186.962 71.0625 186.847 70.6193 186.847C70.161 186.847 69.7784 186.966 69.4716 187.205C69.1648 187.443 68.9337 187.773 68.7784 188.193C68.6231 188.614 68.5455 189.095 68.5455 189.636C68.5455 190.182 68.6231 190.669 68.7784 191.097C68.9375 191.521 69.1705 191.856 69.4773 192.102C69.7879 192.345 70.1686 192.466 70.6193 192.466ZM85.6685 185.562C85.6154 185.066 85.392 184.68 84.998 184.403C84.6079 184.127 84.1003 183.989 83.4753 183.989C83.0359 183.989 82.659 184.055 82.3446 184.188C82.0302 184.32 81.7897 184.5 81.623 184.727C81.4563 184.955 81.3711 185.214 81.3673 185.506C81.3673 185.748 81.4223 185.958 81.5321 186.136C81.6457 186.314 81.7991 186.466 81.9923 186.591C82.1855 186.712 82.3995 186.814 82.6344 186.898C82.8692 186.981 83.106 187.051 83.3446 187.108L84.4355 187.381C84.8749 187.483 85.2973 187.621 85.7026 187.795C86.1116 187.97 86.4772 188.189 86.7991 188.455C87.1249 188.72 87.3825 189.04 87.5719 189.415C87.7613 189.79 87.856 190.229 87.856 190.733C87.856 191.415 87.6817 192.015 87.3332 192.534C86.9848 193.049 86.481 193.453 85.8219 193.744C85.1666 194.032 84.373 194.176 83.4412 194.176C82.5359 194.176 81.7499 194.036 81.0832 193.756C80.4204 193.475 79.9014 193.066 79.5264 192.528C79.1552 191.991 78.9545 191.335 78.9241 190.562H80.998C81.0283 190.968 81.1533 191.305 81.373 191.574C81.5927 191.843 81.8787 192.044 82.231 192.176C82.587 192.309 82.9848 192.375 83.4241 192.375C83.8825 192.375 84.284 192.307 84.6287 192.17C84.9772 192.03 85.2499 191.837 85.4469 191.591C85.6438 191.341 85.7442 191.049 85.748 190.716C85.7442 190.413 85.6552 190.163 85.481 189.966C85.3067 189.765 85.0624 189.598 84.748 189.466C84.4374 189.33 84.0738 189.208 83.6571 189.102L82.3332 188.761C81.3749 188.515 80.6173 188.142 80.0605 187.642C79.5075 187.138 79.231 186.47 79.231 185.636C79.231 184.951 79.4166 184.35 79.7878 183.835C80.1628 183.32 80.6723 182.92 81.3162 182.636C81.9601 182.348 82.6893 182.205 83.5037 182.205C84.3295 182.205 85.0529 182.348 85.6741 182.636C86.2991 182.92 86.7897 183.316 87.1457 183.824C87.5018 184.328 87.6855 184.907 87.6969 185.562H85.6685ZM92.6511 194.17C91.7989 194.17 91.0602 193.983 90.4352 193.608C89.8102 193.233 89.3254 192.708 88.9807 192.034C88.6398 191.36 88.4693 190.572 88.4693 189.67C88.4693 188.769 88.6398 187.979 88.9807 187.301C89.3254 186.623 89.8102 186.097 90.4352 185.722C91.0602 185.347 91.7989 185.159 92.6511 185.159C93.5034 185.159 94.2421 185.347 94.8671 185.722C95.4921 186.097 95.975 186.623 96.3159 187.301C96.6606 187.979 96.833 188.769 96.833 189.67C96.833 190.572 96.6606 191.36 96.3159 192.034C95.975 192.708 95.4921 193.233 94.8671 193.608C94.2421 193.983 93.5034 194.17 92.6511 194.17ZM92.6625 192.523C93.1246 192.523 93.511 192.396 93.8216 192.142C94.1322 191.884 94.3633 191.54 94.5148 191.108C94.6701 190.676 94.7477 190.195 94.7477 189.665C94.7477 189.131 94.6701 188.648 94.5148 188.216C94.3633 187.78 94.1322 187.434 93.8216 187.176C93.511 186.919 93.1246 186.79 92.6625 186.79C92.189 186.79 91.7951 186.919 91.4807 187.176C91.1701 187.434 90.9371 187.78 90.7818 188.216C90.6303 188.648 90.5546 189.131 90.5546 189.665C90.5546 190.195 90.6303 190.676 90.7818 191.108C90.9371 191.54 91.1701 191.884 91.4807 192.142C91.7951 192.396 92.189 192.523 92.6625 192.523ZM101.586 194.17C100.714 194.17 99.9662 193.979 99.3412 193.597C98.72 193.214 98.2408 192.686 97.9037 192.011C97.5704 191.333 97.4037 190.553 97.4037 189.67C97.4037 188.784 97.5742 188.002 97.9151 187.324C98.256 186.642 98.737 186.112 99.3582 185.733C99.9832 185.35 100.722 185.159 101.574 185.159C102.282 185.159 102.909 185.29 103.455 185.551C104.004 185.809 104.442 186.174 104.767 186.648C105.093 187.117 105.279 187.667 105.324 188.295H103.358C103.279 187.875 103.089 187.525 102.79 187.244C102.495 186.96 102.099 186.818 101.603 186.818C101.182 186.818 100.813 186.932 100.495 187.159C100.176 187.383 99.9283 187.705 99.7503 188.125C99.576 188.545 99.4889 189.049 99.4889 189.636C99.4889 190.231 99.576 190.742 99.7503 191.17C99.9245 191.595 100.169 191.922 100.483 192.153C100.801 192.381 101.175 192.494 101.603 192.494C101.906 192.494 102.176 192.437 102.415 192.324C102.657 192.206 102.86 192.038 103.023 191.818C103.186 191.598 103.298 191.331 103.358 191.017H105.324C105.275 191.634 105.093 192.182 104.779 192.659C104.464 193.133 104.036 193.504 103.495 193.773C102.953 194.038 102.317 194.17 101.586 194.17ZM106.213 194V185.273H108.27V194H106.213ZM107.247 184.034C106.921 184.034 106.641 183.926 106.406 183.71C106.171 183.491 106.054 183.227 106.054 182.92C106.054 182.61 106.171 182.347 106.406 182.131C106.641 181.911 106.921 181.801 107.247 181.801C107.577 181.801 107.857 181.911 108.088 182.131C108.323 182.347 108.44 182.61 108.44 182.92C108.44 183.227 108.323 183.491 108.088 183.71C107.857 183.926 107.577 184.034 107.247 184.034ZM112.096 194.176C111.543 194.176 111.045 194.078 110.602 193.881C110.163 193.68 109.814 193.384 109.557 192.994C109.303 192.604 109.176 192.123 109.176 191.551C109.176 191.059 109.267 190.652 109.449 190.33C109.63 190.008 109.879 189.75 110.193 189.557C110.507 189.364 110.861 189.218 111.255 189.119C111.653 189.017 112.064 188.943 112.488 188.898C113 188.845 113.414 188.797 113.733 188.756C114.051 188.71 114.282 188.642 114.426 188.551C114.574 188.456 114.647 188.311 114.647 188.114V188.08C114.647 187.652 114.521 187.32 114.267 187.085C114.013 186.85 113.647 186.733 113.17 186.733C112.666 186.733 112.267 186.843 111.971 187.062C111.68 187.282 111.483 187.542 111.38 187.841L109.46 187.568C109.611 187.038 109.861 186.595 110.21 186.239C110.558 185.879 110.985 185.61 111.488 185.432C111.992 185.25 112.549 185.159 113.159 185.159C113.579 185.159 113.998 185.208 114.414 185.307C114.831 185.405 115.212 185.568 115.557 185.795C115.901 186.019 116.178 186.324 116.386 186.71C116.598 187.097 116.704 187.58 116.704 188.159V194H114.727V192.801H114.659C114.534 193.044 114.358 193.271 114.13 193.483C113.907 193.691 113.625 193.86 113.284 193.989C112.947 194.114 112.551 194.176 112.096 194.176ZM112.63 192.665C113.043 192.665 113.401 192.583 113.704 192.42C114.007 192.254 114.24 192.034 114.403 191.761C114.57 191.489 114.653 191.191 114.653 190.869V189.841C114.589 189.894 114.479 189.943 114.324 189.989C114.172 190.034 114.002 190.074 113.812 190.108C113.623 190.142 113.435 190.172 113.25 190.199C113.064 190.225 112.903 190.248 112.767 190.267C112.46 190.309 112.185 190.377 111.943 190.472C111.7 190.566 111.509 190.699 111.369 190.869C111.229 191.036 111.159 191.252 111.159 191.517C111.159 191.896 111.297 192.182 111.574 192.375C111.85 192.568 112.202 192.665 112.63 192.665ZM120.029 182.364V194H117.972V182.364H120.029ZM124.604 182.364H127.184L130.638 190.795H130.774L134.229 182.364H136.809V194H134.786V186.006H134.678L131.462 193.966H129.951L126.735 185.989H126.627V194H124.604V182.364ZM142.077 194.17C141.202 194.17 140.446 193.989 139.81 193.625C139.177 193.258 138.69 192.739 138.349 192.068C138.009 191.394 137.838 190.6 137.838 189.688C137.838 188.79 138.009 188.002 138.349 187.324C138.694 186.642 139.175 186.112 139.793 185.733C140.41 185.35 141.135 185.159 141.969 185.159C142.507 185.159 143.014 185.246 143.491 185.42C143.973 185.591 144.397 185.856 144.764 186.216C145.135 186.576 145.427 187.034 145.639 187.591C145.851 188.144 145.957 188.803 145.957 189.568V190.199H138.804V188.812H143.986C143.982 188.419 143.897 188.068 143.73 187.761C143.563 187.451 143.33 187.206 143.031 187.028C142.736 186.85 142.391 186.761 141.997 186.761C141.577 186.761 141.207 186.864 140.889 187.068C140.571 187.269 140.323 187.534 140.145 187.864C139.971 188.189 139.882 188.547 139.878 188.938V190.148C139.878 190.655 139.971 191.091 140.156 191.455C140.342 191.814 140.601 192.091 140.935 192.284C141.268 192.473 141.658 192.568 142.105 192.568C142.404 192.568 142.675 192.527 142.918 192.443C143.16 192.356 143.37 192.229 143.548 192.062C143.726 191.896 143.861 191.689 143.952 191.443L145.872 191.659C145.751 192.167 145.52 192.61 145.179 192.989C144.842 193.364 144.41 193.655 143.884 193.864C143.357 194.068 142.755 194.17 142.077 194.17ZM150.136 194.153C149.45 194.153 148.837 193.977 148.295 193.625C147.754 193.273 147.325 192.761 147.011 192.091C146.697 191.42 146.539 190.606 146.539 189.648C146.539 188.678 146.699 187.86 147.017 187.193C147.339 186.523 147.772 186.017 148.318 185.676C148.863 185.331 149.471 185.159 150.142 185.159C150.653 185.159 151.074 185.246 151.403 185.42C151.733 185.591 151.994 185.797 152.187 186.04C152.38 186.278 152.53 186.504 152.636 186.716H152.721V182.364H154.784V194H152.761V192.625H152.636C152.53 192.837 152.377 193.062 152.176 193.301C151.975 193.536 151.71 193.737 151.38 193.903C151.051 194.07 150.636 194.153 150.136 194.153ZM150.71 192.466C151.146 192.466 151.517 192.348 151.824 192.114C152.13 191.875 152.363 191.544 152.522 191.119C152.682 190.695 152.761 190.201 152.761 189.636C152.761 189.072 152.682 188.581 152.522 188.165C152.367 187.748 152.136 187.424 151.829 187.193C151.526 186.962 151.153 186.847 150.71 186.847C150.252 186.847 149.869 186.966 149.562 187.205C149.255 187.443 149.024 187.773 148.869 188.193C148.714 188.614 148.636 189.095 148.636 189.636C148.636 190.182 148.714 190.669 148.869 191.097C149.028 191.521 149.261 191.856 149.568 192.102C149.879 192.345 150.259 192.466 150.71 192.466ZM156.176 194V185.273H158.232V194H156.176ZM157.21 184.034C156.884 184.034 156.604 183.926 156.369 183.71C156.134 183.491 156.016 183.227 156.016 182.92C156.016 182.61 156.134 182.347 156.369 182.131C156.604 181.911 156.884 181.801 157.21 181.801C157.539 181.801 157.82 181.911 158.051 182.131C158.285 182.347 158.403 182.61 158.403 182.92C158.403 183.227 158.285 183.491 158.051 183.71C157.82 183.926 157.539 184.034 157.21 184.034ZM162.059 194.176C161.506 194.176 161.008 194.078 160.564 193.881C160.125 193.68 159.777 193.384 159.519 192.994C159.265 192.604 159.138 192.123 159.138 191.551C159.138 191.059 159.229 190.652 159.411 190.33C159.593 190.008 159.841 189.75 160.155 189.557C160.47 189.364 160.824 189.218 161.218 189.119C161.616 189.017 162.027 188.943 162.451 188.898C162.962 188.845 163.377 188.797 163.695 188.756C164.013 188.71 164.244 188.642 164.388 188.551C164.536 188.456 164.61 188.311 164.61 188.114V188.08C164.61 187.652 164.483 187.32 164.229 187.085C163.975 186.85 163.61 186.733 163.133 186.733C162.629 186.733 162.229 186.843 161.934 187.062C161.642 187.282 161.445 187.542 161.343 187.841L159.422 187.568C159.574 187.038 159.824 186.595 160.172 186.239C160.521 185.879 160.947 185.61 161.451 185.432C161.955 185.25 162.511 185.159 163.121 185.159C163.542 185.159 163.96 185.208 164.377 185.307C164.794 185.405 165.174 185.568 165.519 185.795C165.864 186.019 166.14 186.324 166.349 186.71C166.561 187.097 166.667 187.58 166.667 188.159V194H164.689V192.801H164.621C164.496 193.044 164.32 193.271 164.093 193.483C163.869 193.691 163.587 193.86 163.246 193.989C162.909 194.114 162.513 194.176 162.059 194.176ZM162.593 192.665C163.006 192.665 163.364 192.583 163.667 192.42C163.97 192.254 164.203 192.034 164.366 191.761C164.532 191.489 164.616 191.191 164.616 190.869V189.841C164.551 189.894 164.441 189.943 164.286 189.989C164.135 190.034 163.964 190.074 163.775 190.108C163.585 190.142 163.398 190.172 163.212 190.199C163.027 190.225 162.866 190.248 162.729 190.267C162.422 190.309 162.148 190.377 161.905 190.472C161.663 190.566 161.472 190.699 161.332 190.869C161.191 191.036 161.121 191.252 161.121 191.517C161.121 191.896 161.26 192.182 161.536 192.375C161.813 192.568 162.165 192.665 162.593 192.665ZM181.155 186.29H179.03C178.969 185.941 178.857 185.633 178.695 185.364C178.532 185.091 178.329 184.86 178.087 184.67C177.844 184.481 177.568 184.339 177.257 184.244C176.95 184.146 176.619 184.097 176.263 184.097C175.63 184.097 175.07 184.256 174.581 184.574C174.092 184.888 173.71 185.35 173.433 185.96C173.157 186.566 173.018 187.307 173.018 188.182C173.018 189.072 173.157 189.822 173.433 190.432C173.714 191.038 174.096 191.496 174.581 191.807C175.07 192.114 175.628 192.267 176.257 192.267C176.606 192.267 176.931 192.222 177.234 192.131C177.541 192.036 177.816 191.898 178.058 191.716C178.304 191.534 178.511 191.311 178.678 191.045C178.848 190.78 178.965 190.477 179.03 190.136L181.155 190.148C181.075 190.701 180.903 191.22 180.638 191.705C180.376 192.189 180.034 192.617 179.609 192.989C179.185 193.356 178.689 193.644 178.121 193.852C177.553 194.057 176.922 194.159 176.229 194.159C175.206 194.159 174.293 193.922 173.49 193.449C172.687 192.975 172.054 192.292 171.592 191.398C171.13 190.504 170.899 189.432 170.899 188.182C170.899 186.928 171.132 185.856 171.598 184.966C172.064 184.072 172.698 183.388 173.501 182.915C174.304 182.441 175.214 182.205 176.229 182.205C176.876 182.205 177.479 182.295 178.036 182.477C178.592 182.659 179.089 182.926 179.524 183.278C179.96 183.627 180.318 184.055 180.598 184.562C180.882 185.066 181.068 185.642 181.155 186.29ZM186.001 194.17C185.149 194.17 184.41 193.983 183.785 193.608C183.16 193.233 182.675 192.708 182.331 192.034C181.99 191.36 181.819 190.572 181.819 189.67C181.819 188.769 181.99 187.979 182.331 187.301C182.675 186.623 183.16 186.097 183.785 185.722C184.41 185.347 185.149 185.159 186.001 185.159C186.853 185.159 187.592 185.347 188.217 185.722C188.842 186.097 189.325 186.623 189.666 187.301C190.011 187.979 190.183 188.769 190.183 189.67C190.183 190.572 190.011 191.36 189.666 192.034C189.325 192.708 188.842 193.233 188.217 193.608C187.592 193.983 186.853 194.17 186.001 194.17ZM186.012 192.523C186.475 192.523 186.861 192.396 187.172 192.142C187.482 191.884 187.713 191.54 187.865 191.108C188.02 190.676 188.098 190.195 188.098 189.665C188.098 189.131 188.02 188.648 187.865 188.216C187.713 187.78 187.482 187.434 187.172 187.176C186.861 186.919 186.475 186.79 186.012 186.79C185.539 186.79 185.145 186.919 184.831 187.176C184.52 187.434 184.287 187.78 184.132 188.216C183.98 188.648 183.905 189.131 183.905 189.665C183.905 190.195 183.98 190.676 184.132 191.108C184.287 191.54 184.52 191.884 184.831 192.142C185.145 192.396 185.539 192.523 186.012 192.523ZM193.186 188.886V194H191.129V185.273H193.095V186.756H193.197C193.398 186.267 193.718 185.879 194.157 185.591C194.6 185.303 195.148 185.159 195.799 185.159C196.401 185.159 196.926 185.288 197.373 185.545C197.824 185.803 198.172 186.176 198.418 186.665C198.668 187.153 198.792 187.746 198.788 188.443V194H196.731V188.761C196.731 188.178 196.579 187.722 196.276 187.392C195.977 187.062 195.562 186.898 195.032 186.898C194.672 186.898 194.352 186.977 194.072 187.136C193.795 187.292 193.578 187.517 193.418 187.812C193.263 188.108 193.186 188.466 193.186 188.886ZM204.437 185.273V186.864H199.42V185.273H204.437ZM200.658 183.182H202.715V191.375C202.715 191.652 202.757 191.864 202.84 192.011C202.927 192.155 203.041 192.254 203.181 192.307C203.321 192.36 203.476 192.386 203.647 192.386C203.776 192.386 203.893 192.377 203.999 192.358C204.109 192.339 204.192 192.322 204.249 192.307L204.596 193.915C204.486 193.953 204.329 193.994 204.124 194.04C203.923 194.085 203.677 194.112 203.386 194.119C202.87 194.134 202.406 194.057 201.993 193.886C201.581 193.712 201.253 193.443 201.011 193.08C200.772 192.716 200.654 192.261 200.658 191.716V183.182ZM209.127 194.17C208.252 194.17 207.496 193.989 206.86 193.625C206.227 193.258 205.74 192.739 205.399 192.068C205.059 191.394 204.888 190.6 204.888 189.688C204.888 188.79 205.059 188.002 205.399 187.324C205.744 186.642 206.225 186.112 206.843 185.733C207.46 185.35 208.185 185.159 209.019 185.159C209.557 185.159 210.064 185.246 210.541 185.42C211.023 185.591 211.447 185.856 211.814 186.216C212.185 186.576 212.477 187.034 212.689 187.591C212.901 188.144 213.007 188.803 213.007 189.568V190.199H205.854V188.812H211.036C211.032 188.419 210.947 188.068 210.78 187.761C210.613 187.451 210.38 187.206 210.081 187.028C209.786 186.85 209.441 186.761 209.047 186.761C208.627 186.761 208.257 186.864 207.939 187.068C207.621 187.269 207.373 187.534 207.195 187.864C207.021 188.189 206.932 188.547 206.928 188.938V190.148C206.928 190.655 207.021 191.091 207.206 191.455C207.392 191.814 207.651 192.091 207.985 192.284C208.318 192.473 208.708 192.568 209.155 192.568C209.454 192.568 209.725 192.527 209.968 192.443C210.21 192.356 210.42 192.229 210.598 192.062C210.776 191.896 210.911 191.689 211.002 191.443L212.922 191.659C212.801 192.167 212.57 192.61 212.229 192.989C211.892 193.364 211.46 193.655 210.934 193.864C210.407 194.068 209.805 194.17 209.127 194.17ZM216.004 188.886V194H213.947V185.273H215.913V186.756H216.016C216.216 186.267 216.536 185.879 216.976 185.591C217.419 185.303 217.966 185.159 218.618 185.159C219.22 185.159 219.745 185.288 220.192 185.545C220.643 185.803 220.991 186.176 221.237 186.665C221.487 187.153 221.61 187.746 221.607 188.443V194H219.55V188.761C219.55 188.178 219.398 187.722 219.095 187.392C218.796 187.062 218.381 186.898 217.851 186.898C217.491 186.898 217.171 186.977 216.891 187.136C216.614 187.292 216.396 187.517 216.237 187.812C216.082 188.108 216.004 188.466 216.004 188.886ZM227.255 185.273V186.864H222.238V185.273H227.255ZM223.477 183.182H225.534V191.375C225.534 191.652 225.575 191.864 225.659 192.011C225.746 192.155 225.86 192.254 226 192.307C226.14 192.36 226.295 192.386 226.466 192.386C226.594 192.386 226.712 192.377 226.818 192.358C226.928 192.339 227.011 192.322 227.068 192.307L227.414 193.915C227.305 193.953 227.147 193.994 226.943 194.04C226.742 194.085 226.496 194.112 226.204 194.119C225.689 194.134 225.225 194.057 224.812 193.886C224.399 193.712 224.072 193.443 223.829 193.08C223.591 192.716 223.473 192.261 223.477 191.716V183.182Z" fill="#5C0088"/>
<path d="M148.188 123.938V145.25H97.8125V123.938M123 133.625V125.875M130.75 106.5C130.75 106.5 130.75 98.75 123 98.75C115.25 98.75 115.25 106.5 115.25 106.5M95.875 106.5H150.125V122C150.125 122 138.5 129.75 123 129.75C107.5 129.75 95.875 122 95.875 122V106.5Z" stroke="#5C0088" stroke-width="4" stroke-linecap="round" stroke-linejoin="round"/>
</svg>
