<svg width="246" height="245" viewBox="0 0 246 245" fill="none" xmlns="http://www.w3.org/2000/svg">
<rect width="246" height="245" rx="14" fill="#BAE6FF"/>
<path d="M53.6747 166.562C53.6217 166.066 53.3982 165.68 53.0043 165.403C52.6141 165.127 52.1065 164.989 51.4815 164.989C51.0421 164.989 50.6652 165.055 50.3509 165.188C50.0365 165.32 49.7959 165.5 49.6293 165.727C49.4626 165.955 49.3774 166.214 49.3736 166.506C49.3736 166.748 49.4285 166.958 49.5384 167.136C49.652 167.314 49.8054 167.466 49.9986 167.591C50.1918 167.712 50.4058 167.814 50.6406 167.898C50.8755 167.981 51.1122 168.051 51.3509 168.108L52.4418 168.381C52.8812 168.483 53.3035 168.621 53.7088 168.795C54.1179 168.97 54.4834 169.189 54.8054 169.455C55.1312 169.72 55.3887 170.04 55.5781 170.415C55.7675 170.79 55.8622 171.229 55.8622 171.733C55.8622 172.415 55.688 173.015 55.3395 173.534C54.991 174.049 54.4872 174.453 53.8281 174.744C53.1728 175.032 52.3793 175.176 51.4474 175.176C50.5421 175.176 49.7562 175.036 49.0895 174.756C48.4266 174.475 47.9077 174.066 47.5327 173.528C47.1615 172.991 46.9607 172.335 46.9304 171.562H49.0043C49.0346 171.968 49.1596 172.305 49.3793 172.574C49.599 172.843 49.8849 173.044 50.2372 173.176C50.5933 173.309 50.991 173.375 51.4304 173.375C51.8887 173.375 52.2902 173.307 52.6349 173.17C52.9834 173.03 53.2562 172.837 53.4531 172.591C53.6501 172.341 53.7505 172.049 53.7543 171.716C53.7505 171.413 53.6615 171.163 53.4872 170.966C53.313 170.765 53.0687 170.598 52.7543 170.466C52.4437 170.33 52.08 170.208 51.6634 170.102L50.3395 169.761C49.3812 169.515 48.6236 169.142 48.0668 168.642C47.5137 168.138 47.2372 167.47 47.2372 166.636C47.2372 165.951 47.4228 165.35 47.794 164.835C48.169 164.32 48.6785 163.92 49.3224 163.636C49.9664 163.348 50.6955 163.205 51.5099 163.205C52.3357 163.205 53.0592 163.348 53.6804 163.636C54.3054 163.92 54.7959 164.316 55.152 164.824C55.508 165.328 55.6918 165.907 55.7031 166.562H53.6747ZM61.2085 166.273V167.864H56.1915V166.273H61.2085ZM57.4301 164.182H59.4869V172.375C59.4869 172.652 59.5286 172.864 59.6119 173.011C59.6991 173.155 59.8127 173.254 59.9528 173.307C60.093 173.36 60.2483 173.386 60.4187 173.386C60.5475 173.386 60.665 173.377 60.771 173.358C60.8809 173.339 60.9642 173.322 61.021 173.307L61.3676 174.915C61.2578 174.953 61.1006 174.994 60.896 175.04C60.6953 175.085 60.4491 175.112 60.1574 175.119C59.6422 175.134 59.1782 175.057 58.7653 174.886C58.3525 174.712 58.0248 174.443 57.7824 174.08C57.5437 173.716 57.4263 173.261 57.4301 172.716V164.182ZM62.1287 175V166.273H64.123V167.727H64.2139C64.373 167.223 64.6457 166.835 65.0321 166.562C65.4223 166.286 65.8673 166.148 66.3673 166.148C66.481 166.148 66.6079 166.153 66.748 166.165C66.892 166.172 67.0113 166.186 67.106 166.205V168.097C67.0188 168.066 66.8806 168.04 66.6912 168.017C66.5056 167.991 66.3257 167.977 66.1514 167.977C65.7764 167.977 65.4393 168.059 65.1401 168.222C64.8446 168.381 64.6116 168.602 64.4412 168.886C64.2707 169.17 64.1855 169.498 64.1855 169.869V175H62.1287ZM71.1767 175.17C70.3017 175.17 69.546 174.989 68.9097 174.625C68.2771 174.258 67.7903 173.739 67.4494 173.068C67.1085 172.394 66.9381 171.6 66.9381 170.688C66.9381 169.79 67.1085 169.002 67.4494 168.324C67.7941 167.642 68.2752 167.112 68.8926 166.733C69.51 166.35 70.2354 166.159 71.0688 166.159C71.6066 166.159 72.1142 166.246 72.5915 166.42C73.0725 166.591 73.4968 166.856 73.8642 167.216C74.2354 167.576 74.5271 168.034 74.7392 168.591C74.9513 169.144 75.0574 169.803 75.0574 170.568V171.199H67.904V169.812H73.0858C73.082 169.419 72.9968 169.068 72.8301 168.761C72.6634 168.451 72.4305 168.206 72.1313 168.028C71.8358 167.85 71.4911 167.761 71.0972 167.761C70.6767 167.761 70.3074 167.864 69.9892 168.068C69.671 168.269 69.4229 168.534 69.2449 168.864C69.0706 169.189 68.9816 169.547 68.9778 169.938V171.148C68.9778 171.655 69.0706 172.091 69.2563 172.455C69.4419 172.814 69.7013 173.091 70.0347 173.284C70.368 173.473 70.7581 173.568 71.2051 173.568C71.5044 173.568 71.7752 173.527 72.0176 173.443C72.26 173.356 72.4703 173.229 72.6483 173.062C72.8263 172.896 72.9608 172.689 73.0517 172.443L74.9722 172.659C74.8509 173.167 74.6199 173.61 74.279 173.989C73.9419 174.364 73.51 174.655 72.9835 174.864C72.457 175.068 71.8547 175.17 71.1767 175.17ZM78.5088 175.176C77.9558 175.176 77.4577 175.078 77.0145 174.881C76.5751 174.68 76.2266 174.384 75.969 173.994C75.7152 173.604 75.5884 173.123 75.5884 172.551C75.5884 172.059 75.6793 171.652 75.8611 171.33C76.0429 171.008 76.291 170.75 76.6054 170.557C76.9198 170.364 77.274 170.218 77.6679 170.119C78.0656 170.017 78.4766 169.943 78.9009 169.898C79.4122 169.845 79.827 169.797 80.1452 169.756C80.4634 169.71 80.6944 169.642 80.8384 169.551C80.9861 169.456 81.0599 169.311 81.0599 169.114V169.08C81.0599 168.652 80.933 168.32 80.6793 168.085C80.4255 167.85 80.0599 167.733 79.5827 167.733C79.0789 167.733 78.6793 167.843 78.3838 168.062C78.0921 168.282 77.8952 168.542 77.7929 168.841L75.8724 168.568C76.024 168.038 76.274 167.595 76.6224 167.239C76.9709 166.879 77.3971 166.61 77.9009 166.432C78.4046 166.25 78.9615 166.159 79.5713 166.159C79.9918 166.159 80.4103 166.208 80.827 166.307C81.2437 166.405 81.6243 166.568 81.969 166.795C82.3137 167.019 82.5902 167.324 82.7986 167.71C83.0107 168.097 83.1168 168.58 83.1168 169.159V175H81.1395V173.801H81.0713C80.9463 174.044 80.7702 174.271 80.5429 174.483C80.3194 174.691 80.0372 174.86 79.6963 174.989C79.3592 175.114 78.9634 175.176 78.5088 175.176ZM79.0429 173.665C79.4558 173.665 79.8137 173.583 80.1168 173.42C80.4198 173.254 80.6527 173.034 80.8156 172.761C80.9823 172.489 81.0656 172.191 81.0656 171.869V170.841C81.0012 170.894 80.8914 170.943 80.7361 170.989C80.5846 171.034 80.4141 171.074 80.2247 171.108C80.0353 171.142 79.8478 171.172 79.6622 171.199C79.4766 171.225 79.3156 171.248 79.1793 171.267C78.8724 171.309 78.5978 171.377 78.3554 171.472C78.113 171.566 77.9217 171.699 77.7815 171.869C77.6414 172.036 77.5713 172.252 77.5713 172.517C77.5713 172.896 77.7096 173.182 77.9861 173.375C78.2626 173.568 78.6149 173.665 79.0429 173.665ZM84.3849 175V166.273H86.3509V167.756H86.4531C86.6349 167.256 86.9361 166.866 87.3565 166.585C87.777 166.301 88.2789 166.159 88.8622 166.159C89.4531 166.159 89.9512 166.303 90.3565 166.591C90.7656 166.875 91.0535 167.263 91.2202 167.756H91.3111C91.5043 167.271 91.83 166.884 92.2884 166.597C92.7505 166.305 93.2978 166.159 93.9304 166.159C94.7334 166.159 95.3887 166.413 95.8963 166.92C96.4039 167.428 96.6577 168.169 96.6577 169.142V175H94.5952V169.46C94.5952 168.919 94.4512 168.523 94.1634 168.273C93.8755 168.019 93.5232 167.892 93.1065 167.892C92.6103 167.892 92.2221 168.047 91.9418 168.358C91.6652 168.665 91.527 169.064 91.527 169.557V175H89.5099V169.375C89.5099 168.924 89.3736 168.564 89.1009 168.295C88.8319 168.027 88.4796 167.892 88.044 167.892C87.7486 167.892 87.4796 167.968 87.2372 168.119C86.9948 168.267 86.8016 168.477 86.6577 168.75C86.5137 169.019 86.4418 169.333 86.4418 169.693V175H84.3849ZM100.001 163.364V175H97.9443V163.364H100.001ZM101.316 175V166.273H103.373V175H101.316ZM102.35 165.034C102.025 165.034 101.744 164.926 101.509 164.71C101.275 164.491 101.157 164.227 101.157 163.92C101.157 163.61 101.275 163.347 101.509 163.131C101.744 162.911 102.025 162.801 102.35 162.801C102.68 162.801 102.96 162.911 103.191 163.131C103.426 163.347 103.543 163.61 103.543 163.92C103.543 164.227 103.426 164.491 103.191 164.71C102.96 164.926 102.68 165.034 102.35 165.034ZM106.745 169.886V175H104.688V166.273H106.654V167.756H106.756C106.957 167.267 107.277 166.879 107.716 166.591C108.16 166.303 108.707 166.159 109.359 166.159C109.961 166.159 110.485 166.288 110.932 166.545C111.383 166.803 111.732 167.176 111.978 167.665C112.228 168.153 112.351 168.746 112.347 169.443V175H110.29V169.761C110.29 169.178 110.139 168.722 109.836 168.392C109.537 168.062 109.122 167.898 108.591 167.898C108.232 167.898 107.912 167.977 107.631 168.136C107.355 168.292 107.137 168.517 106.978 168.812C106.823 169.108 106.745 169.466 106.745 169.886ZM117.502 175.17C116.627 175.17 115.871 174.989 115.235 174.625C114.602 174.258 114.115 173.739 113.774 173.068C113.434 172.394 113.263 171.6 113.263 170.688C113.263 169.79 113.434 169.002 113.774 168.324C114.119 167.642 114.6 167.112 115.218 166.733C115.835 166.35 116.56 166.159 117.394 166.159C117.932 166.159 118.439 166.246 118.916 166.42C119.398 166.591 119.822 166.856 120.189 167.216C120.56 167.576 120.852 168.034 121.064 168.591C121.276 169.144 121.382 169.803 121.382 170.568V171.199H114.229V169.812H119.411C119.407 169.419 119.322 169.068 119.155 168.761C118.988 168.451 118.755 168.206 118.456 168.028C118.161 167.85 117.816 167.761 117.422 167.761C117.002 167.761 116.632 167.864 116.314 168.068C115.996 168.269 115.748 168.534 115.57 168.864C115.396 169.189 115.307 169.547 115.303 169.938V171.148C115.303 171.655 115.396 172.091 115.581 172.455C115.767 172.814 116.026 173.091 116.36 173.284C116.693 173.473 117.083 173.568 117.53 173.568C117.829 173.568 118.1 173.527 118.343 173.443C118.585 173.356 118.795 173.229 118.973 173.062C119.151 172.896 119.286 172.689 119.377 172.443L121.297 172.659C121.176 173.167 120.945 173.61 120.604 173.989C120.267 174.364 119.835 174.655 119.309 174.864C118.782 175.068 118.18 175.17 117.502 175.17ZM125.561 175.153C124.875 175.153 124.262 174.977 123.72 174.625C123.179 174.273 122.75 173.761 122.436 173.091C122.122 172.42 121.964 171.606 121.964 170.648C121.964 169.678 122.124 168.86 122.442 168.193C122.764 167.523 123.197 167.017 123.743 166.676C124.288 166.331 124.896 166.159 125.567 166.159C126.078 166.159 126.499 166.246 126.828 166.42C127.158 166.591 127.419 166.797 127.612 167.04C127.805 167.278 127.955 167.504 128.061 167.716H128.146V163.364H130.209V175H128.186V173.625H128.061C127.955 173.837 127.802 174.062 127.601 174.301C127.4 174.536 127.135 174.737 126.805 174.903C126.476 175.07 126.061 175.153 125.561 175.153ZM126.135 173.466C126.571 173.466 126.942 173.348 127.249 173.114C127.555 172.875 127.788 172.544 127.947 172.119C128.107 171.695 128.186 171.201 128.186 170.636C128.186 170.072 128.107 169.581 127.947 169.165C127.792 168.748 127.561 168.424 127.254 168.193C126.951 167.962 126.578 167.847 126.135 167.847C125.677 167.847 125.294 167.966 124.987 168.205C124.68 168.443 124.449 168.773 124.294 169.193C124.139 169.614 124.061 170.095 124.061 170.636C124.061 171.182 124.139 171.669 124.294 172.097C124.453 172.521 124.686 172.856 124.993 173.102C125.304 173.345 125.684 173.466 126.135 173.466ZM137.309 175L134.025 163.364H136.292L138.389 171.915H138.497L140.735 163.364H142.798L145.042 171.92H145.144L147.241 163.364H149.508L146.224 175H144.144L141.815 166.835H141.724L139.389 175H137.309ZM152.995 175.17C152.143 175.17 151.404 174.983 150.779 174.608C150.154 174.233 149.669 173.708 149.324 173.034C148.984 172.36 148.813 171.572 148.813 170.67C148.813 169.769 148.984 168.979 149.324 168.301C149.669 167.623 150.154 167.097 150.779 166.722C151.404 166.347 152.143 166.159 152.995 166.159C153.847 166.159 154.586 166.347 155.211 166.722C155.836 167.097 156.319 167.623 156.66 168.301C157.004 168.979 157.177 169.769 157.177 170.67C157.177 171.572 157.004 172.36 156.66 173.034C156.319 173.708 155.836 174.233 155.211 174.608C154.586 174.983 153.847 175.17 152.995 175.17ZM153.006 173.523C153.468 173.523 153.855 173.396 154.165 173.142C154.476 172.884 154.707 172.54 154.859 172.108C155.014 171.676 155.091 171.195 155.091 170.665C155.091 170.131 155.014 169.648 154.859 169.216C154.707 168.78 154.476 168.434 154.165 168.176C153.855 167.919 153.468 167.79 153.006 167.79C152.533 167.79 152.139 167.919 151.824 168.176C151.514 168.434 151.281 168.78 151.126 169.216C150.974 169.648 150.898 170.131 150.898 170.665C150.898 171.195 150.974 171.676 151.126 172.108C151.281 172.54 151.514 172.884 151.824 173.142C152.139 173.396 152.533 173.523 153.006 173.523ZM158.122 175V166.273H160.117V167.727H160.208C160.367 167.223 160.639 166.835 161.026 166.562C161.416 166.286 161.861 166.148 162.361 166.148C162.475 166.148 162.602 166.153 162.742 166.165C162.886 166.172 163.005 166.186 163.1 166.205V168.097C163.013 168.066 162.874 168.04 162.685 168.017C162.499 167.991 162.319 167.977 162.145 167.977C161.77 167.977 161.433 168.059 161.134 168.222C160.838 168.381 160.605 168.602 160.435 168.886C160.264 169.17 160.179 169.498 160.179 169.869V175H158.122ZM165.541 172.261L165.536 169.778H165.865L169.001 166.273H171.405L167.547 170.568H167.121L165.541 172.261ZM163.666 175V163.364H165.723V175H163.666ZM169.143 175L166.303 171.028L167.689 169.58L171.604 175H169.143ZM176.396 166.273V167.864H171.237V166.273H176.396ZM172.527 175V165.449C172.527 164.862 172.648 164.373 172.89 163.983C173.137 163.593 173.466 163.301 173.879 163.108C174.292 162.915 174.75 162.818 175.254 162.818C175.61 162.818 175.926 162.847 176.203 162.903C176.479 162.96 176.684 163.011 176.816 163.057L176.407 164.648C176.32 164.621 176.21 164.595 176.078 164.568C175.945 164.538 175.798 164.523 175.635 164.523C175.252 164.523 174.981 164.616 174.822 164.801C174.667 164.983 174.589 165.244 174.589 165.585V175H172.527ZM179.264 163.364V175H177.207V163.364H179.264ZM184.386 175.17C183.533 175.17 182.795 174.983 182.17 174.608C181.545 174.233 181.06 173.708 180.715 173.034C180.374 172.36 180.204 171.572 180.204 170.67C180.204 169.769 180.374 168.979 180.715 168.301C181.06 167.623 181.545 167.097 182.17 166.722C182.795 166.347 183.533 166.159 184.386 166.159C185.238 166.159 185.976 166.347 186.601 166.722C187.226 167.097 187.709 167.623 188.05 168.301C188.395 168.979 188.567 169.769 188.567 170.67C188.567 171.572 188.395 172.36 188.05 173.034C187.709 173.708 187.226 174.233 186.601 174.608C185.976 174.983 185.238 175.17 184.386 175.17ZM184.397 173.523C184.859 173.523 185.245 173.396 185.556 173.142C185.867 172.884 186.098 172.54 186.249 172.108C186.404 171.676 186.482 171.195 186.482 170.665C186.482 170.131 186.404 169.648 186.249 169.216C186.098 168.78 185.867 168.434 185.556 168.176C185.245 167.919 184.859 167.79 184.397 167.79C183.923 167.79 183.529 167.919 183.215 168.176C182.904 168.434 182.672 168.78 182.516 169.216C182.365 169.648 182.289 170.131 182.289 170.665C182.289 171.195 182.365 171.676 182.516 172.108C182.672 172.54 182.904 172.884 183.215 173.142C183.529 173.396 183.923 173.523 184.397 173.523ZM191.064 175L188.598 166.273H190.695L192.229 172.409H192.309L193.877 166.273H195.951L197.519 172.375H197.604L199.115 166.273H201.218L198.746 175H196.604L194.968 169.102H194.848L193.212 175H191.064ZM60.0278 194.17C59.2324 194.17 58.5487 194.027 57.9767 193.739C57.4047 193.451 56.9634 193.062 56.6528 192.574C56.346 192.081 56.1926 191.527 56.1926 190.909C56.1926 190.443 56.2873 190.03 56.4767 189.67C56.6699 189.311 56.935 188.977 57.2722 188.67C57.6131 188.364 58.007 188.059 58.454 187.756L60.5165 186.352C60.8195 186.155 61.0487 185.947 61.204 185.727C61.3631 185.508 61.4426 185.25 61.4426 184.955C61.4426 184.705 61.3366 184.468 61.1244 184.244C60.9161 184.021 60.6282 183.909 60.2608 183.909C60.0146 183.909 59.7968 183.968 59.6074 184.085C59.4218 184.199 59.2759 184.348 59.1699 184.534C59.0676 184.72 59.0165 184.917 59.0165 185.125C59.0165 185.379 59.0866 185.636 59.2267 185.898C59.3706 186.159 59.5563 186.43 59.7835 186.71C60.0146 186.991 60.2608 187.288 60.5222 187.602L65.9824 194H63.7551L59.221 188.807C58.8839 188.413 58.5581 188.025 58.2438 187.642C57.9331 187.259 57.6775 186.862 57.4767 186.449C57.2797 186.032 57.1813 185.581 57.1813 185.097C57.1813 184.547 57.3081 184.057 57.5619 183.625C57.8157 183.189 58.1699 182.847 58.6244 182.597C59.0828 182.347 59.6188 182.222 60.2324 182.222C60.846 182.222 61.3725 182.343 61.8119 182.585C62.2513 182.828 62.5903 183.15 62.829 183.551C63.0676 183.953 63.1869 184.39 63.1869 184.864C63.1869 185.413 63.0506 185.905 62.7778 186.341C62.5051 186.773 62.1263 187.165 61.6415 187.517L59.2892 189.239C58.9028 189.519 58.6263 189.803 58.4597 190.091C58.293 190.375 58.2097 190.617 58.2097 190.818C58.2097 191.125 58.2873 191.403 58.4426 191.653C58.5979 191.903 58.8157 192.104 59.096 192.256C59.3801 192.403 59.7116 192.477 60.0903 192.477C60.507 192.477 60.918 192.384 61.3233 192.199C61.7286 192.009 62.0979 191.741 62.4313 191.392C62.7646 191.044 63.0297 190.627 63.2267 190.142C63.4237 189.653 63.5222 189.112 63.5222 188.517H65.2892C65.2892 189.252 65.2078 189.892 65.0449 190.438C64.882 190.979 64.6718 191.438 64.4142 191.812C64.1566 192.184 63.8839 192.481 63.596 192.705C63.5051 192.769 63.418 192.833 63.3347 192.898C63.2513 192.962 63.1642 193.027 63.0733 193.091C62.6642 193.462 62.185 193.735 61.6358 193.909C61.0903 194.083 60.5544 194.17 60.0278 194.17ZM69.6196 194V182.364H73.9832C74.8772 182.364 75.6272 182.519 76.2332 182.83C76.8431 183.14 77.3033 183.576 77.6139 184.136C77.9283 184.693 78.0855 185.343 78.0855 186.085C78.0855 186.831 77.9264 187.479 77.6082 188.028C77.2938 188.574 76.8298 188.996 76.2162 189.295C75.6026 189.591 74.8488 189.739 73.9548 189.739H70.8469V187.989H73.6707C74.1935 187.989 74.6215 187.917 74.9548 187.773C75.2882 187.625 75.5344 187.411 75.6935 187.131C75.8563 186.847 75.9378 186.498 75.9378 186.085C75.9378 185.672 75.8563 185.32 75.6935 185.028C75.5306 184.733 75.2825 184.509 74.9491 184.358C74.6158 184.203 74.1859 184.125 73.6594 184.125H71.7276V194H69.6196ZM75.631 188.727L78.5116 194H76.1594L73.3298 188.727H75.631ZM82.8736 194.17C81.9986 194.17 81.2429 193.989 80.6065 193.625C79.974 193.258 79.4872 192.739 79.1463 192.068C78.8054 191.394 78.6349 190.6 78.6349 189.688C78.6349 188.79 78.8054 188.002 79.1463 187.324C79.491 186.642 79.9721 186.112 80.5895 185.733C81.2069 185.35 81.9323 185.159 82.7656 185.159C83.3035 185.159 83.8111 185.246 84.2884 185.42C84.7694 185.591 85.1937 185.856 85.5611 186.216C85.9323 186.576 86.224 187.034 86.4361 187.591C86.6482 188.144 86.7543 188.803 86.7543 189.568V190.199H79.6009V188.812H84.7827C84.7789 188.419 84.6937 188.068 84.527 187.761C84.3603 187.451 84.1274 187.206 83.8281 187.028C83.5327 186.85 83.188 186.761 82.794 186.761C82.3736 186.761 82.0043 186.864 81.6861 187.068C81.3679 187.269 81.1198 187.534 80.9418 187.864C80.7675 188.189 80.6785 188.547 80.6747 188.938V190.148C80.6747 190.655 80.7675 191.091 80.9531 191.455C81.1387 191.814 81.3982 192.091 81.7315 192.284C82.0649 192.473 82.455 192.568 82.902 192.568C83.2012 192.568 83.4721 192.527 83.7145 192.443C83.9569 192.356 84.1671 192.229 84.3452 192.062C84.5232 191.896 84.6577 191.689 84.7486 191.443L86.669 191.659C86.5478 192.167 86.3168 192.61 85.9759 192.989C85.6387 193.364 85.2069 193.655 84.6804 193.864C84.1539 194.068 83.5516 194.17 82.8736 194.17ZM90.933 194.153C90.2473 194.153 89.6337 193.977 89.092 193.625C88.5504 193.273 88.1223 192.761 87.808 192.091C87.4936 191.42 87.3364 190.606 87.3364 189.648C87.3364 188.678 87.4955 187.86 87.8136 187.193C88.1356 186.523 88.5693 186.017 89.1148 185.676C89.6602 185.331 90.2682 185.159 90.9386 185.159C91.45 185.159 91.8705 185.246 92.2 185.42C92.5295 185.591 92.7909 185.797 92.9841 186.04C93.1773 186.278 93.3269 186.504 93.433 186.716H93.5182V182.364H95.5807V194H93.558V192.625H93.433C93.3269 192.837 93.1735 193.062 92.9727 193.301C92.772 193.536 92.5068 193.737 92.1773 193.903C91.8477 194.07 91.433 194.153 90.933 194.153ZM91.5068 192.466C91.9424 192.466 92.3136 192.348 92.6205 192.114C92.9273 191.875 93.1602 191.544 93.3193 191.119C93.4784 190.695 93.558 190.201 93.558 189.636C93.558 189.072 93.4784 188.581 93.3193 188.165C93.164 187.748 92.933 187.424 92.6261 187.193C92.3231 186.962 91.95 186.847 91.5068 186.847C91.0485 186.847 90.6659 186.966 90.3591 187.205C90.0523 187.443 89.8212 187.773 89.6659 188.193C89.5106 188.614 89.433 189.095 89.433 189.636C89.433 190.182 89.5106 190.669 89.6659 191.097C89.825 191.521 90.058 191.856 90.3648 192.102C90.6754 192.345 91.0561 192.466 91.5068 192.466ZM102.535 190.33V185.273H104.592V194H102.597V192.449H102.507C102.31 192.937 101.986 193.337 101.535 193.648C101.088 193.958 100.537 194.114 99.8815 194.114C99.3096 194.114 98.8039 193.987 98.3645 193.733C97.9289 193.475 97.588 193.102 97.3418 192.614C97.0956 192.121 96.9724 191.527 96.9724 190.83V185.273H99.0293V190.511C99.0293 191.064 99.1808 191.504 99.4838 191.83C99.7868 192.155 100.185 192.318 100.677 192.318C100.98 192.318 101.274 192.244 101.558 192.097C101.842 191.949 102.075 191.729 102.257 191.438C102.442 191.142 102.535 190.773 102.535 190.33ZM109.714 194.17C108.842 194.17 108.094 193.979 107.469 193.597C106.848 193.214 106.369 192.686 106.032 192.011C105.698 191.333 105.532 190.553 105.532 189.67C105.532 188.784 105.702 188.002 106.043 187.324C106.384 186.642 106.865 186.112 107.486 185.733C108.111 185.35 108.85 185.159 109.702 185.159C110.411 185.159 111.038 185.29 111.583 185.551C112.132 185.809 112.57 186.174 112.895 186.648C113.221 187.117 113.407 187.667 113.452 188.295H111.486C111.407 187.875 111.217 187.525 110.918 187.244C110.623 186.96 110.227 186.818 109.731 186.818C109.31 186.818 108.941 186.932 108.623 187.159C108.305 187.383 108.056 187.705 107.878 188.125C107.704 188.545 107.617 189.049 107.617 189.636C107.617 190.231 107.704 190.742 107.878 191.17C108.053 191.595 108.297 191.922 108.611 192.153C108.93 192.381 109.303 192.494 109.731 192.494C110.034 192.494 110.305 192.437 110.543 192.324C110.786 192.206 110.988 192.038 111.151 191.818C111.314 191.598 111.426 191.331 111.486 191.017H113.452C113.403 191.634 113.221 192.182 112.907 192.659C112.592 193.133 112.164 193.504 111.623 193.773C111.081 194.038 110.445 194.17 109.714 194.17ZM118.205 194.17C117.33 194.17 116.574 193.989 115.938 193.625C115.305 193.258 114.818 192.739 114.478 192.068C114.137 191.394 113.966 190.6 113.966 189.688C113.966 188.79 114.137 188.002 114.478 187.324C114.822 186.642 115.303 186.112 115.921 185.733C116.538 185.35 117.264 185.159 118.097 185.159C118.635 185.159 119.142 185.246 119.62 185.42C120.101 185.591 120.525 185.856 120.892 186.216C121.264 186.576 121.555 187.034 121.767 187.591C121.979 188.144 122.086 188.803 122.086 189.568V190.199H114.932V188.812H120.114C120.11 188.419 120.025 188.068 119.858 187.761C119.692 187.451 119.459 187.206 119.159 187.028C118.864 186.85 118.519 186.761 118.125 186.761C117.705 186.761 117.336 186.864 117.017 187.068C116.699 187.269 116.451 187.534 116.273 187.864C116.099 188.189 116.01 188.547 116.006 188.938V190.148C116.006 190.655 116.099 191.091 116.284 191.455C116.47 191.814 116.729 192.091 117.063 192.284C117.396 192.473 117.786 192.568 118.233 192.568C118.532 192.568 118.803 192.527 119.046 192.443C119.288 192.356 119.498 192.229 119.676 192.062C119.854 191.896 119.989 191.689 120.08 191.443L122 191.659C121.879 192.167 121.648 192.61 121.307 192.989C120.97 193.364 120.538 193.655 120.012 193.864C119.485 194.068 118.883 194.17 118.205 194.17ZM126.264 194.153C125.579 194.153 124.965 193.977 124.423 193.625C123.882 193.273 123.454 192.761 123.139 192.091C122.825 191.42 122.668 190.606 122.668 189.648C122.668 188.678 122.827 187.86 123.145 187.193C123.467 186.523 123.901 186.017 124.446 185.676C124.991 185.331 125.599 185.159 126.27 185.159C126.781 185.159 127.202 185.246 127.531 185.42C127.861 185.591 128.122 185.797 128.315 186.04C128.509 186.278 128.658 186.504 128.764 186.716H128.849V182.364H130.912V194H128.889V192.625H128.764C128.658 192.837 128.505 193.062 128.304 193.301C128.103 193.536 127.838 193.737 127.509 193.903C127.179 194.07 126.764 194.153 126.264 194.153ZM126.838 192.466C127.274 192.466 127.645 192.348 127.952 192.114C128.259 191.875 128.491 191.544 128.651 191.119C128.81 190.695 128.889 190.201 128.889 189.636C128.889 189.072 128.81 188.581 128.651 188.165C128.495 187.748 128.264 187.424 127.957 187.193C127.654 186.962 127.281 186.847 126.838 186.847C126.38 186.847 125.997 186.966 125.69 187.205C125.384 187.443 125.152 187.773 124.997 188.193C124.842 188.614 124.764 189.095 124.764 189.636C124.764 190.182 124.842 190.669 124.997 191.097C125.156 191.521 125.389 191.856 125.696 192.102C126.007 192.345 126.387 192.466 126.838 192.466ZM135.563 194V182.364H140.018C140.859 182.364 141.558 182.496 142.114 182.761C142.675 183.023 143.094 183.381 143.37 183.835C143.65 184.29 143.791 184.805 143.791 185.381C143.791 185.854 143.7 186.259 143.518 186.597C143.336 186.93 143.092 187.201 142.785 187.409C142.478 187.617 142.135 187.767 141.757 187.858V187.972C142.169 187.994 142.565 188.121 142.944 188.352C143.327 188.58 143.639 188.902 143.882 189.318C144.124 189.735 144.245 190.239 144.245 190.83C144.245 191.432 144.099 191.973 143.808 192.455C143.516 192.932 143.077 193.309 142.489 193.585C141.902 193.862 141.164 194 140.274 194H135.563ZM137.671 192.239H139.938C140.704 192.239 141.255 192.093 141.592 191.801C141.933 191.506 142.103 191.127 142.103 190.665C142.103 190.32 142.018 190.009 141.847 189.733C141.677 189.453 141.435 189.233 141.12 189.074C140.806 188.911 140.431 188.83 139.995 188.83H137.671V192.239ZM137.671 187.312H139.757C140.12 187.312 140.448 187.246 140.739 187.114C141.031 186.977 141.26 186.786 141.427 186.54C141.597 186.29 141.683 185.994 141.683 185.653C141.683 185.203 141.524 184.831 141.205 184.54C140.891 184.248 140.423 184.102 139.802 184.102H137.671V187.312ZM150.751 190.33V185.273H152.807V194H150.813V192.449H150.722C150.525 192.937 150.201 193.337 149.751 193.648C149.304 193.958 148.752 194.114 148.097 194.114C147.525 194.114 147.02 193.987 146.58 193.733C146.145 193.475 145.804 193.102 145.557 192.614C145.311 192.121 145.188 191.527 145.188 190.83V185.273H147.245V190.511C147.245 191.064 147.396 191.504 147.699 191.83C148.002 192.155 148.4 192.318 148.893 192.318C149.196 192.318 149.489 192.244 149.773 192.097C150.057 191.949 150.29 191.729 150.472 191.438C150.658 191.142 150.751 190.773 150.751 190.33ZM154.122 194V185.273H156.117V186.727H156.208C156.367 186.223 156.639 185.835 157.026 185.562C157.416 185.286 157.861 185.148 158.361 185.148C158.475 185.148 158.602 185.153 158.742 185.165C158.886 185.172 159.005 185.186 159.1 185.205V187.097C159.013 187.066 158.874 187.04 158.685 187.017C158.499 186.991 158.319 186.977 158.145 186.977C157.77 186.977 157.433 187.059 157.134 187.222C156.838 187.381 156.605 187.602 156.435 187.886C156.264 188.17 156.179 188.498 156.179 188.869V194H154.122ZM161.723 188.886V194H159.666V185.273H161.632V186.756H161.734C161.935 186.267 162.255 185.879 162.695 185.591C163.138 185.303 163.685 185.159 164.337 185.159C164.939 185.159 165.464 185.288 165.911 185.545C166.361 185.803 166.71 186.176 166.956 186.665C167.206 187.153 167.329 187.746 167.325 188.443V194H165.268V188.761C165.268 188.178 165.117 187.722 164.814 187.392C164.515 187.062 164.1 186.898 163.57 186.898C163.21 186.898 162.89 186.977 162.609 187.136C162.333 187.292 162.115 187.517 161.956 187.812C161.801 188.108 161.723 188.466 161.723 188.886ZM172.423 194.17C171.571 194.17 170.832 193.983 170.207 193.608C169.582 193.233 169.097 192.708 168.753 192.034C168.412 191.36 168.241 190.572 168.241 189.67C168.241 188.769 168.412 187.979 168.753 187.301C169.097 186.623 169.582 186.097 170.207 185.722C170.832 185.347 171.571 185.159 172.423 185.159C173.275 185.159 174.014 185.347 174.639 185.722C175.264 186.097 175.747 186.623 176.088 187.301C176.432 187.979 176.605 188.769 176.605 189.67C176.605 190.572 176.432 191.36 176.088 192.034C175.747 192.708 175.264 193.233 174.639 193.608C174.014 193.983 173.275 194.17 172.423 194.17ZM172.434 192.523C172.897 192.523 173.283 192.396 173.593 192.142C173.904 191.884 174.135 191.54 174.287 191.108C174.442 190.676 174.52 190.195 174.52 189.665C174.52 189.131 174.442 188.648 174.287 188.216C174.135 187.78 173.904 187.434 173.593 187.176C173.283 186.919 172.897 186.79 172.434 186.79C171.961 186.79 171.567 186.919 171.253 187.176C170.942 187.434 170.709 187.78 170.554 188.216C170.402 188.648 170.326 189.131 170.326 189.665C170.326 190.195 170.402 190.676 170.554 191.108C170.709 191.54 170.942 191.884 171.253 192.142C171.567 192.396 171.961 192.523 172.434 192.523ZM183.113 190.33V185.273H185.17V194H183.176V192.449H183.085C182.888 192.937 182.564 193.337 182.113 193.648C181.666 193.958 181.115 194.114 180.46 194.114C179.888 194.114 179.382 193.987 178.943 193.733C178.507 193.475 178.166 193.102 177.92 192.614C177.674 192.121 177.551 191.527 177.551 190.83V185.273H179.607V190.511C179.607 191.064 179.759 191.504 180.062 191.83C180.365 192.155 180.763 192.318 181.255 192.318C181.558 192.318 181.852 192.244 182.136 192.097C182.42 191.949 182.653 191.729 182.835 191.438C183.02 191.142 183.113 190.773 183.113 190.33ZM190.843 185.273V186.864H185.826V185.273H190.843ZM187.064 183.182H189.121V191.375C189.121 191.652 189.163 191.864 189.246 192.011C189.333 192.155 189.447 192.254 189.587 192.307C189.727 192.36 189.883 192.386 190.053 192.386C190.182 192.386 190.299 192.377 190.405 192.358C190.515 192.339 190.599 192.322 190.655 192.307L191.002 193.915C190.892 193.953 190.735 193.994 190.53 194.04C190.33 194.085 190.083 194.112 189.792 194.119C189.277 194.134 188.813 194.057 188.4 193.886C187.987 193.712 187.659 193.443 187.417 193.08C187.178 192.716 187.061 192.261 187.064 191.716V183.182Z" fill="#004F88"/>
<path d="M107 147.333C105.269 147.333 103.573 146.851 102.1 145.942C100.627 145.033 99.4359 143.732 98.6598 142.185C97.8838 140.638 97.5532 138.905 97.7051 137.181C97.8569 135.457 98.4852 133.809 99.5198 132.421C100.554 131.034 101.954 129.961 103.563 129.323C105.173 128.686 106.927 128.508 108.632 128.81C110.336 129.112 111.923 129.882 113.214 131.034C114.506 132.186 115.452 133.675 115.947 135.333H131V130H136.333V114.645L130.352 108.667H115V114H99V98H115V103.333H130.352L139 94.6827L150.315 106L141.667 114.643V130H147V146H131V140.667H115.947C115.372 142.593 114.191 144.283 112.579 145.484C110.967 146.685 109.01 147.334 107 147.333ZM107 134C105.939 134 104.922 134.421 104.172 135.172C103.421 135.922 103 136.939 103 138C103 139.061 103.421 140.078 104.172 140.828C104.922 141.579 105.939 142 107 142C108.061 142 109.078 141.579 109.828 140.828C110.579 140.078 111 139.061 111 138C111 136.939 110.579 135.922 109.828 135.172C109.078 134.421 108.061 134 107 134ZM141.667 135.333H136.333V140.667H141.667V135.333ZM139 102.229L135.229 106L139 109.771L142.771 106L139 102.229ZM109.667 103.333H104.333V108.667H109.667V103.333Z" fill="#004F88"/>
</svg>
